<svg enable-background="new 0 0 702 1000" viewBox="0 0 702 1000" xmlns="http://www.w3.org/2000/svg"><path d="m28.938 950.205h647.436v-926.93h-650.974s7.076 926.93 3.538 926.93z" fill="#fff"/><g fill="none" stroke-miterlimit="10"><g stroke="#414242" stroke-width=".8492"><g stroke-linecap="round" stroke-linejoin="round"><path d="m322.92 422.108v-10.859"/><path d="m322.92 411.249v-294.219"/><path d="m407.76 422.108h-84.84"/><path d="m407.76 411.249v10.859"/><path d="m407.76 105.824v305.425"/><path d="m347.351 286.371c-5.713 0-10.344 4.631-10.344 10.344s4.631 10.344 10.344 10.344"/><path d="m347.351 307.059c5.713 0 10.344-4.631 10.344-10.344s-4.631-10.344-10.344-10.344"/><path d="m347.351 324.665c-7.617 0-13.792 6.175-13.792 13.792s6.175 13.792 13.792 13.792"/><path d="m347.351 352.248c7.617 0 13.792-6.175 13.792-13.792s-6.175-13.792-13.792-13.792"/><path d="m380.744 282.923c-7.617 0-13.792 6.175-13.792 13.792s6.175 13.792 13.792 13.792"/><path d="m380.744 310.506c7.617 0 13.792-6.175 13.792-13.792s-6.175-13.792-13.792-13.792"/><path d="m380.744 328.06c-5.742 0-10.397 4.655-10.397 10.397s4.655 10.397 10.397 10.397"/><path d="m380.744 348.853c5.742 0 10.397-4.655 10.397-10.397s-4.655-10.397-10.397-10.397"/><path d="m397.983 275.844h-67.872"/><path d="m330.111 275.844v83.483"/><path d="m330.111 359.327h67.872"/><path d="m397.983 359.327v-83.483"/><path d="m403.155 364.499h-78.216"/><path d="m324.939 364.499v-93.827"/><path d="m324.939 270.672h78.216"/><path d="m403.155 270.672v93.827"/><path d="m601.707 364.934c0 2.999 2.431 5.43 5.43 5.43s5.43-2.431 5.43-5.43"/><path d="m612.567 364.934c0-2.999-2.431-5.43-5.43-5.43s-5.43 2.431-5.43 5.43"/><path d="m540.622 298.419v124.885"/><path d="m673.652 289.132h-5.43"/><path d="m667.529 298.419h-126.907"/><path d="m610.887 368.684 47.154 47.154"/><path d="m603.388 368.684-47.155 47.154"/><path d="m556.233 314.03 46.975 46.975"/><path d="m658.041 314.03-46.975 46.975"/><path d="m546.052 303.849v119.455"/><path d="m668.222 423.304v-119.455"/><path d="m668.222 294.562h-49.017"/><path d="m619.205 303.849h-73.153"/><path d="m556.233 314.03v101.808"/><path d="m556.233 415.838h101.808"/><path d="m658.041 415.838v-101.808"/><path d="m658.041 314.03h-101.808"/><path d="m668.222 294.562h-49.017"/><path d="m668.222 213.115v81.447"/><path d="m618.587 213.115h49.635"/><path d="m618.587 213.115c-6.324 0-11.45 5.126-11.45 11.45"/><path d="m607.137 282.494v-57.929"/><path d="m607.137 282.494c0 6.665 5.403 12.068 12.068 12.068"/><path d="m663.05 252.115v-8.62"/><path d="m668.222 243.495v22.411"/><path d="m663.05 265.906c0 1.428 1.158 2.586 2.586 2.586s2.586-1.158 2.586-2.586"/><path d="m668.222 243.495c0-1.428-1.158-2.586-2.586-2.586s-2.586 1.158-2.586 2.586"/><path d="m663.05 265.906v-10.343"/><path d="m665.636 259.873c-1.428 0-2.586 1.158-2.586 2.586s1.158 2.586 2.586 2.586"/><path d="m665.636 265.044c1.428 0 2.586-1.158 2.586-2.586s-1.158-2.586-2.586-2.586"/><path d="m665.636 244.357c-1.428 0-2.586 1.158-2.586 2.586s1.158 2.586 2.586 2.586"/><path d="m665.636 249.529c1.428 0 2.586-1.158 2.586-2.586s-1.158-2.586-2.586-2.586"/><path d="m668.222 227.908v51.861"/><path d="m655.584 226.907c0-4.761-3.859-8.62-8.62-8.62"/><path d="m618.587 213.115c-6.324 0-11.45 5.126-11.45 11.45"/><path d="m607.137 282.494c0 6.665 5.403 12.068 12.068 12.068"/><path d="m655.584 255.563v25.208"/><path d="m649.251 252.115c-.952 0-1.724.772-1.724 1.724s.772 1.724 1.724 1.724"/><path d="m665.589 252.115h-16.338"/><path d="m665.589 255.563h-16.338"/><path d="m665.589 255.563c.952 0 1.724-.772 1.724-1.724s-.772-1.724-1.724-1.724"/><path d="m646.965 289.39c4.761 0 8.62-3.859 8.62-8.62"/><path d="m612.309 280.771c0 4.761 3.859 8.62 8.62 8.62"/><path d="m620.929 218.287c-4.761 0-8.62 3.859-8.62 8.62"/><path d="m655.584 226.907v25.208"/><path d="m620.929 218.287h26.036"/><path d="m612.309 280.771v-53.864"/><path d="m646.965 289.39h-26.036"/><path d="m644.199 250.391c-1.904 0-3.448 1.544-3.448 3.448s1.544 3.448 3.448 3.448"/><path d="m644.199 257.287c1.904 0 3.448-1.544 3.448-3.448s-1.544-3.448-3.448-3.448"/><path d="m653.429 294.562h-34.224"/><path d="m607.137 282.494v-57.929"/><path d="m618.587 213.115h34.842"/><path d="m671.509 303.849h-132.244"/><path d="m668.222 299.992v-92.306"/><path d="m668.222 128.783h-18.16"/><path d="m650.062 128.783c-5.591 0-10.124 4.533-10.124 10.124"/><path d="m639.938 138.907v2.74"/><path d="m639.938 141.647-3.571-.411"/><path d="m636.367 141.236-6.671-7.95"/><path d="m629.696 133.286-3.531-2.002"/><path d="m626.165 131.284-3.531-.946"/><path d="m622.634 130.338-3.544-.625"/><path d="m619.09 129.713-3.518-.307"/><path d="m615.572 129.406-7.035.615"/><path d="m608.537 130.021-7.089 1.9"/><path d="m601.448 131.921-7.062 2.57"/><path d="m594.386 134.491-7.061 3.293"/><path d="m587.325 137.784-7.062 4.899"/><path d="m580.263 142.683-3.531 3.531"/><path d="m576.732 146.214-1.766 3.058"/><path d="m574.966 149.272-1.765 4.85"/><path d="m573.201 154.122v3.531"/><path d="m573.201 157.653 1.765 4.851"/><path d="m574.966 162.504 1.766 3.058"/><path d="m576.732 165.562 3.531 3.53"/><path d="m580.263 169.092 7.062 4.899"/><path d="m587.325 173.991 7.061 3.293"/><path d="m594.386 177.284 7.062 2.571"/><path d="m601.448 179.855 7.089 1.899"/><path d="m608.537 181.754 7.035.616"/><path d="m615.572 182.37 3.518-.308"/><path d="m619.09 182.062 3.544-.625"/><path d="m622.634 181.437 3.531-.946"/><path d="m626.165 180.491 3.531-2.001"/><path d="m629.696 178.49 6.671-7.951"/><path d="m636.367 170.539 3.571-.411"/><path d="m639.938 170.128v2.74"/><path d="m639.938 172.868c0 5.591 4.533 10.124 10.124 10.124"/><path d="m650.062 182.992h18.16"/><path d="m668.222 182.992v-54.209"/><path d="m666.186 196.611h2.036"/><path d="m666.186 115.164h2.036"/><path d="m639.938 141.647v28.481"/><path d="m668.222 213.115h-49.635"/><path d="m673.652 213.115h-5.43"/><path d="m668.222 85.516v122.17"/><path d="m407.593 89.373v168.323"/><path d="m408.271 89.373h-.678"/><path d="m387.044 257.696h-.679"/><path d="m494.469 176.249v-81.446"/><path d="m494.469 94.803v4.525"/><path d="m494.469 99.328v4.418"/><path d="m494.469 103.746v72.503"/><path d="m419.131 176.249h75.338"/><path d="m494.469 176.249h-75.338"/><path d="m494.469 103.746h-75.338"/><path d="m494.469 99.328h-75.338"/><path d="m494.469 94.803h-75.338"/><path d="m494.469 94.803h-75.338"/><path d="m362.397 178.085c-1.904 0-3.448 1.544-3.448 3.448s1.544 3.448 3.448 3.448"/><path d="m362.397 184.981c1.904 0 3.448-1.544 3.448-3.448s-1.544-3.448-3.448-3.448"/><path d="m391.269 164.511c-1.904 0-3.448 1.544-3.448 3.448s1.544 3.448 3.448 3.448"/><path d="m391.269 171.407c1.904 0 3.448-1.544 3.448-3.448s-1.544-3.448-3.448-3.448"/><path d="m391.269 191.66c-1.904 0-3.448 1.544-3.448 3.448s1.544 3.448 3.448 3.448"/><path d="m391.269 198.556c1.904 0 3.448-1.544 3.448-3.448s-1.544-3.448-3.448-3.448"/><path d="m369.611 179.809h21.658"/><path d="m369.611 179.809c-.952 0-1.724.772-1.724 1.724s.772 1.724 1.724 1.724"/><path d="m391.269 183.257h-21.658"/><path d="m391.269 183.257c.952 0 1.724-.772 1.724-1.724s-.772-1.724-1.724-1.724"/><path d="m383.512 142.018v37.791"/><path d="m383.512 142.018c0-3.808-3.087-6.896-6.896-6.896"/><path d="m338.471 135.122h38.145"/><path d="m338.471 135.122c-3.808 0-6.896 3.087-6.896 6.896"/><path d="m331.576 221.049v-79.031"/><path d="m331.576 221.049c0 3.808 3.087 6.896 6.896 6.896"/><path d="m376.616 227.944h-38.145"/><path d="m376.616 227.944c3.808 0 6.896-3.087 6.896-6.896"/><path d="m383.512 183.257v37.792"/><path d="m399.027 129.95h-72.623"/><path d="m326.404 129.95v103.166"/><path d="m326.404 233.116h72.623"/><path d="m399.027 233.116v-103.166"/><path d="m1.956 809.383v-66.881"/><path d="m407.634 754.505h75.696v108.137h-75.696z"/><path d="m593.62 668.942v-219.426"/><path d="m604.24 532.76 58.412-4.748"/><path d="m604.24 540.16h58.412"/><path d="m662.652 552.802-58.412-7.627"/><path d="m604.24 562.668 58.412-4.747"/><path d="m604.24 570.068h58.412"/><path d="m662.652 582.71-58.412-7.627"/><path d="m604.24 592.577 58.412-4.748"/><path d="m604.24 599.977h58.412"/><path d="m662.652 612.619-58.412-7.627"/><path d="m604.24 622.485 58.412-4.747"/><path d="m604.24 629.885h58.412"/><path d="m662.652 642.527-58.412-7.627"/><path d="m604.24 652.394 58.412-4.748"/><path d="m604.24 659.794h58.412"/><path d="m633.446 671.596v-222.08"/><path d="m662.652 463.076-58.412-7.626"/><path d="m604.24 472.943 58.412-4.748"/><path d="m604.24 480.343h58.412"/><path d="m662.652 492.985-58.412-7.627"/><path d="m604.24 502.852 58.412-4.748"/><path d="m604.24 510.252h58.412"/><path d="m662.652 522.893-58.412-7.626"/><path d="m593.62 449.516h79.653v220.546h-79.653z"/></g><path d="m383.732 755.621h228.195v109.675h-228.195z" transform="matrix(0 -1 1 0 -312.6285 1308.2877)"/><g stroke-linecap="round" stroke-linejoin="round"><path d="m550.919 675.161v268.825"/><path d="m550.919 943.986h120.971"/><path d="m671.89 943.986v-268.825"/><path d="m671.89 675.161h-120.971"/><path d="m550.919 923.824h120.971"/><path d="m550.919 695.629h120.971"/><path d="m651.728 695.323v228.501"/><path d="m550.919 809.574h100.809"/><path d="m30.827 531.554h189.175v74.296h-189.175z"/><path d="m124.65 487.301c-14.838-4.497-30.518-4.497-45.356 0"/><path d="m126.402 505.301c-15.811-6.069-33.047-6.073-48.861-.01"/><path d="m77.293 487.944c-2.005.645-3.414 2.608-3.507 4.886"/><path d="m79.294 487.301-2.001.643"/><path d="m73.786 492.83-1.575 38.724"/><path d="m130.158 492.83c-.093-2.279-1.501-4.241-3.507-4.886"/><path d="m124.65 487.301 2.001.643"/><path d="m130.158 492.83 1.574 38.724"/><path d="m126.961 494.43c-.065 0-.119.056-.122.128"/><path d="m126.839 494.558-1.505 36.996"/><path d="m126.961 494.43h2.932"/><path d="m77.105 494.558c-.003-.071-.057-.128-.122-.128"/><path d="m77.105 494.558 1.504 36.996"/><path d="m76.982 494.43h-3.388"/><path d="m151.91 487.301c14.838-4.497 30.518-4.497 45.356 0"/><path d="m150.158 505.301c15.811-6.069 33.047-6.073 48.861-.01"/><path d="m199.267 487.944c2.005.645 3.414 2.608 3.507 4.886"/><path d="m197.266 487.301 2.001.643"/><path d="m202.774 492.83 1.575 38.724"/><path d="m146.402 492.83c.093-2.279 1.501-4.241 3.507-4.886"/><path d="m151.91 487.301-2.001.643"/><path d="m146.402 492.83-1.575 38.724"/><path d="m149.599 494.43c.065 0 .119.056.122.128"/><path d="m149.721 494.558 1.505 36.996"/><path d="m149.599 494.43h-2.932"/><path d="m199.455 494.558c.003-.071.057-.128.122-.128"/><path d="m199.455 494.558-1.504 36.996"/><path d="m199.577 494.43h3.389"/><path d="m36.352 709.061v133.763"/><path d="m36.352 842.824h-4.297"/><path d="m32.055 842.824-4.298-33.441"/><path d="m27.757 809.383v-66.881"/><path d="m27.757 742.502 4.298-33.441"/><path d="m32.055 709.061h4.297"/><path d="m34.633 833.907v-8.918"/><path d="m34.633 824.989h-1.074"/><path d="m33.559 824.989v8.918"/><path d="m33.559 833.907h1.074"/><path d="m34.633 822.76v-8.918"/><path d="m34.633 813.842h-1.074"/><path d="m33.559 813.842v8.918"/><path d="m33.559 822.76h1.074"/><path d="m34.633 811.613v-4.459"/><path d="m34.633 807.154h-1.074"/><path d="m33.559 807.154v4.459"/><path d="m33.559 811.613h1.074"/><path d="m32.055 709.061v133.763"/><path d="m68.433 946.013v-338.624h-40.676v239.858h.352v98.766z"/><path d="m27.757 607.389h40.675v93.968h-40.675z"/><path d="m28.109 852.045h40.324v93.968h-40.324z"/><path d="m68.433 701.357-40.676-93.968"/><path d="m68.433 852.045-40.324 93.968"/><path d="m28.109 852.045 40.324 93.968"/><path d="m27.813 701.357 40.62-93.968"/><path d="m699.557 828.552v70.834"/><path d="m406.362 117.472v-85.352"/><path d="m395.742 66.199-58.412-4.747"/><path d="m395.742 73.599h-58.412"/><path d="m337.33 86.241 58.412-7.627"/><path d="m395.742 96.108-58.412-4.748"/><path d="m395.742 103.508h-58.412"/><path d="m337.33 116.15 58.412-7.627"/><path d="m366.536 117.472v-85.352"/><path d="m395.742 36.291-58.412-4.748"/><path d="m395.742 43.691h-58.412"/><path d="m337.33 56.333 58.412-7.627"/><path d="m326.71 32.12h79.653v85.352h-79.653z"/></g></g><g stroke="#46a5de" stroke-width="1.4153"><path d="m454.424 974.427v-8.145"/><path d="m454.424 970.355h8.145"/><path d="m462.569 970.355v-8.145"/><path d="m462.569 962.21h-8.145"/><path d="m454.424 962.21v8.145"/><path d="m586.097 964.925h-123.528"/><path d="m462.569 967.64h123.528"/><path d="m594.241 970.355v-8.145"/><path d="m594.241 962.21h-8.144"/><path d="m586.097 962.21v8.145"/><path d="m586.097 970.355h8.144"/><path d="m454.424 966.282h-8.144"/><path d="m446.28 966.282v8.145"/><path d="m446.28 974.427h8.144"/><path d="m594.241 974.427v-8.145"/><path d="m594.241 966.282h8.145"/><path d="m602.386 966.282v8.145"/><path d="m602.386 974.427h-8.145"/><path d="m602.386 966.282h-8.145"/><path d="m594.241 970.355v4.072"/><path d="m594.241 974.427h4.751"/><path d="m602.386 974.427v-8.145"/><path d="m454.424 966.282h-8.144"/><path d="m446.28 966.282v8.145"/><path d="m449.673 974.427h4.751"/><path d="m454.424 974.427v-4.072"/><path d="m177.506 964.925h-61.085"/><path d="m116.421 967.64h61.085"/><path d="m108.276 974.427v-8.145"/><path d="m108.276 966.282h-8.145"/><path d="m100.131 966.282v8.145"/><path d="m100.131 974.427h8.145"/><path d="m116.421 970.355v-8.145"/><path d="m116.421 962.21h-8.145"/><path d="m108.276 962.21v8.145"/><path d="m108.276 970.355h8.145"/><path d="m185.65 970.355v-8.145"/><path d="m185.65 962.21h-8.144"/><path d="m177.506 962.21v8.145"/><path d="m177.506 970.355h8.144"/><path d="m185.65 974.427v-8.145"/><path d="m185.65 966.282h8.145"/><path d="m193.795 966.282v8.145"/><path d="m193.795 974.427h-8.145"/><path d="m370.263 974.427v-8.145"/><path d="m370.263 966.282h8.145"/><path d="m378.408 966.282v8.145"/><path d="m378.408 974.427h-8.145"/><path d="m108.276 970.355v1.357"/><path d="m108.276 971.712h77.374"/><path d="m185.65 971.712v-1.357"/><path d="m370.263 968.997h-176.468"/><path d="m193.795 968.997v2.715"/><path d="m193.795 971.712h176.468"/><path d="m370.263 971.712v-2.715"/><path d="m193.795 966.282h-8.145"/><path d="m185.65 970.355v4.072"/><path d="m185.65 974.427h8.145"/><path d="m193.795 974.427v-8.145"/><path d="m378.408 966.282h-8.145"/><path d="m370.263 966.282v8.145"/><path d="m370.263 974.427h4.751"/><path d="m378.408 974.427v-8.145"/><path d="m108.276 966.282h-8.145"/><path d="m100.131 966.282v8.145"/><path d="m103.525 974.427h4.751"/><path d="m108.276 974.427v-4.072"/><path d="m588.576 960.581.109-.945.197-1.584.15-1.048.242-1.324.124-.548.029-.144.013-.101"/><path d="m590.898 954.875c.001.024.009.086.009.086l.036.184.128.565.16.835.139.892.202 1.535.097.813.092.797"/><path d="m590.854 953.965c-.022-.054-.047-.103-.047-.103-.027-.045-.092-.131-.092-.131l-.073-.072-.08-.06-.087-.048-.093-.036-.098-.023-.099-.009-.098.005-.193.05-.136.073-.089.072c-.058.062-.097.113-.097.113l-.048.08c-.021.045-.04.09-.04.09"/><path d="m592.069 962.21v-1.629"/><path d="m588.269 960.581v1.629"/><path d="m589.47 960.581c-.003-1.169-.007-2.224-.01-3.085s-.007-1.527-.01-1.967-.007-.655-.01-.664"/><path d="m589.44 954.865v.516.172"/><path d="m590.868 960.581c.003-1.169.007-2.224.01-3.085s.007-1.527.01-1.967.007-.655.01-.664"/><path d="m590.898 954.865c-.022-.057-.051-.11-.086-.16s-.077-.096-.124-.136-.099-.075-.155-.103-.115-.05-.177-.064"/><path d="m590.357 954.401c-.061-.015-.124-.022-.188-.022-.063 0-.126.008-.188.022-.122.029-.237.087-.331.167-.047.04-.089.086-.124.136s-.064.104-.086.16"/><path d="m590.898 955.572v-.191-.516"/><path d="m590.823 955.216c.004-.077.008-.135.012-.175"/><path d="m590.864 955.069c.005.062.01.155.016.277"/><path d="m589.458 955.347c.006-.148.012-.252.019-.312"/><path d="m589.499 955.013c.005.038.01.105.015.199"/><path d="m589.531 955.327v-.238"/><path d="m589.531 954.933v-.206"/><path d="m589.44 954.865c.015-.575.03-.88.045-.903.007-.01.014.037.021.142"/><path d="m589.515 954.268c.005.119.011.272.016.459"/><path d="m589.531 954.727.076-.142"/><path d="m590.731 954.585.076.142"/><path d="m590.898 954.865c-.015-.575-.03-.88-.045-.903"/><path d="m590.823 954.268c-.005.109-.01.247-.015.413"/><path d="m590.807 955.138v.194"/><path d="m588.269 960.581h3.8"/><path d="m454.424 962.21h139.817"/><path d="m594.241 970.355h-139.817"/><path d="m454.424 962.21v8.145"/><path d="m594.241 970.355v-8.145"/><path d="m594.241 974.427h-139.817"/><path d="m179.985 960.581.109-.945.197-1.584.15-1.048.242-1.324.124-.548.029-.144.013-.101"/><path d="m182.307 954.875c.001.024.009.086.009.086l.036.184.128.565.16.835.139.892.202 1.535.097.813.092.797"/><path d="m182.263 953.965c-.022-.054-.047-.103-.047-.103-.027-.045-.092-.131-.092-.131l-.073-.072-.08-.06-.087-.048-.093-.036-.098-.023-.099-.009-.098.005-.193.05-.136.073-.089.072c-.058.062-.097.113-.097.113l-.048.08c-.021.045-.04.09-.04.09"/><path d="m183.478 962.21v-1.629"/><path d="m179.678 960.581v1.629"/><path d="m180.879 960.581c-.003-1.169-.007-2.224-.01-3.085s-.007-1.527-.01-1.967-.007-.655-.01-.664"/><path d="m180.849 954.865v.516.172"/><path d="m182.277 960.581c.003-1.169.007-2.224.01-3.085s.007-1.527.01-1.967.007-.655.01-.664"/><path d="m182.307 954.865c-.022-.057-.051-.11-.086-.16s-.077-.096-.124-.136-.099-.075-.155-.103-.115-.05-.177-.064"/><path d="m181.765 954.401c-.061-.015-.124-.022-.188-.022-.063 0-.126.008-.188.022-.123.029-.237.087-.331.167-.047.04-.089.086-.124.136s-.064.104-.086.16"/><path d="m182.307 955.572v-.191-.516"/><path d="m182.232 955.216c.004-.077.008-.135.012-.175"/><path d="m182.273 955.069c.005.062.01.155.016.277"/><path d="m180.867 955.347c.006-.148.012-.252.019-.312"/><path d="m180.908 955.013c.005.038.01.105.015.199"/><path d="m180.94 955.327v-.238"/><path d="m180.94 954.933v-.206"/><path d="m180.849 954.865c.015-.575.03-.88.045-.903.007-.01.014.037.021.142"/><path d="m180.924 954.268c.005.119.011.272.016.459"/><path d="m180.94 954.727.075-.142"/><path d="m182.14 954.585.076.142"/><path d="m182.307 954.865c-.015-.575-.03-.88-.046-.903"/><path d="m182.232 954.268c-.005.109-.01.247-.015.413"/><path d="m182.216 955.138v.194"/><path d="m179.678 960.581h3.8"/><path d="m108.276 962.21h77.374"/><path d="m185.65 970.355h-77.374"/><path d="m108.276 962.21v8.145"/><path d="m185.65 970.355v-8.145"/><path d="m193.795 966.282h176.468"/><path d="m370.263 974.427h-176.468"/><path d="m185.65 974.427h-77.374"/></g></g><g clip-rule="evenodd" fill="#5d5790" fill-rule="evenodd"><path d="m442.886 948.912h-61.085v25.515h-6.787v24.434h6.787 67.873v-24.434h-6.788z"/><path d="m92.665 31.003h5.43v137.102h-5.43z"/><path d="m96.738 960.853-2.349-.47v-12.831h-64.157l-1.367-.274v-513.114-403.161h63.8v-5.43h1.358v-5.43h-10.86v-2.715-13.574h-54.298-27.149v13.574h.308v382.328l-1.537 62.064 1.229-.11v485.568l.042.274h-1.566v39.092h-.012l.012.495v8.174h.206l.089 3.548h88.482 7.769 6.787v-24.434h-6.787z"/><path d="m701.82 960.853v-538.753h-1.019v-391.097-13.575h.191l-1.327-13.574h-460.396v13.574l-.11 2.715h-10.749v5.43h1.358v5.43h178.504v40.764 46.113 310.855 5.43h5.43 6.633 2.19v-1.358h8.144v-4.072h-10.344l-.578-338.158h253.405l1.295 331.524h-151.471v10.706h8.145v1.358h142.532v513.114l.638.307h-68.51v26.842h-6.787v24.434h6.787 73.631 20.255v-24.434h-2.653v-15.892zm-28.168-882.34h-254.521v-47.51h254.521z"/><path d="m429.312 416.22v7.084h5.43v-95.021h-5.43z"/></g><g fill="none" stroke="#43456f" stroke-miterlimit="10" stroke-width="1.4153"><path d="m28.865 947.278v-943.424"/><path d="m28.865 3.854h-27.149"/><path d="m1.716 3.854v995.285"/><path d="m1.716 947.278h27.149"/><path d="m28.865 31.003h54.298"/><path d="m83.163 20.143v-16.289"/><path d="m83.163 3.854h-54.298"/><path d="m28.865 3.854v27.149"/><path d="m419.131 31.003h203.617"/><path d="m239.269 31.003h179.862"/><path d="m622.748 31.003h16.968"/><path d="m673.652 31.003h27.149"/><path d="m700.801 31.003v-27.149"/><path d="m700.801 3.854h-461.532"/><path d="m239.269 3.854v16.289"/><path d="m96.738 974.427v-27.149"/><path d="m96.738 947.278h-96.558"/><path d="m673.13 947.278h-67.35"/><path d="m605.78 947.278v27.149"/><path d="m442.886 974.427v-27.149"/><path d="m442.886 947.278h-61.085"/><path d="m381.801 947.278v27.149"/><path d="m598.992 974.427v24.434"/><path d="m598.992 998.861h100.673"/><path d="m375.014 974.427v24.434"/><path d="m375.014 998.861h74.659"/><path d="m449.673 998.861v-24.434"/><path d="m.487 998.861h103.038"/><path d="m103.525 998.861v-24.434"/><path d="m598.992 998.861h-149.319"/><path d="m375.014 998.861h-271.489"/><path d="m700.991 998.861h-101.999"/><path d="m449.673 998.861h149.319"/><path d="m103.525 998.861h271.489"/><path d="m449.673 998.861h-74.659"/><path d="m103.525 998.861h-74.66"/><path d="m1.716 998.861h-1.229"/><path d="m28.865 998.861h-27.149"/><path d="m96.738 947.278h285.063"/><path d="m442.886 947.278h162.894"/><path d="m673.652 3.854v27.149"/><path d="m673.652 434.164v513.114"/><path d="m673.652 947.278h27.149"/><path d="m700.801 999.139v-567.689"/><path d="m700.801 420.591v-342.078"/><path d="m700.801 420.591v10.859"/><path d="m419.131 423.304v-333.931"/><path d="m419.131 89.373h-10.86"/><path d="m422.525 434.164v-1.358"/><path d="m422.525 423.304h-3.394"/><path d="m408.271 31.003v403.161"/><path d="m531.12 434.164h142.532"/><path d="m673.652 423.304h-142.532"/><path d="m531.12 432.806v1.358"/><path d="m673.652 434.164v-10.86"/><path d="m419.131 89.373h254.521"/><path d="m673.652 423.304v-344.791"/><path d="m639.716 78.513h-16.968"/><path d="m419.131 78.513v-47.51"/><path d="m419.131 31.003h-10.86"/><path d="m1.716 31.003v-27.149"/><path clip-rule="evenodd" d="m534.514 78.513 9.502-38.008 78.732-9.502h-88.234v10.649z"/><path d="m622.748 31.003v47.51"/><path d="m622.748 78.513h-88.234"/><path d="m534.514 78.513v-47.51"/><path d="m534.514 31.003h88.234"/><path clip-rule="evenodd" d="m673.652 78.513v-47.51h-33.936l27.149 6.787z"/><path d="m639.716 31.003v47.51"/><path d="m639.716 78.513h33.936"/><path d="m673.652 78.513v-47.51"/><path d="m673.652 31.003h-33.936"/><path clip-rule="evenodd" d="m419.131 78.513 15.837-31.674 99.546-15.836h-115.383v18.356z"/><path d="m534.514 31.003v47.51"/><path d="m534.514 78.513h-115.383"/><path d="m419.131 78.513v-47.51"/><path d="m419.131 31.003h115.383"/><path d="m700.801 78.513v-47.51"/><path d="m98.095 31.003h-5.43"/><path d="m92.665 31.003v137.102"/><path d="m92.665 168.105h5.43"/><path d="m98.095 168.105v-137.102"/><path d="m85.878 20.143v10.86"/><path d="m85.878 31.003h6.787"/><path d="m92.665 31.003v-5.43"/><path d="m92.665 25.573h1.358"/><path d="m94.023 25.573v-5.43"/><path d="m94.023 20.143h-8.145"/><path d="m236.554 20.143h-8.144"/><path d="m228.41 20.143v5.43"/><path d="m228.41 25.573h1.357"/><path d="m229.767 25.573v5.43"/><path d="m229.767 31.003h6.787"/><path d="m236.554 31.003v-10.86"/><path d="m85.878 20.143h-2.715"/><path d="m83.163 20.143v10.86"/><path d="m83.163 31.003h2.715"/><path d="m85.878 31.003v-10.86"/><path d="m236.554 20.143v10.86"/><path d="m236.554 31.003h2.715"/><path d="m239.269 31.003v-10.86"/><path d="m239.269 20.143h-2.715"/><path d="m92.665 168.105c75.719 0 137.102-61.383 137.102-137.102"/><path d="m83.163 3.854h2.715"/><path d="m85.878 3.854v16.289"/><path d="m88.593 20.143v-19.004"/><path d="m88.593 1.139h-10.181"/><path d="m78.412 1.139v2.715"/><path d="m242.663 33.718h-6.109"/><path d="m236.554 33.718v-2.715"/><path d="m233.84 31.003v5.429"/><path d="m233.84 36.432h10.18"/><path d="m244.02 36.432v-5.429"/><path d="m242.663 31.003v2.715"/><path d="m236.554 3.854h2.715"/><path d="m244.02 3.854v-2.715"/><path d="m244.02 1.139h-10.18"/><path d="m233.84 1.139v19.004"/><path d="m236.554 20.143v-16.289"/><path d="m79.77 33.718v-2.715"/><path d="m78.412 31.003v5.429"/><path d="m78.412 36.432h10.181"/><path d="m88.593 36.432v-5.429"/><path d="m85.878 31.003v2.715"/><path d="m85.878 33.718h-6.108"/><path d="m434.742 328.283v95.021"/><path d="m429.312 328.283h5.43"/><path d="m429.312 423.304v-95.021"/><path d="m434.742 423.304h-5.43"/><path d="m430.669 432.806h-5.43"/><path d="m430.669 428.734v4.072"/><path d="m429.312 428.734h1.357"/><path d="m429.312 423.304v5.43"/><path d="m425.239 423.304h4.073"/><path d="m425.239 432.806v-9.502"/><path d="m528.405 423.304v9.502"/><path d="m524.333 423.304h4.072"/><path d="m524.333 428.734v-5.43"/><path d="m522.975 428.734h1.358"/><path d="m522.975 432.806v-4.072"/><path d="m528.405 432.806h-5.43"/><path d="m425.239 423.304v9.502"/><path d="m422.525 423.304h2.714"/><path d="m422.525 432.806v-9.502"/><path d="m425.239 432.806h-2.714"/><path d="m531.12 432.806h-2.715"/><path d="m531.12 423.304v9.502"/><path d="m528.405 423.304h2.715"/><path d="m528.405 432.806v-9.502"/><path d="m524.333 423.304c0-52.479-42.542-95.021-95.021-95.021"/><g stroke-dasharray="11.3227 11.3227"><path d="m320.037 117.879h-84.84"/><path d="m235.197 117.879v305.425"/><path d="m237.674 434.164h184.851"/></g></g><g fill="#43456f"><path d="m226.246 753.029h-.086l-5.297 2.801-1.068-5.411 7.349-3.798h5.383v30.855h-6.28v-24.447z"/><path d="m241.239 769.405c0-3.702 1.923-6.266 4.956-7.737v-.143c-2.691-1.519-4.016-4.035-4.016-6.74 0-5.222 4.229-8.688 9.783-8.688 6.494 0 9.186 4.178 9.186 7.928 0 2.658-1.281 5.27-4.016 6.788v.143c2.691 1.14 5.084 3.702 5.084 7.69 0 5.602-4.229 9.352-10.681 9.352-7.049 0-10.296-4.415-10.296-8.593zm14.355-.237c0-2.705-1.794-4.319-4.358-5.079-2.136.665-3.375 2.374-3.375 4.604-.043 2.231 1.496 4.32 3.931 4.32 2.307.001 3.802-1.661 3.802-3.845zm-7.305-14.62c0 2.088 1.709 3.418 3.931 4.177 1.495-.475 2.819-1.993 2.819-3.939 0-1.899-.982-3.798-3.375-3.798-2.222-.001-3.375 1.614-3.375 3.56z"/><path d="m263.668 783.125c1.324-4.226 2.478-9.162 3.076-13.482l6.622-.475c-1.41 4.843-3.333 9.827-5.384 13.529z"/><path d="m284.771 753.029h-.086l-5.297 2.801-1.068-5.411 7.349-3.798h5.383v30.855h-6.28v-24.447z"/><path d="m146.39 237.148h-10.767l-.599 4.747c.599-.095 1.111-.095 1.795-.095 2.648 0 5.341.664 7.306 2.23 2.094 1.567 3.376 4.13 3.376 7.738 0 5.744-4.443 10.823-11.921 10.823-3.375 0-6.194-.854-7.733-1.757l1.154-5.411c1.238.664 3.76 1.519 6.28 1.519 2.691 0 5.554-1.424 5.554-4.699 0-3.181-2.264-5.127-7.818-5.127-1.538 0-2.605.095-3.76.285l1.838-16.188h15.295z"/><path d="m149.847 267.719c1.325-4.226 2.479-9.162 3.076-13.482l6.623-.475c-1.41 4.843-3.333 9.827-5.384 13.529z"/><path d="m163.818 254.996c1.153.665 3.803 1.899 6.451 1.899 3.375 0 5.084-1.805 5.084-4.13 0-3.038-2.734-4.415-5.597-4.415h-2.649v-5.175h2.521c2.179-.047 4.956-.949 4.956-3.56 0-1.852-1.367-3.229-4.102-3.229-2.265 0-4.657 1.092-5.811 1.852l-1.325-5.222c1.667-1.187 4.999-2.326 8.588-2.326 5.939 0 9.229 3.466 9.229 7.69 0 3.275-1.666 5.839-5.084 7.168v.095c3.332.665 6.024 3.466 6.024 7.5 0 5.46-4.315 9.447-11.365 9.447-3.589 0-6.622-1.045-8.245-2.184z"/><path d="m302.679 292.159c.665-1.153 1.899-3.803 1.899-6.451 0-3.375-1.805-5.084-4.13-5.084-3.038 0-4.415 2.734-4.415 5.597v2.649h-5.175v-2.521c-.047-2.179-.949-4.956-3.56-4.956-1.852 0-3.229 1.367-3.229 4.102 0 2.265 1.092 4.657 1.852 5.811l-5.222 1.325c-1.187-1.667-2.326-4.999-2.326-8.588 0-5.939 3.466-9.229 7.69-9.229 3.275 0 5.839 1.666 7.168 5.084h.095c.665-3.332 3.466-6.024 7.5-6.024 5.46 0 9.447 4.315 9.447 11.365 0 3.589-1.045 6.622-2.184 8.245z"/><path d="m315.402 271.314c-4.226-1.325-9.162-2.479-13.482-3.076l-.475-6.623c4.843 1.41 9.826 3.333 13.529 5.384z"/><path d="m294.182 237.989c9.542 0 16.093 3.46 16.093 10.553 0 7.178-7.168 10.339-15.902 10.382-8.925 0-15.998-3.418-15.998-10.596 0-7.434 7.358-10.339 15.807-10.339zm.191 14.398c7.072.043 10.443-1.495 10.443-4.016s-3.513-3.888-10.539-3.888c-6.835 0-10.443 1.324-10.443 3.93 0 2.393 3.371 4.017 10.539 3.974z"/><path d="m484.133 286.838v-7.357h-12.305v-4.7l10.511-18.798h7.946v18.086h3.333v5.412h-3.333v7.357zm0-12.769v-6.836c0-1.851.086-3.75.214-5.743h-.171c-.897 1.993-1.623 3.797-2.563 5.743l-3.717 6.741v.095z"/><path d="m494.64 292.487c1.324-4.226 2.478-9.162 3.076-13.482l6.622-.475c-1.41 4.843-3.333 9.826-5.384 13.529z"/><path d="m525.187 261.11c-.727-.048-1.496 0-2.521.095-5.768.522-8.331 3.798-9.057 7.405h.128c1.367-1.566 3.29-2.469 5.896-2.469 4.657 0 8.588 3.655 8.588 10.063 0 6.124-4.229 11.156-10.254 11.156-7.392 0-11.023-6.124-11.023-13.481 0-5.792 1.923-10.634 4.914-13.719 2.777-2.801 6.365-4.32 10.724-4.558 1.196-.095 1.966-.095 2.606-.048v5.556zm-3.547 15.474c0-2.848-1.367-5.316-4.144-5.316-1.752 0-3.204 1.187-3.846 2.753-.171.38-.256.95-.256 1.805.128 3.275 1.538 6.218 4.485 6.218 2.309-.001 3.761-2.326 3.761-5.46z"/><path d="m40.739 176.474v9.969h.897l7.776-9.969h4.571l-9.015 10.396c3.332.379 5.34 2.848 6.964 6.978.556 1.52 1.282 3.75 2.222 5.602h-3.931c-.556-.997-1.282-2.801-1.923-4.699-1.41-3.703-3.332-5.412-6.836-5.412h-.726v10.111h-3.717v-22.976z"/><path d="m75.942 187.772c0 8.497-5.298 12.2-10.297 12.2-5.597 0-9.912-4.558-9.912-11.82 0-7.69 4.528-12.2 10.254-12.2 5.939-.001 9.955 4.794 9.955 11.82zm-16.406.237c0 5.032 2.606 8.829 6.28 8.829 3.589 0 6.28-3.75 6.28-8.924 0-3.893-1.751-8.829-6.194-8.829s-6.366 4.557-6.366 8.924z"/><path d="m80.682 183.974c0-2.942-.086-5.316-.171-7.5h3.375l.171 3.94h.085c1.539-2.801 3.974-4.463 7.35-4.463 4.998 0 8.758 4.7 8.758 11.678 0 8.26-4.528 12.343-9.399 12.343-2.734 0-5.127-1.329-6.366-3.608h-.085v12.485h-3.717v-24.875zm3.717 6.124c0 .617.085 1.187.171 1.709.684 2.896 2.948 4.89 5.64 4.89 3.974 0 6.28-3.608 6.28-8.877 0-4.604-2.179-8.545-6.152-8.545-2.563 0-4.956 2.041-5.682 5.174-.129.522-.257 1.14-.257 1.709z"/><path d="m108.449 176.474v9.684c0 3.655-.042 5.935-.213 9.21l.128.047c1.239-2.801 1.966-4.414 3.333-7.073l6.451-11.867h4.4v22.976h-3.589v-9.731c0-3.75.085-5.696.257-9.399h-.129c-1.324 2.943-2.222 4.795-3.418 7.121-1.965 3.561-4.229 7.975-6.451 12.01h-4.315v-22.976h3.546z"/><path d="m144.677 176.474v19.843l2.137.047-.214 10.396h-2.948l-.171-7.311h-14.313l-.171 7.311h-2.948l-.171-10.396 1.752-.047c.896-1.472 1.58-3.038 2.051-4.7.812-2.848 1.196-5.934 1.196-9.161v-5.981h13.8zm-10.467 6.978c0 3.038-.384 5.98-1.067 8.544-.428 1.566-1.025 2.991-1.667 4.272h9.528v-16.614h-6.794z"/><path d="m169.84 187.772c0 8.497-5.298 12.2-10.297 12.2-5.597 0-9.912-4.558-9.912-11.82 0-7.69 4.529-12.2 10.254-12.2 5.939-.001 9.955 4.794 9.955 11.82zm-16.407.237c0 5.032 2.606 8.829 6.281 8.829 3.588 0 6.28-3.75 6.28-8.924 0-3.893-1.752-8.829-6.195-8.829s-6.366 4.557-6.366 8.924z"/><path d="m174.58 183.974c0-2.942-.086-5.316-.171-7.5h3.375l.171 3.94h.086c1.537-2.801 3.973-4.463 7.348-4.463 4.999 0 8.759 4.7 8.759 11.678 0 8.26-4.528 12.343-9.399 12.343-2.734 0-5.127-1.329-6.365-3.608h-.086v12.485h-3.717v-24.875zm3.717 6.124c0 .617.086 1.187.171 1.709.684 2.896 2.948 4.89 5.64 4.89 3.974 0 6.28-3.608 6.28-8.877 0-4.604-2.179-8.545-6.152-8.545-2.563 0-4.956 2.041-5.683 5.174-.128.522-.256 1.14-.256 1.709z"/><path d="m195.207 706.38v3.37h-8.973v19.605h-3.717v-22.975z"/><path d="m216.909 717.678c0 8.497-5.298 12.2-10.296 12.2-5.598 0-9.912-4.558-9.912-11.82 0-7.69 4.528-12.2 10.254-12.2 5.938 0 9.954 4.795 9.954 11.82zm-16.406.237c0 5.032 2.606 8.829 6.28 8.829 3.59 0 6.281-3.75 6.281-8.924 0-3.893-1.752-8.829-6.195-8.829s-6.366 4.557-6.366 8.924z"/><path d="m236.388 728.501c-.982.569-3.161 1.329-5.938 1.329-6.237 0-10.296-4.699-10.296-11.725 0-7.073 4.357-12.2 11.107-12.2 2.223 0 4.188.617 5.213 1.187l-.854 3.229c-.897-.57-2.308-1.092-4.358-1.092-4.742 0-7.306 3.893-7.306 8.687 0 5.316 3.076 8.592 7.178 8.592 2.137 0 3.546-.616 4.614-1.139z"/><path d="m255.442 706.38v3.323h-6.451v19.652h-3.718v-19.652h-6.451v-3.323z"/><path d="m262.191 706.38v9.684c0 3.655-.043 5.935-.214 9.21l.128.047c1.239-2.801 1.965-4.414 3.332-7.073l6.452-11.867h4.4v22.976h-3.589v-9.731c0-3.75.086-5.696.256-9.399h-.128c-1.324 2.943-2.222 4.795-3.418 7.121-1.965 3.561-4.229 7.975-6.451 12.01h-4.315v-22.978z"/><path d="m286.029 706.38v9.257h9.826v-9.257h3.717v22.976h-3.717v-10.396h-9.826v10.396h-3.718v-22.976z"/><path d="m317.172 729.356-.299-2.896h-.129c-1.153 1.804-3.375 3.418-6.323 3.418-4.187 0-6.323-3.275-6.323-6.599 0-5.554 4.443-8.592 12.434-8.545v-.475c0-1.898-.471-5.316-4.7-5.316-1.923 0-3.931.665-5.384 1.709l-.854-2.753c1.709-1.234 4.187-2.042 6.793-2.042 6.323 0 7.861 4.795 7.861 9.399v8.592c0 1.994.085 3.94.342 5.507h-3.418zm-.556-11.726c-4.102-.095-8.759.713-8.759 5.175 0 2.706 1.624 3.987 3.547 3.987 2.691 0 4.4-1.898 4.998-3.845.129-.428.214-.902.214-1.329z"/><path d="m341.693 729.356h-3.718v-9.637h-2.776c-1.581 0-2.649.475-3.461 1.282-1.538 1.376-2.094 4.225-2.905 6.456-.257.712-.556 1.329-.854 1.898h-4.017c.47-.76.897-1.614 1.282-2.611.896-2.23 1.41-5.222 3.247-6.93.641-.617 1.409-1.14 2.35-1.33v-.142c-2.691-.333-5.469-2.184-5.469-5.697 0-2.373 1.153-3.987 2.734-4.983 1.709-1.093 4.229-1.567 6.921-1.567 2.479 0 4.871.237 6.666.475zm-3.718-20.223c-.939-.142-1.794-.237-3.118-.237-2.564 0-5.598.808-5.598 3.988 0 2.942 3.29 3.987 5.512 3.987h3.204z"/><path d="m247.465 375.223h9.969v-.897l-9.969-7.775v-4.572l10.396 9.016c.379-3.333 2.848-5.341 6.978-6.965 1.52-.555 3.75-1.281 5.602-2.221v3.93c-.997.556-2.801 1.282-4.699 1.923-3.703 1.41-5.412 3.333-5.412 6.836v.727h10.111v3.717h-22.976z"/><path d="m247.465 356.812 13.576-4.528c1.52-.47 3.323-.983 4.7-1.325v-.085c-1.377-.385-3.134-.812-4.795-1.324l-13.481-4.102v-3.974l16.377 5.64c7.88 2.691 11.915 4.528 14.384 7.093 1.804 1.837 2.516 3.674 2.706 4.613l-3.513.94c-.333-.94-.997-2.179-2.042-3.29-.901-1.025-2.516-2.307-4.651-3.161-.428-.171-.76-.3-.997-.3s-.569.086-1.092.257l-21.172 7.647z"/><path d="m247.465 336.136 4.937-2.948c1.282-.77 2.469-1.41 3.751-2.094v-.128c-1.377-.684-2.563-1.367-3.798-2.051l-4.89-2.905v-4.06l11.108 7.05 11.867-7.263v4.272l-5.174 3.033c-1.329.812-2.611 1.495-3.988 2.222v.086c1.377.684 2.611 1.409 3.988 2.179l5.174 2.99v4.145l-11.726-7.349-11.25 7.007v-4.186z"/><path d="m247.465 314.476h9.257v-9.826h-9.257v-3.717h22.976v3.717h-10.396v9.826h10.396v3.718h-22.976z"/><path d="m270.44 279.53v3.718h-9.637v2.776c0 1.581.475 2.649 1.282 3.461 1.376 1.538 4.225 2.094 6.456 2.905.712.257 1.329.556 1.898.854v4.017c-.76-.47-1.614-.897-2.611-1.282-2.23-.896-5.222-1.41-6.93-3.247-.617-.641-1.14-1.409-1.33-2.35h-.142c-.333 2.691-2.184 5.469-5.697 5.469-2.373 0-3.987-1.153-4.983-2.734-1.093-1.709-1.567-4.229-1.567-6.921 0-2.479.237-4.871.475-6.666zm-20.223 3.718c-.142.939-.237 1.794-.237 3.118 0 2.564.808 5.598 3.988 5.598 2.942 0 3.987-3.29 3.987-5.512 0-1.538 0-2.35 0-3.204z"/><path d="m256.056 264.707h3.086v10.554h-3.086z"/><path d="m247.465 256.677h9.257v-9.826h-9.257v-3.717h22.976v3.717h-10.396v9.826h10.396v3.718h-22.976z"/><path d="m247.465 233.523h9.684c3.655 0 5.935.043 9.21.214l.047-.128c-2.801-1.239-4.414-1.965-7.073-3.332l-11.867-6.452v-4.4h22.976v3.589h-9.731c-3.75 0-5.696-.086-9.399-.256v.128c2.943 1.324 4.795 2.222 7.121 3.418 3.561 1.965 7.975 4.229 12.01 6.451v4.315h-22.976v-3.547z"/><path d="m247.465 209.729h19.7v-7.22h-19.7v-3.675h19.7v-7.221h-19.7v-3.717h22.976v25.507h-22.976z"/><path d="m270.44 170.34-2.896.3v.128c1.804 1.153 3.418 3.375 3.418 6.323 0 4.187-3.275 6.323-6.599 6.323-5.554 0-8.592-4.443-8.545-12.433h-.475c-1.898 0-5.316.47-5.316 4.699 0 1.923.665 3.931 1.709 5.383l-2.753.855c-1.234-1.709-2.042-4.188-2.042-6.794 0-6.323 4.795-7.861 9.399-7.861h8.592c1.994 0 3.94-.085 5.507-.342v3.419zm-11.725.556c-.095 4.102.713 8.759 5.175 8.759 2.706 0 3.987-1.624 3.987-3.546 0-2.692-1.898-4.401-3.845-4.999-.428-.128-.902-.214-1.329-.214z"/><path d="m490.258 233.142c-.983.569-3.162 1.329-5.939 1.329-6.237 0-10.297-4.699-10.297-11.725 0-7.073 4.358-12.2 11.109-12.2 2.221 0 4.187.617 5.212 1.187l-.854 3.229c-.897-.57-2.307-1.092-4.357-1.092-4.743 0-7.307 3.893-7.307 8.687 0 5.316 3.076 8.592 7.178 8.592 2.137 0 3.547-.616 4.614-1.139z"/><path d="m491.494 235.895 11.92-34.415h2.906l-11.963 34.415z"/><path d="m510.676 211.021 4.528 13.576c.47 1.52.983 3.323 1.325 4.7h.085c.385-1.377.812-3.134 1.324-4.795l4.102-13.481h3.974l-5.64 16.377c-2.691 7.88-4.528 11.915-7.093 14.384-1.837 1.804-3.674 2.516-4.613 2.706l-.94-3.513c.94-.333 2.179-.997 3.29-2.042 1.025-.901 2.307-2.516 3.161-4.651.171-.428.3-.76.3-.997s-.086-.569-.257-1.092l-7.647-21.172z"/></g></svg>