<svg enable-background="new 0 0 702 1000" viewBox="0 0 702 1000" xmlns="http://www.w3.org/2000/svg"><path d="m28.936 16.065v920.11s638.769 5.308 644.077 0 0-916.571 0-916.571-647.616-3.539-644.077-3.539z" fill="#fff"/><g fill="none" stroke-miterlimit="10"><g stroke="#414242" stroke-width=".8563"><g stroke-linecap="round" stroke-linejoin="round"><path d="m296.441 426.758v10.86"/><path d="m296.441 389.622v37.135"/><path d="m296.441 437.618h84.864"/><path d="m381.305 437.618v-10.863"/><path d="m381.305 426.755v-307.178"/><path d="m356.868 308.958c5.714 0 10.347-4.632 10.347-10.347 0-5.714-4.632-10.347-10.347-10.347"/><path d="m356.868 288.265c-5.714 0-10.347 4.632-10.347 10.347 0 5.714 4.632 10.347 10.347 10.347"/><path d="m356.868 354.16c7.619 0 13.795-6.176 13.795-13.795s-6.176-13.795-13.795-13.795"/><path d="m356.868 326.569c-7.619 0-13.795 6.176-13.795 13.795s6.176 13.795 13.795 13.795"/><path d="m323.465 312.407c7.619 0 13.796-6.176 13.796-13.795s-6.176-13.796-13.796-13.796"/><path d="m323.465 284.816c-7.619 0-13.795 6.176-13.795 13.796 0 7.619 6.176 13.795 13.795 13.795"/><path d="m323.465 350.764c5.744 0 10.4-4.656 10.4-10.4s-4.656-10.4-10.4-10.4"/><path d="m323.465 329.965c-5.743 0-10.4 4.656-10.4 10.4s4.656 10.4 10.4 10.4"/><path d="m306.221 277.735h67.891"/><path d="m374.112 277.735v83.506"/><path d="m374.112 361.241h-67.891"/><path d="m306.221 361.241v-83.506"/><path d="m301.048 366.414h78.237"/><path d="m379.285 366.414v-93.852"/><path d="m379.285 272.562h-78.237"/><path d="m301.048 272.562v93.852"/><path d="m34.56 222.329h49.031"/><path d="m34.56 303.799v-81.47"/><path d="m84.209 303.799h-49.649"/><path d="m84.209 303.799c6.325 0 11.453-5.128 11.453-11.453"/><path d="m95.662 234.401v57.945"/><path d="m95.662 234.401c0-6.667-5.404-12.071-12.071-12.071"/><path d="m39.734 264.789v8.622"/><path d="m34.56 273.411v-22.418"/><path d="m39.734 250.993c0-1.429-1.158-2.587-2.587-2.587s-2.587 1.158-2.587 2.587"/><path d="m34.56 273.411c0 1.429 1.158 2.587 2.587 2.587s2.587-1.158 2.587-2.587"/><path d="m39.734 250.993v10.347"/><path d="m37.147 257.029c1.429 0 2.587-1.158 2.587-2.587s-1.158-2.587-2.587-2.587"/><path d="m37.147 251.855c-1.429 0-2.587 1.158-2.587 2.587s1.158 2.587 2.587 2.587"/><path d="m37.147 272.549c1.429 0 2.587-1.158 2.587-2.587s-1.158-2.587-2.587-2.587"/><path d="m37.147 267.375c-1.429 0-2.587 1.158-2.587 2.587s1.158 2.587 2.587 2.587"/><path d="m34.56 289.002v-51.876"/><path d="m47.202 290.003c0 4.762 3.86 8.622 8.622 8.622"/><path d="m84.209 303.799c6.325 0 11.453-5.128 11.453-11.453"/><path d="m95.662 234.401c0-6.667-5.404-12.071-12.071-12.071"/><path d="m47.202 261.34v-25.215"/><path d="m53.537 264.789c.952 0 1.724-.772 1.724-1.724s-.772-1.724-1.724-1.724"/><path d="m37.195 264.789h16.342"/><path d="m37.195 261.34h16.342"/><path d="m37.195 261.34c-.952 0-1.724.772-1.724 1.724s.772 1.724 1.724 1.724"/><path d="m55.824 227.503c-4.762 0-8.622 3.86-8.622 8.622"/><path d="m90.489 236.125c0-4.762-3.86-8.622-8.622-8.622"/><path d="m81.867 298.626c4.762 0 8.622-3.86 8.622-8.622"/><path d="m47.202 290.003v-25.214"/><path d="m81.867 298.626h-26.043"/><path d="m90.489 236.125v53.878"/><path d="m55.824 227.503h26.043"/><path d="m58.59 266.513c1.905 0 3.449-1.544 3.449-3.449s-1.544-3.449-3.449-3.449"/><path d="m58.59 259.615c-1.905 0-3.449 1.544-3.449 3.449s1.544 3.449 3.449 3.449"/><path d="m49.357 222.329h34.234"/><path d="m95.662 234.401v57.945"/><path d="m84.209 303.799h-34.852"/><path d="m84.209 303.799h79.345"/><path d="m29.129 309.23h134.425"/><path d="m34.56 216.898v92.332"/><path d="m27.777 182.909h18.166"/><path d="m45.943 182.909c5.593 0 10.127-4.534 10.127-10.127"/><path d="m56.069 172.782v-2.741"/><path d="m56.069 170.041 3.572.411"/><path d="m59.641 170.452 6.674 7.952"/><path d="m66.315 178.404 3.531 2.002"/><path d="m69.846 180.406 3.532.947"/><path d="m73.378 181.353 3.546.625"/><path d="m76.924 181.978 3.518.307"/><path d="m80.442 182.285 7.037-.615"/><path d="m87.479 181.67 7.091-1.9"/><path d="m94.57 179.77 7.064-2.571"/><path d="m101.634 177.199 7.063-3.294"/><path d="m108.697 173.905 7.064-4.9"/><path d="m115.761 169.005 3.532-3.532"/><path d="m119.293 165.473 1.766-3.059"/><path d="m121.059 162.414 1.766-4.852"/><path d="m122.825 157.562v-3.532"/><path d="m122.825 154.03-1.766-4.852"/><path d="m121.059 149.178-1.766-3.058"/><path d="m119.293 146.12-3.532-3.532"/><path d="m115.761 142.588-7.064-4.901"/><path d="m108.697 137.687-7.063-3.294"/><path d="m101.634 134.393-7.064-2.571"/><path d="m94.57 131.822-7.091-1.9"/><path d="m87.479 129.922-7.037-.615"/><path d="m80.442 129.307-3.518.308"/><path d="m76.924 129.615-3.546.625"/><path d="m73.378 130.24-3.532.946"/><path d="m69.846 131.186-3.531 2.002"/><path d="m66.315 133.188-6.674 7.953"/><path d="m59.641 141.141-3.572.411"/><path d="m56.069 141.552v-2.741"/><path d="m56.069 138.811c0-5.593-4.534-10.127-10.127-10.127"/><path d="m45.943 128.684h-18.166"/><path d="m27.777 128.684v54.225"/><path d="m29.814 115.061h-2.037"/><path d="m29.814 196.531h-2.037"/><path d="m56.069 170.041v-28.489"/><path d="m83.591 222.329h-49.031"/><path d="m34.56 222.329h-5.431"/><path d="m340.47 184.894c1.905 0 3.449-1.544 3.449-3.449s-1.544-3.449-3.449-3.449"/><path d="m340.47 177.996c-1.905 0-3.449 1.544-3.449 3.449s1.544 3.449 3.449 3.449"/><path d="m311.59 171.315c1.905 0 3.449-1.544 3.449-3.449s-1.544-3.449-3.449-3.449"/><path d="m311.59 164.418c-1.905 0-3.449 1.544-3.449 3.449s1.544 3.449 3.449 3.449"/><path d="m311.59 198.472c1.905 0 3.449-1.544 3.449-3.449s-1.544-3.449-3.449-3.449"/><path d="m311.59 191.574c-1.905 0-3.449 1.544-3.449 3.449s1.544 3.449 3.449 3.449"/><path d="m333.254 179.72h-21.664"/><path d="m333.254 183.169c.952 0 1.724-.772 1.724-1.724s-.772-1.724-1.724-1.724"/><path d="m311.59 183.169h21.664"/><path d="m311.59 179.72c-.952 0-1.724.772-1.724 1.724s.772 1.724 1.724 1.724"/><path d="m319.35 141.919v37.801"/><path d="m326.248 135.021c-3.81 0-6.898 3.088-6.898 6.898"/><path d="m364.403 135.021h-38.155"/><path d="m371.3 141.919c0-3.81-3.088-6.898-6.898-6.898"/><path d="m371.3 220.971v-79.052"/><path d="m364.403 227.869c3.81 0 6.898-3.088 6.898-6.898"/><path d="m326.248 227.869h38.155"/><path d="m319.35 220.971c0 3.81 3.088 6.898 6.898 6.898"/><path d="m319.35 183.169v37.802"/><path d="m303.83 129.848h72.644"/><path d="m376.474 129.848v103.194"/><path d="m376.474 233.042h-72.644"/><path d="m303.83 233.042v-103.194"/><path d="m101.094 370.332c0-3-2.432-5.431-5.431-5.431s-5.431 2.432-5.431 5.431"/><path d="m90.231 370.332c0 3 2.432 5.431 5.431 5.431s5.431-2.432 5.431-5.431"/><path d="m84.209 303.799h-49.649"/><path d="m162.196 303.799h-77.987"/><path d="m34.56 303.799h-5.431"/><path d="m162.196 436.866v-133.067"/><path d="m91.912 366.582-47.168-47.168"/><path d="m99.413 366.582 47.168-47.168"/><path d="m146.581 421.251-46.988-46.988"/><path d="m44.744 421.251 46.988-46.988"/><path d="m156.764 431.434v-122.204"/><path d="m156.764 309.23h-122.204"/><path d="m34.56 309.23v122.204"/><path d="m34.56 431.434h122.204"/><path d="m146.581 421.251v-101.837"/><path d="m146.581 319.414h-101.837"/><path d="m44.744 319.414v101.837"/><path d="m44.744 421.251h101.837"/><path d="m281.685 176.159-.002-81.47"/><path d="m281.683 94.689v4.527"/><path d="m281.683 99.216v4.419"/><path d="m281.683 103.635.002 72.524"/><path d="m200.216 176.161-.002-72.524"/><path d="m200.214 103.637v-4.419"/><path d="m200.214 99.218v-4.526"/><path d="m200.214 94.692.002 81.469"/><path d="m200.216 176.161 81.469-.002"/><path d="m281.685 176.159-81.469.002"/><path d="m281.683 103.635-81.469.002"/><path d="m281.683 99.216-81.469.002"/><path d="m281.683 94.689-81.469.003"/><path d="m281.683 94.689-81.469.003"/><path d="m218.635 754.576h75.717v108.167h-75.717z"/><path d="m108.314 668.989v-219.487"/><path d="m97.691 532.769-58.428-4.749"/><path d="m97.691 540.171h-58.428"/><path d="m39.263 552.816 58.428-7.628"/><path d="m97.691 562.686-58.428-4.749"/><path d="m97.691 570.088h-58.428"/><path d="m39.263 582.733 58.428-7.629"/><path d="m97.691 592.603-58.428-4.749"/><path d="m97.691 600.005h-58.428"/><path d="m39.263 612.65 58.428-7.629"/><path d="m97.691 622.519-58.428-4.749"/><path d="m97.691 629.921h-58.428"/><path d="m39.263 642.567 58.428-7.629"/><path d="m97.691 652.436-58.428-4.749"/><path d="m97.691 659.838h-58.428"/><path d="m68.477 671.643v-222.141"/><path d="m39.263 463.066 58.428-7.629"/><path d="m97.691 472.936-58.428-4.749"/><path d="m97.691 480.338h-58.428"/><path d="m39.263 492.983 58.428-7.629"/><path d="m97.691 502.852-58.428-4.749"/><path d="m97.691 510.254h-58.428"/><path d="m39.263 522.9 58.428-7.629"/><path d="m28.64 449.502h79.675v220.607h-79.675z"/></g><path d="m90.002 755.692h228.258v109.705h-228.258z" transform="matrix(0 -1 1 0 -606.413 1014.676)"/><g stroke-linecap="round" stroke-linejoin="round"><path d="m151.027 675.21v268.899"/><path d="m151.027 944.109h-121.004"/><path d="m30.023 944.109v-268.899"/><path d="m30.023 675.21h121.004"/><path d="m151.027 923.942h-121.004"/><path d="m151.027 695.684h-121.004"/><path d="m50.19 695.378v228.564"/><path d="m151.027 809.66h-100.837"/><path d="m482.036 531.562h189.228v74.317h-189.228z"/><path d="m577.415 487.297c14.842-4.498 30.527-4.498 45.369 0"/><path d="m575.663 505.303c15.816-6.071 33.057-6.075 48.874-.01"/><path d="m624.785 487.941c2.006.645 3.415 2.608 3.508 4.887"/><path d="m622.784 487.297 2.001.644"/><path d="m628.293 492.828 1.575 38.734"/><path d="m571.906 492.828c.093-2.279 1.502-4.243 3.508-4.887"/><path d="m577.415 487.297-2.001.644"/><path d="m571.906 492.828-1.575 38.734"/><path d="m575.103 494.429c.065 0 .119.056.122.128"/><path d="m575.226 494.556 1.505 37.006"/><path d="m575.103 494.429h-2.932"/><path d="m624.973 494.556c.003-.071.057-.128.122-.128"/><path d="m624.973 494.556-1.505 37.006"/><path d="m625.096 494.429h3.389"/><path d="m550.147 487.297c-14.842-4.498-30.527-4.498-45.369 0"/><path d="m551.9 505.303c-15.816-6.071-33.057-6.075-48.874-.01"/><path d="m502.777 487.941c-2.006.645-3.415 2.608-3.508 4.887"/><path d="m504.779 487.297-2.002.644"/><path d="m499.269 492.828-1.575 38.734"/><path d="m555.656 492.828c-.093-2.279-1.502-4.243-3.508-4.887"/><path d="m550.147 487.297 2.002.644"/><path d="m555.656 492.828 1.576 38.734"/><path d="m552.459 494.429c-.065 0-.119.056-.122.128"/><path d="m552.337 494.556-1.505 37.006"/><path d="m552.459 494.429h2.932"/><path d="m502.589 494.556c-.003-.071-.057-.128-.122-.128"/><path d="m502.589 494.556 1.505 37.006"/><path d="m502.467 494.429h-3.39"/><path d="m665.738 709.119v133.801"/><path d="m665.738 842.92h4.298"/><path d="m670.036 842.92 4.299-33.451"/><path d="m674.335 809.469v-66.9"/><path d="m674.335 742.569-4.299-33.45"/><path d="m670.036 709.119h-4.298"/><path d="m667.457 834v-8.921"/><path d="m667.457 825.079h1.075"/><path d="m668.532 825.079v8.921"/><path d="m668.532 834h-1.075"/><path d="m667.457 822.849v-8.92"/><path d="m667.457 813.929h1.075"/><path d="m668.532 813.929v8.92"/><path d="m668.532 822.849h-1.075"/><path d="m667.457 811.699v-4.46"/><path d="m667.457 807.239h1.075"/><path d="m668.532 807.239v4.46"/><path d="m668.532 811.699h-1.075"/><path d="m670.036 709.119v133.801"/><path d="m633.648 946.137v-338.718h40.687v239.925h-.352v98.793z"/><path d="m633.648 607.419h40.687v93.994h-40.687z"/><path d="m633.648 852.143h40.335v93.994h-40.335z"/><path d="m633.648 701.412 40.687-93.993"/><path d="m633.648 852.143 40.335 93.994"/><path d="m673.983 852.143-40.335 93.994"/><path d="m674.278 701.412-40.63-93.993"/><path d="m700.143 809.469v-66.9"/><path d="m378.154 117.365v-85.375"/><path d="m367.531 66.079-58.428-4.749"/><path d="m367.531 73.481h-58.428"/><path d="m309.103 86.126 58.428-7.629"/><path d="m367.531 95.995-58.428-4.749"/><path d="m367.531 103.397h-58.428"/><path d="m309.103 116.043 58.428-7.629"/><path d="m338.317 117.365v-85.375"/><path d="m367.531 36.162-58.428-4.749"/><path d="m367.531 43.564h-58.428"/><path d="m309.103 56.209 58.428-7.629"/><path d="m298.48 31.99h79.675v85.376h-79.675z"/></g></g><g stroke="#46a5de" stroke-width="1.4271"><path d="m454.807 974.559v-8.147"/><path d="m454.807 970.486h8.147"/><path d="m462.954 970.486v-8.147"/><path d="m462.954 962.339h-8.147"/><path d="m454.807 962.339v8.147"/><path d="m586.515 965.054h-123.561"/><path d="m462.954 967.77h123.561"/><path d="m594.662 970.486v-8.147"/><path d="m594.662 962.339h-8.147"/><path d="m586.515 962.339v8.147"/><path d="m586.515 970.486h8.147"/><path d="m454.807 966.412h-8.147"/><path d="m446.66 966.412v8.147"/><path d="m446.66 974.559h8.147"/><path d="m594.662 974.559v-8.147"/><path d="m594.662 966.412h8.147"/><path d="m602.809 966.412v8.147"/><path d="m602.809 974.559h-8.147"/><path d="m602.809 966.412h-8.147"/><path d="m594.662 970.486v4.073"/><path d="m594.662 974.559h4.753"/><path d="m602.809 974.559v-8.147"/><path d="m454.807 966.412h-8.147"/><path d="m446.66 966.412v8.147"/><path d="m450.054 974.559h4.753"/><path d="m454.807 974.559v-4.073"/><path d="m177.811 965.054h-61.102"/><path d="m116.709 967.77h61.102"/><path d="m108.562 974.559v-8.147"/><path d="m108.562 966.412h-8.147"/><path d="m100.415 966.412v8.147"/><path d="m100.415 974.559h8.147"/><path d="m116.709 970.486v-8.147"/><path d="m116.709 962.339h-8.147"/><path d="m108.562 962.339v8.147"/><path d="m108.562 970.486h8.147"/><path d="m185.958 970.486v-8.147"/><path d="m185.958 962.339h-8.147"/><path d="m177.811 962.339v8.147"/><path d="m177.811 970.486h8.147"/><path d="m185.958 974.559v-8.147"/><path d="m185.958 966.412h8.147"/><path d="m194.105 966.412v8.147"/><path d="m194.105 974.559h-8.147"/><path d="m370.622 974.559v-8.147"/><path d="m370.622 966.412h8.146"/><path d="m378.768 966.412v8.147"/><path d="m378.768 974.559h-8.146"/><path d="m108.562 970.486v1.358"/><path d="m108.562 971.844h77.396"/><path d="m185.958 971.844v-1.358"/><path d="m370.622 969.128h-176.517"/><path d="m194.105 969.128v2.716"/><path d="m194.105 971.844h176.517"/><path d="m370.622 971.844v-2.716"/><path d="m194.105 966.412h-8.147"/><path d="m185.958 970.486v4.073"/><path d="m185.958 974.559h8.147"/><path d="m194.105 974.559v-8.147"/><path d="m378.768 966.412h-8.146"/><path d="m370.622 966.412v8.147"/><path d="m370.622 974.559h4.752"/><path d="m378.768 974.559v-8.147"/><path d="m108.562 966.412h-8.147"/><path d="m100.415 966.412v8.147"/><path d="m103.809 974.559h4.753"/><path d="m108.562 974.559v-4.073"/><path d="m588.995 960.709.11-.945.197-1.585.149-1.048.242-1.325.125-.547.028-.145.013-.101"/><path d="m591.318 955.001c.001.024.009.086.009.086l.036.184.128.565.16.835.139.892.202 1.535.097.813.092.797"/><path d="m591.274 954.092c-.022-.054-.047-.103-.047-.103-.027-.045-.092-.131-.092-.131l-.073-.072-.08-.06-.087-.048-.093-.036-.098-.023-.099-.009-.098.005-.193.05-.136.073-.089.072c-.058.062-.097.113-.097.113l-.048.08c-.021.045-.04.09-.04.09"/><path d="m592.49 962.339v-1.63"/><path d="m588.688 960.709v1.63"/><path d="m589.89 960.709c-.003-1.169-.007-2.225-.01-3.086s-.007-1.527-.01-1.968-.007-.655-.01-.665"/><path d="m589.86 954.991v.517.172"/><path d="m591.288 960.709c.003-1.169.007-2.225.01-3.086s.007-1.527.01-1.968.007-.655.01-.665"/><path d="m591.318 954.991c-.022-.057-.051-.11-.086-.16s-.077-.096-.124-.136-.099-.075-.155-.103-.115-.05-.177-.064"/><path d="m590.776 954.527c-.061-.015-.124-.022-.188-.022-.063 0-.126.008-.188.022-.123.029-.238.087-.331.168-.047.04-.089.086-.124.136s-.064.104-.086.16"/><path d="m591.318 955.699v-.191-.517"/><path d="m591.244 955.343c.004-.077.008-.135.012-.175"/><path d="m591.284 955.195c.005.062.01.155.016.278"/><path d="m589.878 955.473c.006-.148.012-.252.019-.312"/><path d="m589.919 955.14c.005.038.01.105.015.199"/><path d="m589.951 955.453v-.238"/><path d="m589.951 955.06v-.206"/><path d="m589.86 954.991c.015-.575.03-.88.045-.903.007-.01.014.037.021.142"/><path d="m589.935 954.394c.005.119.011.272.016.459"/><path d="m589.951 954.854.075-.142"/><path d="m591.152 954.712.075.142"/><path d="m591.318 954.991c-.015-.575-.03-.88-.046-.903"/><path d="m591.243 954.394c-.005.109-.01.247-.015.413"/><path d="m591.227 955.265v.193"/><path d="m588.688 960.709h3.802"/><path d="m454.807 962.339h139.855"/><path d="m594.662 970.486h-139.855"/><path d="m454.807 962.339v8.147"/><path d="m594.662 970.486v-8.147"/><path d="m594.662 974.559h-139.855"/><path d="m180.29 960.709.11-.945.197-1.585.15-1.048.242-1.325.124-.547.029-.145.013-.101"/><path d="m182.613 955.001c.001.024.009.086.009.086l.036.184.128.565.16.835.139.892.202 1.535.097.813.092.797"/><path d="m182.569 954.092c-.022-.054-.047-.103-.047-.103-.027-.045-.092-.131-.092-.131l-.073-.072-.08-.06-.087-.048-.093-.036-.097-.023-.099-.009-.098.005-.193.05-.136.073-.089.072c-.058.062-.097.113-.097.113l-.048.08c-.021.045-.04.09-.04.09"/><path d="m183.785 962.339v-1.63"/><path d="m179.983 960.709v1.63"/><path d="m181.185 960.709c-.003-1.169-.007-2.225-.01-3.086s-.007-1.527-.01-1.968c-.003-.44-.007-.655-.01-.665"/><path d="m181.155 954.991v.517.172"/><path d="m182.583 960.709c.003-1.169.007-2.225.01-3.086s.007-1.527.01-1.968c.003-.44.007-.655.01-.665"/><path d="m182.613 954.991c-.022-.057-.051-.11-.086-.16s-.077-.096-.124-.136-.099-.075-.155-.103-.115-.05-.177-.064"/><path d="m182.072 954.527c-.061-.015-.124-.022-.188-.022-.063 0-.126.008-.188.022-.123.029-.238.087-.331.168-.047.04-.089.086-.124.136s-.064.104-.086.16"/><path d="m182.613 955.699v-.191-.517"/><path d="m182.539 955.343c.004-.077.008-.135.012-.175"/><path d="m182.58 955.195c.005.062.01.155.016.278"/><path d="m181.173 955.473c.006-.148.012-.252.019-.312"/><path d="m181.214 955.14c.005.038.01.105.015.199"/><path d="m181.246 955.453v-.238"/><path d="m181.246 955.06v-.206"/><path d="m181.155 954.991c.015-.575.03-.88.046-.903.007-.01.014.037.021.142"/><path d="m181.23 954.394c.005.119.011.272.016.459"/><path d="m181.246 954.854.076-.142"/><path d="m182.447 954.712.075.142"/><path d="m182.613 954.991c-.015-.575-.03-.88-.046-.903"/><path d="m182.538 954.394c-.005.109-.01.247-.015.413"/><path d="m182.522 955.265v.193"/><path d="m179.983 960.709h3.802"/><path d="m108.562 962.339h77.396"/><path d="m185.958 970.486h-77.396"/><path d="m108.562 962.339v8.147"/><path d="m185.958 970.486v-8.147"/><path d="m194.105 966.412h176.517"/><path d="m370.622 974.559h-176.517"/><path d="m185.958 974.559h-77.396"/></g></g><g clip-rule="evenodd" fill="#5d5790" fill-rule="evenodd"><path d="m443.265 949.037h-61.102v25.522h-6.789v24.441h67.891 6.789v-24.441h-6.789z"/><path d="m477.211 4.023h-184.664v-1.327h-263.418-13.578v.376h-13.578v114.701 17.652h.307v306.869l13.271.009 166.344-.009v-5.428l-152.766.004v-347.61l263.418-.008h5.431v-5.432l-5.431.009v-.009h5.431v-52.948h188.737v-5.431h1.358v-5.431h-10.862zm-461.009 79.806 12.927-.008v.008zm276.345-5.44-263.418.008v-47.525h242.145 15.841v15.842 31.676h5.432z"/><path d="m618.424 117.773v50.239h5.432v-137.14h-5.432z"/><path d="m283.732 442.302.054 5.251-.054.172 8.815-.001-.001-5.431z"/><path d="m283.732 442.293-8.147.009v4.065h8.147z"/><path d="m2.28 947.676h-2.245v29.196h2.245v9.908h-2.245l1.327 12.22h102.447v-24.441h-5.865v-26.883h-67.447l-1.368-.273v-499.67l145.977-.009v-1.354h8.147v-4.073l-180.973.013z"/><path d="m271.51 341.815h5.431v95.048h-5.431z"/><path d="m287.115 89.257v347.605l-10.172.003v5.428h6.789 8.814.001v.009 5.422h5.431v-329.951-28.516h-5.431z"/><path d="m699.407 990.474 2.349-3.694h-2.349v-29.381l1.844-9.996v-513.258h-1.638l-.124-416.851h1.762v-13.579h-27.156-40.735v13.579 2.716h-10.862v5.431h1.358v5.431h50.239v416.841.001l13.234-.001-13.234.007v499.683l-1.368.273h-66.511v13.303l-.012.002v13.578h-6.789v24.441h94.57l2.257-3.549h3.165z"/></g><g fill="none" stroke="#43456f" stroke-miterlimit="10" stroke-width="1.4271"><path d="m29.129 275.28v-271.564"/><path d="m29.129 3.716h-27.156"/><path d="m1.973 34.946v20.367"/><path d="m1.973 3.716v31.23"/><path d="m701.251 997.057v-993.341"/><path d="m701.251 3.716h-27.156"/><path d="m674.095 3.716v943.687"/><path d="m674.095 947.403h27.156"/><path d="m701.251 3.716v27.156"/><path d="m97.02 974.559v-27.156"/><path d="m97.02 947.403h-96.29"/><path d="m671.538 947.403h-65.334"/><path d="m606.204 947.403v27.156"/><path d="m443.265 974.559v-27.156"/><path d="m443.265 947.403h-61.102"/><path d="m382.163 947.403v27.156"/><path d="m599.415 974.559v24.441"/><path d="m599.415 999h101.319"/><path d="m375.374 974.559v24.441"/><path d="m375.374 999h74.68"/><path d="m450.054 999v-24.441"/><path d="m1.362 999h102.447"/><path d="m103.809 999v-24.441"/><path d="m599.415 999h-149.361"/><path d="m375.374 999h-271.565"/><path d="m103.809 999h-102.447"/><path d="m103.809 999h271.565"/><path d="m450.054 999h-74.68"/><path d="m450.054 999h149.361"/><path d="m700.734 999h.517"/><path d="m674.095 999h-74.68"/><path d="m701.251 999h-27.156"/><path d="m97.02 947.403h285.143"/><path d="m443.265 947.403h162.939"/><path d="m1.973 447.734v-10.863"/><path d="m1.973 30.872v24.441"/><path d="m1.973 447.734v549.323"/><path d="m1.973 947.403h27.156"/><path d="m29.129 947.403v-499.67"/><path d="m29.129 436.87v-347.61"/><path d="m29.129 78.397v-74.681"/><path d="m32.524 30.872h-30.551"/><path d="m287.115 436.862h-3.383"/><path d="m283.732 446.367v1.358"/><path d="m283.732 447.725 14.246-.001"/><path d="m175.106 436.866-145.977.004"/><path d="m29.129 447.733 145.977-.005"/><path d="m175.106 447.728v-1.358"/><path d="m297.978 447.724v-10.862"/><path d="m29.129 436.87v10.863"/><path d="m29.129 89.26 268.849-.008"/><path d="m83.442 78.396h-16.973"/><path d="m32.524 78.397h-3.395"/><path d="m29.129 78.397v10.863"/><path d="m287.115 89.258v347.604"/><path d="m297.978 436.862v-347.604"/><path d="m297.978 89.258h-10.863"/><path d="m287.115 30.872v47.517"/><path d="m297.978 89.252v-58.38"/><path d="m297.978 30.872h-10.863"/><path d="m66.469 30.872h220.646"/><path d="m297.978 30.872h179.233"/><path d="m477.211 20.01v-16.294"/><path d="m477.211 3.716h-448.082"/><path d="m633.36 30.872h40.735"/><path d="m674.095 30.872v-27.156"/><path d="m674.095 3.716h-40.735"/><path d="m633.36 3.716v16.294"/><path d="m297.978 436.863v10.863"/><path clip-rule="evenodd" d="m171.7 78.396v-47.524h-88.258l78.754 9.505 9.504 38.016z"/><path d="m83.442 30.872v47.524"/><path d="m83.442 78.396h88.258"/><path d="m171.7 78.396v-47.524"/><path d="m171.7 30.872h-88.258"/><path clip-rule="evenodd" d="m32.524 78.396 6.789-40.735 27.156-6.789h-33.945v47.517z"/><path d="m66.469 30.872v47.524"/><path d="m66.469 78.396h-33.945"/><path d="m32.524 78.396v-47.524"/><path d="m32.524 30.872h33.945"/><path clip-rule="evenodd" d="m287.115 78.396v-47.524h-115.415l99.574 15.841 15.838 31.676z"/><path d="m171.7 30.872v47.524"/><path d="m171.7 78.396h115.415"/><path d="m287.115 78.396v-47.524"/><path d="m287.115 30.872h-115.415"/><path d="m1.979 459.588v-424.642"/><path d="m618.424 168.012v-137.14"/><path d="m623.856 168.012h-5.432"/><path d="m623.856 30.872v137.14"/><path d="m618.424 30.872h5.432"/><path d="m622.498 20.01h8.147"/><path d="m622.498 25.441v-5.431"/><path d="m623.856 25.441h-1.358"/><path d="m623.856 30.872v-5.431"/><path d="m630.645 30.872h-6.789"/><path d="m630.645 20.01v10.862"/><path d="m479.926 30.872v-10.862"/><path d="m486.715 30.872h-6.789"/><path d="m486.715 25.441v5.431"/><path d="m488.073 25.441h-1.358"/><path d="m488.073 20.01v5.431"/><path d="m479.926 20.01h8.147"/><path d="m630.645 30.872v-10.862"/><path d="m633.36 30.872h-2.715"/><path d="m633.36 20.01v10.862"/><path d="m630.645 20.01h2.715"/><path d="m477.211 20.01h2.715"/><path d="m477.211 30.872v-10.862"/><path d="m479.926 30.872h-2.715"/><path d="m479.926 20.01v10.862"/><path d="m486.715 30.872c0 75.74 61.4 137.14 137.14 137.14"/><path d="m630.645 3.716h2.715"/><path d="m638.113 3.716v-2.716"/><path d="m638.113 1h-10.184"/><path d="m627.929 1v19.01"/><path d="m630.645 20.01v-16.294"/><path d="m477.211 3.716h2.715"/><path d="m479.926 3.716v16.294"/><path d="m482.642 20.01v-19.01"/><path d="m482.642 1h-10.184"/><path d="m472.458 1v2.716"/><path d="m473.816 33.588v-2.716"/><path d="m472.458 30.872v5.431"/><path d="m472.458 36.303h10.184"/><path d="m482.642 36.303v-5.431"/><path d="m479.926 30.872v2.716"/><path d="m479.926 33.588h-6.11"/><path d="m636.755 33.588h-6.11"/><path d="m630.645 33.588v-2.716"/><path d="m627.929 30.872v5.431"/><path d="m627.929 36.303h10.184"/><path d="m638.113 36.303v-5.431"/><path d="m636.755 30.872v2.716"/><path d="m271.511 436.863 5.432-.001"/><path d="m276.943 436.862-.003-95.047"/><path d="m276.94 341.815h-5.432"/><path d="m271.508 341.815.003 95.048"/><path d="m281.016 446.367v-9.505"/><path d="m281.016 436.862h-4.073"/><path d="m276.943 436.862v5.432"/><path d="m276.943 442.294h-1.358"/><path d="m275.585 442.294v4.073"/><path d="m275.585 446.367h5.431"/><path d="m177.822 446.37h5.431"/><path d="m183.253 446.37v-4.073"/><path d="m183.253 442.297h-1.358"/><path d="m181.895 442.297v-5.432"/><path d="m181.895 436.865h-4.073"/><path d="m177.822 436.865v9.505"/><path d="m281.016 446.367h2.716"/><path d="m283.732 446.367v-9.505"/><path d="m283.732 436.862h-2.716"/><path d="m281.016 436.862v9.505"/><path d="m177.822 446.37v-9.505"/><path d="m177.822 436.865-2.716.001"/><path d="m175.106 436.866v9.504"/><path d="m175.106 446.37h2.716"/><path d="m276.94 341.815c-52.493.002-95.046 42.557-95.045 95.051"/><g stroke-dasharray="11.417 11.417"><path d="m382.842 117.773h84.864"/><path d="m467.706 117.773v331.474"/><path d="m297.978 447.726 173.318-.012"/></g></g><g fill="#43456f"><path d="m535.067 284.543h-10.767l-.598 4.748c.598-.095 1.11-.095 1.794-.095 2.649 0 5.341.665 7.306 2.232 2.094 1.566 3.375 4.131 3.375 7.739 0 5.746-4.443 10.827-11.92 10.827-3.375 0-6.195-.854-7.732-1.757l1.153-5.413c1.239.664 3.76 1.52 6.28 1.52 2.691 0 5.555-1.425 5.555-4.701 0-3.182-2.265-5.129-7.819-5.129-1.538 0-2.606.095-3.76.285l1.837-16.192h15.296z"/><path d="m538.531 315.123c1.325-4.226 2.479-9.164 3.076-13.485l6.623-.475c-1.41 4.843-3.333 9.829-5.384 13.533z"/><path d="m569.893 284.543h-10.767l-.598 4.748c.598-.095 1.11-.095 1.794-.095 2.649 0 5.341.665 7.306 2.232 2.094 1.566 3.375 4.131 3.375 7.739 0 5.746-4.443 10.827-11.92 10.827-3.375 0-6.195-.854-7.732-1.757l1.153-5.413c1.239.664 3.76 1.52 6.28 1.52 2.691 0 5.555-1.425 5.555-4.701 0-3.182-2.265-5.129-7.819-5.129-1.538 0-2.606.095-3.76.285l1.837-16.192h15.296z"/><path d="m194.925 306.016v-7.36h-12.305v-4.701l10.511-18.804h7.946v18.092h3.333v5.413h-3.333v7.36zm0-12.773v-6.838c0-1.853.086-3.751.214-5.746h-.171c-.897 1.995-1.623 3.799-2.563 5.746l-3.717 6.743v.095z"/><path d="m205.439 311.666c1.325-4.226 2.479-9.164 3.076-13.485l6.623-.475c-1.41 4.843-3.333 9.829-5.384 13.533z"/><path d="m220.31 300.792c.812.096 1.537.096 2.819 0 1.966-.143 3.974-.76 5.469-1.899 1.794-1.377 2.991-3.371 3.503-5.698l-.128-.047c-1.239 1.424-3.033 2.231-5.554 2.231-4.7 0-8.674-3.656-8.674-9.64 0-6.03 4.358-11.111 10.468-11.111 7.136 0 10.511 6.078 10.511 13.296 0 6.41-1.838 11.111-4.871 14.198-2.648 2.659-6.28 4.131-10.596 4.321-1.11.095-2.222.047-2.947 0zm3.93-15.48c0 2.66 1.282 4.939 3.932 4.939 1.751 0 2.99-.95 3.588-2.042.214-.428.342-.902.342-1.805 0-3.276-1.11-6.506-4.059-6.506-2.222.001-3.845 2.185-3.803 5.414z"/><path d="m422.163 761.716h-.085l-5.299 2.802-1.067-5.413 7.349-3.799h5.383v30.865h-6.28v-24.455z"/><path d="m457.499 755.306v4.559l-11.45 26.307h-6.879l11.45-24.835v-.095h-12.731v-5.936z"/><path d="m459.597 791.822c1.324-4.226 2.478-9.164 3.076-13.485l6.622-.475c-1.41 4.843-3.333 9.829-5.384 13.533z"/><path d="m490.958 761.242h-10.767l-.599 4.748c.599-.095 1.111-.095 1.795-.095 2.648 0 5.341.665 7.306 2.231 2.094 1.567 3.376 4.132 3.376 7.74 0 5.746-4.443 10.827-11.921 10.827-3.375 0-6.194-.854-7.733-1.757l1.154-5.414c1.238.665 3.76 1.52 6.28 1.52 2.691 0 5.554-1.424 5.554-4.7 0-3.182-2.264-5.129-7.818-5.129-1.538 0-2.605.095-3.76.285l1.838-16.192h15.295z"/><path d="m507.88 227.39v9.972h.897l7.775-9.972h4.571l-9.015 10.398c3.333.38 5.341 2.85 6.964 6.98.556 1.52 1.282 3.752 2.223 5.604h-3.932c-.555-.997-1.281-2.802-1.922-4.701-1.41-3.704-3.333-5.413-6.836-5.413h-.727v10.114h-3.717v-22.982z"/><path d="m543.088 238.691c0 8.5-5.298 12.204-10.296 12.204-5.598 0-9.912-4.559-9.912-11.824 0-7.692 4.528-12.203 10.254-12.203 5.939 0 9.954 4.795 9.954 11.823zm-16.406.237c0 5.034 2.606 8.833 6.28 8.833 3.59 0 6.281-3.752 6.281-8.928 0-3.894-1.752-8.832-6.195-8.832s-6.366 4.559-6.366 8.927z"/><path d="m547.835 234.892c0-2.943-.086-5.318-.171-7.502h3.375l.171 3.94h.086c1.537-2.802 3.973-4.463 7.348-4.463 4.999 0 8.759 4.7 8.759 11.681 0 8.263-4.528 12.347-9.399 12.347-2.734 0-5.127-1.33-6.365-3.609h-.086v12.489h-3.717v-24.883zm3.717 6.126c0 .617.086 1.187.171 1.709.684 2.897 2.948 4.892 5.64 4.892 3.974 0 6.28-3.609 6.28-8.88 0-4.606-2.179-8.548-6.152-8.548-2.563 0-4.956 2.042-5.683 5.176-.128.522-.256 1.141-.256 1.71z"/><path d="m575.609 227.39v9.687c0 3.656-.042 5.936-.213 9.212l.128.048c1.239-2.802 1.966-4.416 3.333-7.075l6.451-11.871h4.4v22.982h-3.589v-9.734c0-3.752.085-5.698.257-9.402h-.129c-1.324 2.944-2.222 4.796-3.418 7.123-1.965 3.562-4.229 7.978-6.451 12.014h-4.315v-22.984z"/><path d="m611.843 227.39v19.849l2.137.047-.214 10.399h-2.948l-.171-7.313h-14.313l-.171 7.313h-2.948l-.171-10.399 1.752-.047c.896-1.473 1.58-3.039 2.051-4.701.812-2.85 1.196-5.936 1.196-9.165v-5.982h13.8zm-10.468 6.98c0 3.039-.384 5.983-1.067 8.548-.428 1.566-1.025 2.991-1.667 4.273h9.528v-16.62h-6.794z"/><path d="m637.012 238.691c0 8.5-5.298 12.204-10.296 12.204-5.598 0-9.912-4.559-9.912-11.824 0-7.692 4.528-12.203 10.254-12.203 5.939 0 9.954 4.795 9.954 11.823zm-16.406.237c0 5.034 2.606 8.833 6.28 8.833 3.59 0 6.281-3.752 6.281-8.928 0-3.894-1.752-8.832-6.195-8.832s-6.366 4.559-6.366 8.927z"/><path d="m641.759 234.892c0-2.943-.086-5.318-.171-7.502h3.375l.171 3.94h.086c1.537-2.802 3.973-4.463 7.348-4.463 4.999 0 8.759 4.7 8.759 11.681 0 8.263-4.528 12.347-9.399 12.347-2.734 0-5.127-1.33-6.365-3.609h-.086v12.489h-3.717v-24.883zm3.717 6.126c0 .617.086 1.187.171 1.709.684 2.897 2.948 4.892 5.64 4.892 3.974 0 6.28-3.609 6.28-8.88 0-4.606-2.179-8.548-6.152-8.548-2.563 0-4.956 2.042-5.683 5.176-.128.522-.256 1.141-.256 1.71z"/><path d="m400.509 706.445v3.371h-8.973v19.611h-3.717v-22.982z"/><path d="m422.216 717.745c0 8.5-5.298 12.204-10.297 12.204-5.597 0-9.912-4.559-9.912-11.824 0-7.692 4.529-12.203 10.254-12.203 5.94 0 9.955 4.796 9.955 11.823zm-16.406.238c0 5.034 2.606 8.833 6.281 8.833 3.588 0 6.28-3.752 6.28-8.928 0-3.894-1.752-8.832-6.195-8.832s-6.366 4.559-6.366 8.927z"/><path d="m441.703 728.573c-.982.569-3.161 1.329-5.938 1.329-6.237 0-10.296-4.701-10.296-11.729 0-7.075 4.357-12.204 11.107-12.204 2.223 0 4.188.617 5.213 1.188l-.854 3.229c-.897-.569-2.308-1.092-4.358-1.092-4.742 0-7.306 3.894-7.306 8.689 0 5.318 3.076 8.595 7.178 8.595 2.137 0 3.546-.617 4.614-1.139z"/><path d="m460.761 706.445v3.323h-6.451v19.659h-3.717v-19.659h-6.452v-3.323z"/><path d="m467.515 706.445v9.687c0 3.656-.043 5.936-.214 9.212l.128.048c1.239-2.802 1.965-4.416 3.332-7.075l6.452-11.871h4.4v22.982h-3.589v-9.734c0-3.752.086-5.698.256-9.402h-.128c-1.324 2.944-2.222 4.796-3.418 7.123-1.965 3.562-4.229 7.978-6.451 12.014h-4.315v-22.982h3.547z"/><path d="m491.359 706.445v9.259h9.826v-9.259h3.717v22.982h-3.717v-10.399h-9.826v10.399h-3.718v-22.982z"/><path d="m522.508 729.427-.3-2.896h-.128c-1.153 1.805-3.375 3.419-6.323 3.419-4.187 0-6.323-3.276-6.323-6.601 0-5.556 4.443-8.595 12.433-8.547v-.476c0-1.899-.47-5.318-4.699-5.318-1.923 0-3.931.665-5.383 1.71l-.855-2.754c1.709-1.235 4.188-2.042 6.794-2.042 6.323 0 7.861 4.796 7.861 9.401v8.596c0 1.994.085 3.94.342 5.508zm-.555-11.728c-4.102-.096-8.759.712-8.759 5.176 0 2.706 1.624 3.988 3.546 3.988 2.692 0 4.401-1.899 4.999-3.846.128-.428.214-.902.214-1.33z"/><path d="m547.035 729.427h-3.717v-9.64h-2.777c-1.58 0-2.648.475-3.46 1.282-1.538 1.377-2.094 4.227-2.905 6.458-.257.712-.556 1.329-.854 1.899h-4.017c.471-.76.897-1.614 1.282-2.611.897-2.232 1.409-5.224 3.247-6.934.641-.617 1.41-1.14 2.35-1.329v-.143c-2.691-.332-5.469-2.185-5.469-5.698 0-2.374 1.153-3.988 2.734-4.986 1.709-1.092 4.229-1.566 6.922-1.566 2.478 0 4.87.237 6.664.475zm-3.717-20.228c-.939-.143-1.794-.237-3.119-.237-2.563 0-5.597.807-5.597 3.988 0 2.944 3.29 3.989 5.512 3.989h3.204z"/><path d="m447.856 295.633c.665-1.153 1.899-3.802 1.899-6.451 0-3.375-1.805-5.084-4.131-5.084-3.039 0-4.417 2.734-4.417 5.597v2.648h-5.176v-2.521c-.047-2.179-.949-4.956-3.562-4.956-1.852 0-3.229 1.367-3.229 4.102 0 2.265 1.092 4.657 1.852 5.811l-5.223 1.324c-1.188-1.666-2.327-4.998-2.327-8.587 0-5.938 3.466-9.229 7.692-9.229 3.276 0 5.841 1.666 7.17 5.084h.096c.664-3.333 3.466-6.024 7.502-6.024 5.461 0 9.45 4.315 9.45 11.365 0 3.589-1.045 6.622-2.185 8.246z"/><path d="m460.581 274.781c-4.226-1.325-9.164-2.479-13.485-3.076l-.475-6.623c4.843 1.41 9.829 3.333 13.533 5.384z"/><path d="m439.356 241.453c9.545 0 16.098 3.461 16.098 10.554 0 7.178-7.171 10.339-15.907 10.382-8.928 0-16.003-3.418-16.003-10.596-.001-7.434 7.36-10.34 15.812-10.34zm.19 14.398c7.075.043 10.446-1.495 10.446-4.016s-3.514-3.889-10.542-3.889c-6.838 0-10.446 1.325-10.446 3.932 0 2.393 3.371 4.016 10.542 3.973z"/><path d="m392.624 378.725h9.972v-.897l-9.972-7.775v-4.572l10.398 9.016c.38-3.333 2.85-5.341 6.98-6.965 1.52-.555 3.752-1.281 5.604-2.221v3.93c-.997.556-2.802 1.282-4.701 1.923-3.704 1.41-5.413 3.333-5.413 6.836v.727h10.114v3.717h-22.982z"/><path d="m392.624 360.308 13.58-4.528c1.52-.47 3.324-.983 4.701-1.325v-.085c-1.377-.385-3.134-.812-4.796-1.324l-13.485-4.102v-3.974l16.382 5.64c7.883 2.691 11.919 4.528 14.388 7.093 1.805 1.837 2.518 3.674 2.707 4.613l-3.514.94c-.332-.94-.997-2.179-2.042-3.29-.902-1.025-2.517-2.307-4.653-3.161-.428-.171-.76-.3-.997-.3s-.57.086-1.093.257l-21.178 7.647z"/><path d="m392.624 339.626 4.938-2.948c1.282-.77 2.47-1.41 3.752-2.094v-.128c-1.377-.684-2.564-1.367-3.799-2.051l-4.891-2.905v-4.06l11.111 7.05 11.871-7.263v4.272l-5.176 3.033c-1.33.812-2.611 1.495-3.989 2.222v.086c1.378.684 2.612 1.409 3.989 2.179l5.176 2.99v4.145l-11.729-7.349-11.254 7.007v-4.186z"/><path d="m392.624 317.962h9.259v-9.827h-9.259v-3.717h22.982v3.717h-10.399v9.827h10.399v3.717h-22.982z"/><path d="m415.607 283.009v3.718h-9.64v2.776c0 1.581.475 2.649 1.282 3.461 1.377 1.538 4.227 2.094 6.458 2.905.712.257 1.329.556 1.899.854v4.017c-.76-.47-1.614-.897-2.611-1.282-2.232-.896-5.224-1.41-6.934-3.247-.617-.641-1.14-1.409-1.329-2.35h-.143c-.332 2.691-2.185 5.469-5.698 5.469-2.374 0-3.988-1.153-4.986-2.734-1.092-1.709-1.566-4.229-1.566-6.921 0-2.479.237-4.871.475-6.666zm-20.229 3.718c-.143.939-.237 1.794-.237 3.118 0 2.564.807 5.598 3.988 5.598 2.944 0 3.989-3.29 3.989-5.512 0-1.538 0-2.35 0-3.204z"/><path d="m401.219 268.18h3.086v10.554h-3.086z"/><path d="m392.624 260.146h9.259v-9.826h-9.259v-3.717h22.982v3.717h-10.399v9.826h10.399v3.718h-22.982z"/><path d="m392.624 236.986h9.687c3.656 0 5.936.043 9.212.214l.048-.128c-2.802-1.239-4.416-1.965-7.075-3.332l-11.871-6.452v-4.4h22.982v3.589h-9.734c-3.752 0-5.698-.086-9.402-.256v.128c2.944 1.324 4.796 2.222 7.123 3.418 3.562 1.965 7.978 4.229 12.014 6.451v4.315h-22.982v-3.547z"/><path d="m392.624 213.185h19.706v-7.221h-19.706v-3.674h19.706v-7.221h-19.706v-3.717h22.982v25.507h-22.982z"/><path d="m415.607 173.787-2.896.3v.128c1.805 1.153 3.419 3.375 3.419 6.323 0 4.187-3.276 6.323-6.601 6.323-5.556 0-8.595-4.443-8.547-12.433h-.476c-1.899 0-5.318.47-5.318 4.699 0 1.923.665 3.931 1.71 5.383l-2.754.855c-1.235-1.709-2.042-4.188-2.042-6.794 0-6.323 4.796-7.861 9.401-7.861h8.596c1.994 0 3.94-.085 5.508-.342zm-11.729.556c-.096 4.102.712 8.759 5.176 8.759 2.706 0 3.988-1.624 3.988-3.546 0-2.692-1.899-4.401-3.846-4.999-.428-.128-.902-.214-1.33-.214z"/><path d="m203.74 247.231c-.983.569-3.162 1.329-5.939 1.329-6.237 0-10.297-4.701-10.297-11.729 0-7.075 4.358-12.204 11.109-12.204 2.221 0 4.187.617 5.212 1.188l-.854 3.229c-.897-.569-2.307-1.092-4.357-1.092-4.743 0-7.307 3.894-7.307 8.689 0 5.318 3.076 8.595 7.178 8.595 2.137 0 3.547-.617 4.614-1.139z"/><path d="m204.981 249.985 11.921-34.427h2.904l-11.963 34.427z"/><path d="m224.167 225.103 4.528 13.58c.47 1.52.983 3.324 1.325 4.701h.085c.385-1.377.812-3.134 1.324-4.796l4.102-13.485h3.974l-5.64 16.382c-2.691 7.883-4.528 11.919-7.093 14.388-1.837 1.805-3.674 2.518-4.613 2.707l-.94-3.514c.94-.332 2.179-.997 3.29-2.042 1.025-.902 2.307-2.517 3.161-4.653.171-.428.3-.76.3-.997s-.086-.57-.257-1.093l-7.647-21.178z"/></g></svg>