<svg version="1.1" xmlns="http://www.w3.org/2000/svg" xmlns:xlink="http://www.w3.org/1999/xlink" viewBox="0.124 0.123 215.544 169.837"><path fill="#FFF" d="m7.25 136.628 14.684.474-1.421 24.629 167.669-.474s-26.524-52.574-29.366-63.468-7.104-17.998-7.104-17.998l7.578-4.737s-5.684-19.419-9.947-30.313-9.946-35.523-9.946-35.523l-2.368-2.842L6.777 4.482l.474 132.146z"></path><path fill="none" stroke="#424242" stroke-width=".15" stroke-linecap="round" stroke-linejoin="round" stroke-miterlimit="10" d="M94.89 167.954H71.086M73.168 7.267H19.606m0 0v23.805m0 0h53.562m0 0V7.267M62.057 28.84a8.88 8.88 0 0 0 8.88-8.88m-49.064 5.857a3.023 3.023 0 0 0 3.024 3.023m37.16 0h-37.16m-.757-9.67a.756.756 0 0 0 1.512 0m0 0a.756.756 0 1 0-1.511 0m46.795-.792a8.88 8.88 0 0 0-8.88-8.88m-37.159 0a3.023 3.023 0 0 0-3.024 3.024m49.063 7.438v-1.582m-8.879-8.88h-37.16m-3.024 3.024v13.295m-2.267 27.629h3.98m.001 0a2.22 2.22 0 0 0 2.219-2.22m0 0v-.6m0 0 .783.09m0 0 1.462 1.743m0 0 .774.438m0 0 .774.208m.001 0 .776.137m0 0 .771.067m0 .001 1.542-.136m.001 0 1.553-.416m0 0 1.548-.564m0 0 1.548-.722m.001 0 1.548-1.073m0 0 .774-.774m0 0 .387-.67m0-.001.387-1.063m0-.001v-.773m0 0-.387-1.063m0 0-.387-.67m0-.001-.774-.774m0 .001-1.549-1.075m.001 0-1.549-.722m0 0-1.548-.563m0 0-1.554-.416m.001 0-1.543-.135m0 0-.77.067m-.001 0-.777.137m.001 0-.775.208m0-.001-.774.44m0 0-1.462 1.742m0 0-.783.09m0 0v-.6m0-.001a2.22 2.22 0 0 0-2.22-2.219m.001 0h-3.981m0 0v11.884m6.2-2.82v-6.244m47.66 9.544H63.018M73.466 37.56v16.366M62.883 37.56h10.583m-10.583 0a2.51 2.51 0 0 0-2.51 2.51m0 11.21V40.07m0 11.21a2.645 2.645 0 0 0 2.645 2.646m9.314-8.561v-1.89m1.134 0v4.913m-1.134 0a.567.567 0 0 0 1.134 0m0-4.913a.567.567 0 1 0-1.134 0m0 4.913v-2.267m.567.944a.567.567 0 1 0 0 1.134m0 .001a.567.567 0 0 0 0-1.135m0-3.401a.567.567 0 1 0 0 1.134m0 0a.567.567 0 0 0 0-1.134m.567-2.862v9.881m-2.771-10.1a1.89 1.89 0 0 0-1.89-1.89"></path><path fill="none" stroke="#424242" stroke-width=".15" stroke-linecap="round" stroke-linejoin="round" stroke-miterlimit="10" d="M62.883 37.56a2.51 2.51 0 0 0-2.51 2.51m0 11.21a2.645 2.645 0 0 0 2.645 2.646m7.677-7.806v4.783m-1.388-5.538a.378.378 0 0 0 0 .756m3.581-.756h-3.581m3.581.755h-3.581m3.581 0a.378.378 0 1 0 0-.755m-4.082 7.427a1.89 1.89 0 0 0 1.89-1.89m-9.19.001a1.89 1.89 0 0 0 1.89 1.89m0-14.1a1.89 1.89 0 0 0-1.89 1.89m9.189 0v4.782m-7.299-6.672h5.41m-7.3 12.21v-10.32m7.3 12.209h-5.41m4.804-7.805a.756.756 0 1 0 0 1.512"></path><path fill="none" stroke="#424242" stroke-width=".15" stroke-linecap="round" stroke-linejoin="round" stroke-miterlimit="10" d="M68.2 46.499a.756.756 0 0 0 0-1.512m2.023 8.939h-7.205m-2.645-2.646V40.07m2.51-2.51h7.34M26.152 76.005h11.903m0 0c0-6.574-5.329-11.903-11.903-11.903M8.298 61.127h.992m0 0h.969m0 0h15.893m0 17.853H10.26m-.001 0H9.29m0 0h-.992m17.854-17.853V78.98M10.259 61.127V78.98M9.29 61.127V78.98m-.992-17.853V78.98M126.13 10.412h-22.615m0 0v15.92m0 0h22.616m-.001 0v-15.92m-7.575 1.701a.756.756 0 0 0-1.512 0m0 0a.756.756 0 1 0 1.512 0m-7.463 0a.756.756 0 0 0 1.511 0m0 0a.756.756 0 1 0-1.511 0m3.353 1.7h-8.284m8.284 3.047a.378.378 0 0 0 .756 0m0-4.747v4.747m-.756-4.747v4.747m.756-4.747a.378.378 0 1 0-.756 0m-8.285 1.7c-.834 0-1.51.677-1.51 1.512m0 8.361c0 .835.676 1.512 1.51 1.512m17.325 0c.835 0 1.512-.677 1.512-1.512m0-8.361c0-.835-.677-1.512-1.512-1.512m0 0h-8.284m9.796 9.873v-8.361m-18.837 9.873h17.325m-18.835-9.873v8.361m9.417-5.244a.756.756 0 0 0 1.512 0m0 0a.756.756 0 1 0-1.512 0m.761 151.297H98.46M91.022 9.052H77.036m0 74.392h18.598m0 0V27.65m0 0h42.967m-.001 0V9.052M77.603 83.444V9.62m0-.001h60.998M90.19 47.459a2.267 2.267 0 0 0 0-4.535m0 0a2.267 2.267 0 0 0 0 4.535m-7.32.756a3.023 3.023 0 0 0 0-6.047m0 0a3.023 3.023 0 1 0 0 6.047m0 8.405a2.28 2.28 0 0 0 0-4.557m0 0a2.28 2.28 0 1 0 0 4.558m7.32-5.303a3.023 3.023 0 1 0 0 6.047m0 0a3.023 3.023 0 0 0 0-6.047M79.091 40.616H93.97m0 0v18.3m0 .001H79.09m.001 0v-18.3m-1.134-1.134h17.146m0 0V60.05m0 0H77.957m0 0V39.483m-2.799 120.6H15.981m17.831-2.275-1.017-12.512m2.602 12.512v-12.512m2.708 0-1.634 12.512m3.748 0-1.017-12.512m2.602 12.512v-12.512m2.708 0-1.634 12.512m3.747 0-1.017-12.512m2.602 12.512v-12.512m2.708 0-1.634 12.512m3.747 0-1.017-12.512m2.603 12.512v-12.512m2.707 0-1.633 12.512m3.747 0-1.017-12.512m2.602 12.512v-12.512m2.707 0-1.633 12.512m3.747 0-1.017-12.512m2.603 12.512v-12.512m2.707 0-1.633 12.512m3.746 0-1.016-12.512m3.924 6.256H15.981m2.905-6.256-1.634 12.512m3.748 0-1.018-12.512m2.602 12.512v-12.512m2.708 0-1.634 12.512m3.748 0-1.017-12.512m2.601 12.512v-12.512m2.709 0-1.634 12.512m-14.084-14.787h59.177v17.062H15.981zm131.364-74.337a17.755 17.755 0 0 0 0-10.94"></path><path fill="none" stroke="#424242" stroke-width=".15" stroke-linecap="round" stroke-linejoin="round" stroke-miterlimit="10" d="M148.208 68.684a17.755 17.755 0 0 0 0-10.94"></path><path fill="none" stroke="#424242" stroke-width=".15" stroke-linecap="round" stroke-linejoin="round" stroke-miterlimit="10" d="M149.072 68.684a17.755 17.755 0 0 0 0-10.94m-.285 2.302h-.863m-.179-.863h.864m.178 7.197h-.863m-.179.864h.864m-1.264-9.501h-5.742m5.742 10.941h-5.742m7.469 0h-.864m.864-10.941h-.864M130.06 81.534a17.755 17.755 0 0 0 10.405-3.38"></path><path fill="none" stroke="#424242" stroke-width=".15" stroke-linecap="round" stroke-linejoin="round" stroke-miterlimit="10" d="M130.326 82.356a17.755 17.755 0 0 0 10.406-3.381"></path><path fill="none" stroke="#424242" stroke-width=".15" stroke-linecap="round" stroke-linejoin="round" stroke-miterlimit="10" d="M130.593 83.177a17.755 17.755 0 0 0 10.405-3.38m-2.278.44-.267-.821m.767-.437.266.821m-6.79 2.395-.267-.822m-.877.097.267.821m8.646-4.138-1.775-5.46m-8.63 8.841-1.775-5.46m2.308 7.103-.267-.821m10.672-2.56-.266-.821m-28.236-9.909a17.755 17.755 0 0 0 6.431 8.851"></path><path fill="none" stroke="#424242" stroke-width=".15" stroke-linecap="round" stroke-linejoin="round" stroke-miterlimit="10" d="M111.798 69.574a17.755 17.755 0 0 0 6.43 8.85"></path><path fill="none" stroke="#424242" stroke-width=".15" stroke-linecap="round" stroke-linejoin="round" stroke-miterlimit="10" d="M111.099 70.081a17.755 17.755 0 0 0 6.43 8.852m-1.123-2.031.699-.508m.652.594-.698.507m-4.376-5.718.699-.507m-.363-.804-.699.508m6.607 6.943 4.645-3.375m-11.076-5.476 4.645-3.375m-6.042 4.39.699-.507m5.732 9.359.698-.508m.699-29.915a17.755 17.755 0 0 0-6.43 8.85"></path><path fill="none" stroke="#424242" stroke-width=".15" stroke-linecap="round" stroke-linejoin="round" stroke-miterlimit="10" d="M118.228 48.002a17.755 17.755 0 0 0-6.43 8.851"></path><path fill="none" stroke="#424242" stroke-width=".15" stroke-linecap="round" stroke-linejoin="round" stroke-miterlimit="10" d="M117.53 47.494a17.755 17.755 0 0 0-6.431 8.852m1.584-1.696.699.507m-.363.804-.699-.508m4.086-5.928.699.508m.652-.593-.698-.509m-4.563 8.429 4.645 3.376m1.786-12.226 4.645 3.374m-6.042-4.39.698.508m-7.129 8.344.699.507m18.795-13.603-.267.821m10.672 2.559-.266.822m-10.874 2.805c7.156 0 12.957 5.801 12.957 12.956s-5.801 12.957-12.957 12.957c-7.155 0-12.956-5.801-12.956-12.957s5.8-12.956 12.956-12.956h0z"></path><path fill="none" stroke="#424242" stroke-width=".15" stroke-linecap="round" stroke-linejoin="round" stroke-miterlimit="10" d="M129.858 50.833c6.838 0 12.38 5.543 12.38 12.38s-5.542 12.38-12.38 12.38c-6.837 0-12.38-5.542-12.38-12.38s5.543-12.38 12.38-12.38h0zm10.607-2.56-1.775 5.461m-8.63-8.841-1.775 5.46m10.935-2.905.266-.821m-.766-.437-.267.821m-6.901-2.054.267-.822m.877.097-.267.822m8.569 1.576a17.755 17.755 0 0 0-10.405-3.38"></path><path fill="none" stroke="#424242" stroke-width=".15" stroke-linecap="round" stroke-linejoin="round" stroke-miterlimit="10" d="M140.732 47.452a17.755 17.755 0 0 0-10.406-3.38"></path><path fill="none" stroke="#424242" stroke-width=".15" stroke-linecap="round" stroke-linejoin="round" stroke-miterlimit="10" d="M140.465 48.273a17.755 17.755 0 0 0-10.406-3.38M116.188 110.1H141.9v17.998h-25.712zm40.159 23.88H98.764m0 0v25.912m0 0h57.583m0 0V133.98m-4.318 0v25.912m-48.946-25.912v25.912m48.946-4.318h-48.946m24.473-21.594v21.594"></path><path fill="none" stroke="#424242" stroke-width=".15" stroke-linecap="round" stroke-linejoin="round" stroke-miterlimit="10" d="M103.4 104.894h48.312v28.892H103.4z"></path><path fill="none" stroke="#47A6DF" stroke-width=".25" stroke-miterlimit="10" d="m164.305 103.361 1.901-.851m3.571 13.073-5.472-12.222m7.373 11.371-1.901.85m-3.571-13.072 5.472 12.222m-8.346-13.544 1.901-.85m-.928 3.023-.973-2.173m2.874 1.322-1.901.851m.928-3.024.973 2.173m3.571 13.073 1.9-.851m-.927 3.023-.973-2.172m2.873 1.321-1.9.851m.928-3.023.973 2.172m.571-.908-6.93-15.48m20.306 45.355-12.646-28.245m-2.172.973 12.645 28.245M146.063 19.78l1.996-.596m1.838 13.426-3.834-12.83m5.83 12.234-1.996.597m-1.838-13.427 3.834 12.83M145.381 17.5l1.996-.596m-1.314 2.876-.682-2.28m2.678 1.684-1.996.597m1.314-2.877.682 2.28m1.838 13.426 1.996-.596m-1.313 2.878-.683-2.281m2.678 1.684-1.996.597m1.314-2.878.682 2.281m.685-.825-4.857-16.252m14.656 49.039L153.77 35.18m-2.28.682 9.288 31.076m12.359 51.052.272-.12m12.374 28.366-12.646-28.245m12.918 28.123-.272.122m-12.374-28.366 12.646 28.244m-22.666-46.255 2.173-.973m-1.687 2.059-.486-1.086m2.902.657-.815.365m.086-1.995.73 1.63m18.133 46.328 2.173-.973m-1.443 2.603-.73-1.63m2.902.656-2.172.974m1.443-2.603.73 1.63m-14.921-31.14.815-.365m-1.442 2.603-.487-1.087m2.659.114-2.173.973m1.443-2.603.73 1.63m-21.036-82.19.285-.086m9.003 31.162-9.288-31.076m9.573 30.991-.285.085M153.2 35.35l9.289 31.077m-1.711.511 2.28-.681m-1.768 2.392-.512-1.71m2.792 1.028-2.28.682m1.769-2.392.511 1.71M145.61 16.19l2.282-.683m-1.94 1.823-.341-1.14m2.792 1.028-.856.256m.345-1.967.51 1.711m4.002 16.507.856-.256m-1.77 2.393-.34-1.14m2.621.458-2.28.682m1.769-2.392.511 1.71"></path><path fill-rule="evenodd" clip-rule="evenodd" fill="#5D5791" d="m198.905 169.739-4.743-6.085h-79.334v6.085h84.077zm-183.763 0H50.85v-6.227H15.142v6.227zM91.022 9.052h53.563V.123L91.022.125v8.927zM.126 98.323h6.982V44.76H.124v53.562zm162.914-6.126 8.344-3.172-5.816-15.298-8.345 3.172 3.62 9.523 2.196 5.775z"></path><path fill-rule="evenodd" clip-rule="evenodd" fill="#5D5791" d="M194.14 169.693h6.772l-8.218-11.646-5.303 2.765zM160 75.866l5.603-2.003-1.777-5.04-5.708 1.705.935 2.671.946 2.667zm-18.072-59.508 5.708-1.706L144.523.924l-5.785 1.394 3.148 13.871.042.169zm13.302 72.438 10.782-3.277-1.814-4.889-6.985-3.719-5.604 2.003 2.74 7.508.882 2.374zM21.094 163.512v-20.554h-5.952v20.554h5.952zM2.658 142.958h18.436v-5.952H1.157v5.952h1.5zm-1.501-5.952h5.95v-2.231h-5.95v2.231zm0-36.452h5.95v-2.231h-5.95v2.231zM50.85 169.96h63.978v-6.306H50.85v3.11zM16.035 6.076v-.633.633zm-14.878 0h89.865V.125H1.157v5.951zM7.108 44.76V6.076H1.157V44.76h5.95zm69.928 38.684V6.076h-2.38v77.368h2.38zm-2.38 0v-2.38H63.348v2.38h11.308zm-67.548 0h30.947v-2.38H7.108v2.38zm11.307-27.971v-2.38H7.108v2.38h11.307zm-2.38-2.381h2.38V6.076h-2.38v47.016zm-1.488-10.415h1.488v-2.38H7.108v2.38h7.439zm0 0v-.47.47z"></path><path fill-rule="evenodd" clip-rule="evenodd" fill="#5D5791" d="m187.39 160.811 5.277-2.751-.843-6.738-2.237-4.427-7.331 3.855 2.545 5.041 2.59 5.02zm-27.63-60.305 15.383-6.224-2.224-5.674-12.117-1.905-5.571 2.093 2.236 5.866 2.293 5.844z"></path><path fill-rule="evenodd" clip-rule="evenodd" fill="#5D5791" d="m171.507 89.323 5.007-1.904L172.5 76.76l-3.821-11.914-5.328 2.477 3.85 11.994 3.214 7.105 1.092 2.9z"></path><path fill-rule="evenodd" clip-rule="evenodd" fill="#5D5791" d="m166.507 99.118 12.671-4.817-2.664-6.882-12.62 4.798 1.903 5.007zm-18.602-83.587 5.221-1.196L149.891.277h-7.815l4.166 12.862 1.663 2.392zm45.325 154.192 22.438-.176-15.911-28.876-11.767 6.308 2.767 5.431zM74.401 142.564h2.368v21.55h-2.368z"></path><path fill="none" stroke="#43456F" stroke-width=".25" stroke-miterlimit="10" d="M74.656 142.958v19.985m2.38 0v-19.985m0 0h-2.38m114.453 20.341H21.795m27.353 6.44h166.106M50.85 163.512H15.142m0 0v6.227m0 0H50.85m0-.001v-6.226M91.022.125v8.927m0 0h49.156M7.108 98.323V44.76m-.001 0H.125m0 0v53.563m.001 0h6.982M140.135 9.052l.26 1.081m7.51 5.398.023.098m5.216-1.363-5.239 1.265"></path><path fill-rule="evenodd" clip-rule="evenodd" fill="none" stroke="#43456F" stroke-width=".25" stroke-miterlimit="10" d="M7.108 40.297h8.927V6.077L13.11 38.111l-6.002 2.185z"></path><path fill="none" stroke="#43456F" stroke-width=".25" stroke-miterlimit="10" d="M7.108 6.076h8.927M7.108 40.297V6.077m6.002 32.035 2.925-32.036M7.108 40.297l6.002-2.185m2.925 2.185H7.108m8.927-34.221v34.22"></path><path fill-rule="evenodd" clip-rule="evenodd" fill="none" stroke="#43456F" stroke-width=".25" stroke-miterlimit="10" d="M14.547 53.092V42.677l-2.163 8.495-5.276 1.92h7.44z"></path><path fill="none" stroke="#43456F" stroke-width=".25" stroke-miterlimit="10" d="M7.108 42.677h7.44m-7.44 10.415V42.677m5.276 8.495 2.163-8.495M7.108 53.092l5.276-1.92m2.163 1.92h-7.44m7.44-10.415v10.415M19.308.125H3.538m25.59 0h-7.44M7.108 40.297V6.077m0-.001h8.927M7.108 53.092V42.677m0 0h7.44M29.128.125h2.38m-30.351 0h2.38m15.771 0h2.38m118.707 10.008a656.947 656.947 0 0 0 1.533 6.225m0 0 5.708-1.706m10.482 55.876A643.22 643.22 0 0 0 160 75.866m3.826-7.043-5.708 1.705m-10.482-55.876.218.866m15.679 52.461.293.844m-21.898-52.465a642.75 642.75 0 0 0 16.19 54.17m1.953 5.193-8.462 3.193m0 0a651.764 651.764 0 0 0 3.622 9.882m23.664 5.724a636.8 636.8 0 0 0 20.662 46.19M21.094 169.739h-5.952m5.952-6.227v-26.506m-5.952 5.952v20.554m0 0h5.952m0-26.506H7.108m-5.951-2.231v8.183m2.379 0h11.606m-8.034-5.952v-2.231m0 0H1.157m5.951-34.221v-2.231m0 0H1.157m0 0v2.231m0 0h5.95m43.743 62.958v3.251M3.536 142.958h-2.38M.126 98.323V92.37M149.891.125H29.128m-7.439 0h-2.38m-15.772 0h-2.38m5.951 5.951h83.914m0 0V.125m-89.865 0V44.76m0 0h5.95m.001 0V6.076m67.548 0v74.988m2.38 2.38V6.076M7.108 83.444h30.947m0 0v-2.38m0 0H7.108m0 0v2.38m56.24 0h13.688m-2.38-2.38H63.348m0 0v2.38M7.108 55.473h11.307m-2.38-2.381h-1.488m-7.439 0v2.38m8.927-12.795v10.415m2.38 2.381V6.076M7.108 42.677h8.927m171.657 105.639-5.436 2.434m0 0c1.682 3.368 4.757 9.068 6.498 12.407M155.23 88.796a651.687 651.687 0 0 0 4.53 11.71m0 0 5.437-2.435m-5.437 2.435a651.682 651.682 0 0 0 22.496 50.244m-19.004-83.847 5.015-1.661m-15.083-51.051a628.468 628.468 0 0 0 14.845 49.671m-.203-.355c2.56 7.432 8.591 23.534 11.428 30.864m-10.835-29.129-5.096 1.689m0-.001.146.423.145.422m2.198 31.671 13.264-4.72m-31.171-79.195 5.221-1.196m0 0L149.891.277m65.363 169.446-12.73-23.62m0-.001-2.53-4.72m0-.001-.287-.534m0 0-4.72 2.53m-7.042 3.788 7.047-3.778m-.006-.009.006.01M7.108 134.775c18.9 0 34.22-15.321 34.22-34.22m-34.22-.001h34.22m-37.493.298v1.934m0 0h1.487m0 0v-.297m0 0h1.786m0 0v-1.637m0 0H3.835m0 33.625h3.273m0 0v-1.636m0-.001H5.322m0 0v-.297m0 0H3.835m0 0v1.934m3.273-33.625v-.298m0 0H3.835m0 0v.298m0 0h3.273m0 33.923v-.298m0 0H3.835m0 0v.298m0 0h3.273m56.24-79.005c-13.969 0-25.293 11.324-25.293 25.294m25.293 0V55.77"></path><path d="M51.796 129.597h-2.473l-.137 1.09c.137-.022.255-.022.412-.022.608 0 1.226.152 1.678.512.48.36.775.947.775 1.776 0 1.318-1.02 2.483-2.738 2.483-.775 0-1.423-.195-1.776-.402l.265-1.243a3.36 3.36 0 0 0 1.442.349c.619 0 1.276-.327 1.276-1.079 0-.73-.52-1.176-1.796-1.176-.353 0-.598.022-.863.065l.422-3.715h3.513v1.362zm.79 7.016c.304-.97.57-2.102.707-3.094l1.52-.109c-.323 1.111-.765 2.255-1.236 3.105l-.99.098zm3.413-2.494c.186.021.353.021.648 0 .451-.033.912-.175 1.256-.436.412-.316.686-.774.804-1.308l-.03-.01c-.284.326-.696.511-1.275.511-1.079 0-1.992-.838-1.992-2.211 0-1.384 1.001-2.55 2.404-2.55 1.638 0 2.414 1.395 2.414 3.05 0 1.472-.422 2.55-1.119 3.258-.608.61-1.442.948-2.433.992-.255.021-.51.01-.677 0v-1.296zm.903-3.552c0 .61.294 1.133.903 1.133a.92.92 0 0 0 .824-.469c.049-.098.078-.207.078-.414 0-.752-.255-1.492-.932-1.492-.51 0-.883.5-.873 1.242zm-17.528-11.085v2.288h.206l1.786-2.288h1.05l-2.071 2.386c.766.087 1.227.654 1.6 1.602.127.348.294.86.51 1.285h-.903c-.127-.229-.294-.642-.441-1.078-.324-.85-.766-1.243-1.57-1.243h-.167v2.321h-.854v-5.273h.854zm8.081 2.593c0 1.95-1.216 2.8-2.364 2.8-1.286 0-2.276-1.046-2.276-2.712 0-1.766 1.04-2.8 2.354-2.8 1.364 0 2.286 1.1 2.286 2.712zm-3.767.055c0 1.155.598 2.026 1.442 2.026.824 0 1.442-.86 1.442-2.048 0-.894-.402-2.027-1.422-2.027s-1.462 1.046-1.462 2.049zm4.852-.926c0-.676-.02-1.22-.04-1.722h.776l.04.905h.019c.353-.643.912-1.025 1.688-1.025 1.148 0 2.011 1.079 2.011 2.68 0 1.896-1.04 2.833-2.159 2.833-.628 0-1.177-.305-1.462-.828h-.02v2.866h-.853v-5.71zm.854 1.405c0 .141.02.272.039.392.157.665.677 1.122 1.295 1.122.912 0 1.443-.828 1.443-2.037 0-1.057-.5-1.961-1.413-1.961-.59 0-1.139.469-1.305 1.187-.03.12-.06.262-.06.393v.904zm5.519-3.127v2.223c0 .839-.01 1.362-.048 2.113l.029.011c.285-.643.452-1.013.765-1.623l1.482-2.724h1.01v5.273h-.824v-2.233c0-.861.02-1.308.06-2.157h-.03c-.304.675-.51 1.1-.785 1.634-.452.817-.972 1.83-1.482 2.756h-.99v-5.273h.813zm8.317 0v4.554l.49.011-.049 2.386h-.677l-.04-1.678h-3.286l-.039 1.678h-.677l-.04-2.386.403-.011c.206-.337.363-.697.471-1.079a7.669 7.669 0 0 0 .275-2.102v-1.373h3.169zm-2.404 1.602c0 .697-.088 1.372-.245 1.96-.098.36-.236.687-.383.981h2.188v-3.813h-1.56v.872zm8.179.991c0 1.95-1.217 2.8-2.365 2.8-1.285 0-2.276-1.046-2.276-2.712 0-1.766 1.04-2.8 2.355-2.8 1.363 0 2.286 1.1 2.286 2.712zm-3.768.055c0 1.155.599 2.026 1.443 2.026.824 0 1.441-.86 1.441-2.048 0-.894-.401-2.027-1.422-2.027s-1.462 1.046-1.462 2.049zm4.853-.926c0-.676-.02-1.22-.04-1.722h.776l.039.905h.02c.353-.643.912-1.025 1.687-1.025 1.148 0 2.011 1.079 2.011 2.68 0 1.896-1.04 2.833-2.158 2.833-.628 0-1.178-.305-1.462-.828h-.02v2.866h-.853v-5.71zm.853 1.405c0 .141.02.272.04.392.156.665.677 1.122 1.295 1.122.912 0 1.442-.828 1.442-2.037 0-1.057-.5-1.961-1.413-1.961-.589 0-1.138.469-1.305 1.187-.03.12-.059.262-.059.393v.904zM42.055 50.39h-2.473l-.137 1.09c.137-.022.255-.022.412-.022.608 0 1.226.152 1.677.512.481.36.775.947.775 1.776 0 1.318-1.02 2.483-2.737 2.483-.775 0-1.423-.195-1.776-.402l.265-1.243a3.36 3.36 0 0 0 1.442.349c.618 0 1.276-.327 1.276-1.079 0-.73-.52-1.176-1.796-1.176-.353 0-.598.022-.863.065l.422-3.715h3.513v1.362zm.79 7.016c.304-.97.57-2.102.707-3.094l1.52-.109c-.324 1.111-.765 2.255-1.236 3.105l-.991.098zm4.845-6.907h-.02l-1.216.643-.245-1.242 1.687-.872h1.237v7.082H47.69v-5.611zm-5.63-7.435c-.226.13-.727.305-1.364.305-1.433 0-2.365-1.079-2.365-2.69 0-1.624 1-2.8 2.551-2.8.51 0 .962.14 1.197.271l-.196.742c-.206-.131-.53-.251-1-.251-1.09 0-1.679.893-1.679 1.994 0 1.22.707 1.971 1.649 1.971.49 0 .814-.141 1.06-.26l.146.718zm.28.632 2.738-7.899h.667l-2.747 7.899h-.657zm4.403-5.709 1.04 3.116c.108.349.226.763.305 1.079h.02c.088-.316.186-.72.303-1.1l.942-3.095h.912l-1.294 3.759c-.619 1.808-1.04 2.734-1.629 3.3-.422.415-.844.578-1.06.622l-.216-.806c.216-.076.5-.23.756-.469.235-.207.53-.577.726-1.067a.746.746 0 0 0 .069-.23.92.92 0 0 0-.06-.25l-1.755-4.859h.941zm55.333 61.865h-.02l-1.216.644-.245-1.243 1.687-.871h1.236v7.081h-1.442v-5.61zm6.178 5.611v-1.688h-2.826v-1.079l2.414-4.314h1.825v4.15h.764v1.243h-.764v1.688h-1.413zm0-2.93v-1.57c0-.424.02-.86.049-1.318h-.04c-.206.458-.373.872-.588 1.319l-.854 1.547v.022h1.433zm2.409 4.227c.305-.97.57-2.103.707-3.095l1.52-.108c-.324 1.11-.765 2.255-1.236 3.105l-.991.098zm2.942-1.297v-1.002l.825-.828c1.392-1.384 2.07-2.179 2.09-3.007 0-.577-.315-1.035-1.05-1.035-.55 0-1.03.305-1.365.588l-.422-1.187c.48-.403 1.227-.73 2.09-.73 1.443 0 2.238.937 2.238 2.222 0 1.188-.776 2.136-1.698 3.051l-.589.545v.021h2.404v1.362h-4.523zm-32.067-15.3v2.288h.206l1.786-2.288h1.05l-2.07 2.386c.765.087 1.226.654 1.599 1.601.127.349.294.861.51 1.286h-.903c-.127-.23-.294-.643-.441-1.079-.324-.85-.766-1.242-1.57-1.242h-.167v2.321h-.854v-5.273h.854zm4.225 0 1.04 3.116c.108.348.226.762.304 1.078h.02c.088-.316.186-.719.304-1.1l.942-3.094h.912l-1.295 3.759c-.618 1.808-1.04 2.734-1.628 3.3-.422.415-.845.578-1.06.622l-.216-.806c.216-.077.5-.23.756-.47.235-.206.53-.576.726-1.067a.746.746 0 0 0 .068-.229.92.92 0 0 0-.059-.25l-1.756-4.859h.942zm4.746 0 .676 1.133c.177.294.324.567.48.86h.03c.157-.315.315-.588.472-.87l.667-1.123h.931l-1.619 2.55 1.668 2.723h-.98l-.697-1.188a16.03 16.03 0 0 1-.51-.915h-.02c-.157.316-.324.6-.5.915l-.687 1.188h-.951l1.687-2.691-1.61-2.582h.963zm4.971 0v2.125h2.256v-2.125h.854v5.273h-.854V93.05H95.48v2.386h-.853v-5.273h.853zm8.02 5.273h-.853v-2.211h-.637c-.364 0-.609.108-.795.293-.353.316-.48.97-.667 1.482a3.302 3.302 0 0 1-.197.436h-.921c.107-.174.206-.37.293-.6.207-.511.325-1.198.747-1.59a1.09 1.09 0 0 1 .539-.305v-.032c-.619-.077-1.256-.502-1.256-1.308 0-.545.265-.915.628-1.144.392-.25.971-.36 1.59-.36.569 0 1.118.055 1.53.11v5.229zm-.853-4.641a4.343 4.343 0 0 0-.716-.055c-.588 0-1.285.186-1.285.916 0 .675.755.915 1.266.915h.735v-1.776zm4.255 1.34v.708h-2.424v-.708h2.424zm3.903-1.972v.773h-2.061v4.5h-.854v-5.273h2.915zm4.981 2.593c0 1.95-1.217 2.8-2.365 2.8-1.285 0-2.276-1.046-2.276-2.713 0-1.765 1.04-2.8 2.355-2.8 1.363 0 2.286 1.1 2.286 2.713zm-3.768.054c0 1.155.599 2.027 1.443 2.027.824 0 1.441-.861 1.441-2.049 0-.893-.401-2.026-1.422-2.026s-1.462 1.046-1.462 2.048zm8.238 2.43c-.226.13-.727.305-1.365.305-1.432 0-2.364-1.079-2.364-2.691 0-1.624 1.001-2.8 2.551-2.8.51 0 .962.142 1.197.272l-.196.741c-.206-.13-.53-.25-1.001-.25-1.089 0-1.678.893-1.678 1.993 0 1.22.707 1.972 1.649 1.972.49 0 .814-.141 1.06-.261l.147.719zm4.373-5.077v.763h-1.482v4.51h-.853v-4.51h-1.482v-.763h3.817zm1.547 0v2.222c0 .84-.01 1.362-.05 2.114l.03.01c.284-.642.451-1.013.766-1.622l1.481-2.724h1.01v5.273h-.823v-2.233c0-.861.02-1.308.058-2.158h-.029c-.305.676-.51 1.1-.785 1.635-.451.816-.972 1.83-1.482 2.756h-.99v-5.273h.814zm5.47 0v2.125h2.257v-2.125h.854v5.273h-.854V93.05h-2.257v2.386h-.853v-5.273h.853zm7.15 5.273-.069-.665h-.029a1.72 1.72 0 0 1-1.452.785c-.962 0-1.452-.752-1.452-1.515 0-1.274 1.02-1.972 2.854-1.96v-.11c0-.435-.107-1.22-1.079-1.22-.441 0-.902.153-1.236.392l-.196-.631c.392-.284.961-.47 1.56-.47 1.452 0 1.805 1.101 1.805 2.158v1.972c0 .458.02.905.079 1.264h-.785zm-.128-2.691c-.942-.022-2.01.164-2.01 1.188 0 .62.372.915.814.915.618 0 1.01-.436 1.147-.883a1.08 1.08 0 0 0 .049-.305v-.915zm5.756 2.691h-.854v-2.211h-.638c-.363 0-.608.108-.794.293-.354.316-.48.97-.667 1.482a3.434 3.434 0 0 1-.197.436h-.922c.108-.174.205-.37.294-.6.206-.511.324-1.198.745-1.59.148-.142.325-.261.54-.305v-.032c-.618-.077-1.255-.502-1.255-1.308 0-.545.264-.915.628-1.144.392-.25.971-.36 1.59-.36.568 0 1.118.055 1.53.11v5.229zm-.854-4.641a4.347 4.347 0 0 0-.717-.055c-.588 0-1.285.186-1.285.916 0 .675.756.915 1.266.915h.736v-1.776z" fill="#43456F"></path></svg>