<svg enable-background="new 0 0 623 1000" viewBox="0 0 623 1000" xmlns="http://www.w3.org/2000/svg"><path d="m589.247 971.594h-563.435v-916.014h563.435s-5.184 921.199 0 916.014z" fill="#fff"/><g fill="none" stroke-miterlimit="10"><g stroke="#414242" stroke-width=".8586"><g stroke-linecap="round" stroke-linejoin="round"><path d="m328.741 545.625v-10.61"/><path d="m328.741 535.015h-82.892"/><path d="m245.849 535.015v10.61"/><path d="m245.849 545.625v332.891"/><path d="m245.849 878.516h82.892"/><path d="m269.719 665.864c-5.582 0-10.106 4.525-10.106 10.106s4.525 10.106 10.106 10.106"/><path d="m269.719 686.076c5.582 0 10.106-4.525 10.106-10.106s-4.525-10.106-10.106-10.106"/><path d="m269.719 621.712c-7.442 0-13.475 6.033-13.475 13.475s6.033 13.475 13.475 13.475"/><path d="m269.719 648.662c7.442 0 13.475-6.033 13.475-13.475s-6.033-13.475-13.475-13.475"/><path d="m302.345 662.495c-7.442 0-13.475 6.033-13.475 13.475s6.033 13.475 13.475 13.475"/><path d="m302.345 689.445c7.442 0 13.475-6.033 13.475-13.475s-6.033-13.475-13.475-13.475"/><path d="m302.345 625.029c-5.61 0-10.158 4.548-10.158 10.158s4.548 10.158 10.158 10.158"/><path d="m302.345 645.345c5.61 0 10.158-4.548 10.158-10.158s-4.548-10.158-10.158-10.158"/><path d="m319.189 696.361h-66.314"/><path d="m252.875 696.361v-81.566"/><path d="m252.875 614.795h66.314"/><path d="m319.189 614.795v81.566"/><path d="m324.242 609.742h-76.42"/><path d="m247.822 609.742v91.672"/><path d="m247.822 701.414h76.42"/><path d="m324.242 701.414v-91.672"/><path d="m286.236 794.18c-1.861 0-3.369 1.508-3.369 3.369s1.508 3.369 3.369 3.369"/><path d="m286.236 800.917c1.861 0 3.369-1.508 3.369-3.369 0-1.86-1.508-3.369-3.369-3.369"/><path d="m314.445 807.443c-1.861 0-3.369 1.508-3.369 3.369s1.508 3.369 3.369 3.369"/><path d="m314.445 814.18c1.86 0 3.369-1.508 3.369-3.369s-1.508-3.369-3.369-3.369"/><path d="m314.445 780.917c-1.861 0-3.369 1.508-3.369 3.369 0 1.86 1.508 3.369 3.369 3.369"/><path d="m314.445 787.655c1.86 0 3.369-1.508 3.369-3.369s-1.508-3.369-3.369-3.369"/><path d="m293.284 799.233h21.161"/><path d="m293.284 795.864c-.93 0-1.684.754-1.684 1.684s.754 1.684 1.684 1.684"/><path d="m314.445 795.864h-21.161"/><path d="m314.445 799.233c.93 0 1.684-.754 1.684-1.684s-.754-1.684-1.684-1.684"/><path d="m306.865 836.156v-36.923"/><path d="m300.128 842.894c3.721 0 6.737-3.016 6.737-6.737"/><path d="m262.86 842.894h37.268"/><path d="m256.122 836.156c0 3.721 3.016 6.737 6.737 6.737"/><path d="m256.122 758.941v77.215"/><path d="m262.86 752.203c-3.721 0-6.737 3.016-6.737 6.737"/><path d="m300.128 752.203h-37.268"/><path d="m306.865 758.941c0-3.721-3.016-6.737-6.737-6.737"/><path d="m306.865 795.864v-36.923"/><path d="m322.025 847.947h-70.956"/><path d="m251.069 847.947v-100.797"/><path d="m251.069 747.15h70.956"/><path d="m322.025 747.15v100.797"/><path d="m521.382 610.548c0 2.93 2.375 5.305 5.305 5.305s5.305-2.375 5.305-5.305"/><path d="m531.992 610.548c0-2.93-2.375-5.305-5.305-5.305s-5.305 2.375-5.305 5.305"/><path d="m461.7 675.536v-129.975"/><path d="m591.675 675.536h-129.975"/><path d="m530.351 606.885 46.071-46.072"/><path d="m523.024 606.885-46.072-46.072"/><path d="m476.952 660.284 45.896-45.896"/><path d="m576.422 660.284-45.896-45.896"/><path d="m467.005 670.231v-119.365"/><path d="m467.005 550.866h119.364"/><path d="m586.369 550.866v119.365"/><path d="m586.369 670.231h-119.364"/><path d="m476.952 660.284v-99.471"/><path d="m476.952 560.813h99.47"/><path d="m576.422 560.813v99.471"/><path d="m576.422 660.284h-99.47"/><path d="m592.993 834.726.002 52.965"/><path d="m575.25 834.727 17.743-.001"/><path d="m575.25 834.727c-5.463 0-9.891 4.429-9.891 9.892"/><path d="m565.359 847.296v-2.677"/><path d="m561.87 846.895 3.489.401"/><path d="m555.352 839.127 6.518 7.768"/><path d="m551.902 837.172 3.45 1.955"/><path d="m548.452 836.248 3.45.924"/><path d="m544.989 835.637 3.463.611"/><path d="m541.552 835.337 3.437.3"/><path d="m534.679 835.938 6.873-.601"/><path d="m527.753 837.794 6.926-1.856"/><path d="m520.853 840.306 6.9-2.512"/><path d="m513.954 843.523 6.899-3.217"/><path d="m507.054 848.31 6.9-4.787"/><path d="m503.604 851.76 3.45-3.45"/><path d="m501.88 854.748 1.724-2.988"/><path d="m500.155 859.487 1.725-4.739"/><path d="m500.155 862.937v-3.45"/><path d="m501.88 867.676-1.725-4.739"/><path d="m503.605 870.663-1.725-2.987"/><path d="m507.055 874.113-3.45-3.45"/><path d="m513.955 878.899-6.9-4.786"/><path d="m520.855 882.116-6.9-3.217"/><path d="m527.754 884.628-6.899-2.512"/><path d="m534.68 886.483-6.926-1.855"/><path d="m541.554 887.084-6.874-.601"/><path d="m544.991 886.783-3.437.301"/><path d="m548.453 886.173-3.462.61"/><path d="m551.903 885.248-3.45.925"/><path d="m555.353 883.293-3.45 1.955"/><path d="m561.871 875.525-6.518 7.768"/><path d="m565.36 875.123-3.489.402"/><path d="m565.36 877.801v-2.678"/><path d="m565.36 877.801c0 5.463 4.429 9.891 9.892 9.891"/><path d="m592.995 887.691-17.743.001"/><path d="m565.36 875.123-.001-27.827"/><path d="m593.003 771.025-47.892-.002"/><path d="m593.005 691.448-.002 79.577"/><path d="m544.51 691.447 48.495.001"/><path d="m544.51 691.447c-6.179 0-11.187 5.008-11.188 11.187"/><path d="m533.321 759.232.002-56.598"/><path d="m533.321 759.232c0 6.512 5.278 11.791 11.79 11.791"/><path d="m587.951 729.552v-8.422"/><path d="m593.004 721.13v21.897"/><path d="m587.951 743.027c0 1.395 1.131 2.527 2.526 2.527s2.527-1.131 2.527-2.526"/><path d="m593.004 721.13c0-1.395-1.131-2.527-2.526-2.527s-2.527 1.131-2.527 2.526"/><path d="m587.951 743.027v-10.106"/><path d="m590.477 737.132c-1.395 0-2.527 1.131-2.527 2.526s1.131 2.527 2.526 2.527"/><path d="m590.477 742.185c1.395 0 2.527-1.131 2.527-2.526s-1.131-2.527-2.526-2.527"/><path d="m590.478 721.973c-1.395 0-2.527 1.131-2.527 2.526s1.131 2.527 2.526 2.527"/><path d="m590.478 727.026c1.395 0 2.527-1.131 2.527-2.526s-1.131-2.527-2.526-2.527"/><path d="m593.005 705.902-.002 50.67"/><path d="m580.657 704.923c0-4.651-3.77-8.422-8.422-8.422"/><path d="m544.51 691.447c-6.179 0-11.187 5.008-11.188 11.187"/><path d="m533.321 759.232c0 6.512 5.278 11.791 11.79 11.791"/><path d="m580.656 732.921v24.629"/><path d="m574.469 729.552c-.93 0-1.684.754-1.684 1.684s.754 1.684 1.684 1.684"/><path d="m590.431 729.552h-15.962"/><path d="m590.431 732.921h-15.962"/><path d="m590.431 732.921c.93 0 1.684-.754 1.684-1.684s-.754-1.684-1.684-1.684"/><path d="m572.234 765.971c4.651 0 8.422-3.77 8.422-8.422"/><path d="m538.374 757.548c0 4.651 3.77 8.422 8.422 8.422"/><path d="m546.798 696.5c-4.651 0-8.422 3.77-8.422 8.422"/><path d="m580.657 704.923v24.629"/><path d="m546.798 696.5 25.438.001"/><path d="m538.374 757.548.002-52.626"/><path d="m572.234 765.971-25.438-.001"/><path d="m569.533 727.867c-1.86 0-3.369 1.508-3.369 3.369 0 1.86 1.508 3.369 3.369 3.369"/><path d="m569.533 734.605c1.86 0 3.369-1.508 3.369-3.369 0-1.86-1.508-3.369-3.369-3.369"/><path d="m578.55 771.024-33.439-.001"/><path d="m533.321 759.232.002-56.598"/><path d="m544.51 691.447 34.042.001"/><path d="m593.003 776.33.002-90.187"/><path d="m423.238 841.315v70.839"/><path d="m423.238 912.154v4.316"/><path d="m423.238 916.47v4.422"/><path d="m423.238 920.892v-79.577"/><path d="m343.661 841.315v79.577"/><path d="m343.661 920.892v-4.422"/><path d="m343.661 916.47v-4.316"/><path d="m343.661 912.154v-70.839"/><path d="m423.238 841.315h-79.577"/><path d="m343.661 841.315h79.577"/><path d="m343.661 912.154h79.577"/><path d="m343.661 916.47h79.577"/><path d="m343.661 920.892h79.577"/><path d="m343.661 920.892h79.577"/><path d="m589.871 530.006v-214.387"/><path d="m579.495 396.951-57.071-4.638"/><path d="m579.495 404.182h-57.071"/><path d="m522.424 416.533 57.071-7.452"/><path d="m579.495 426.173-57.071-4.639"/><path d="m579.495 433.403h-57.071"/><path d="m522.424 445.755 57.071-7.452"/><path d="m579.495 455.395-57.071-4.639"/><path d="m579.495 462.625h-57.071"/><path d="m522.424 474.976 57.071-7.451"/><path d="m579.495 484.616-57.071-4.638"/><path d="m579.495 491.846h-57.071"/><path d="m522.424 504.198 57.071-7.452"/><path d="m579.495 513.838-57.071-4.639"/><path d="m579.495 521.068h-57.071"/><path d="m550.959 532.599v-216.98"/><path d="m522.424 328.868 57.071-7.451"/><path d="m579.495 338.508-57.071-4.638"/><path d="m579.495 345.738h-57.071"/><path d="m522.424 358.09 57.071-7.452"/><path d="m579.495 367.73-57.071-4.639"/><path d="m579.495 374.96h-57.071"/><path d="m522.424 387.311 57.071-7.451"/><path d="m512.048 315.619h77.823v215.481h-77.823z"/><path d="m36.326 109.225v130.691"/><path d="m36.326 239.916h-4.21"/><path d="m32.116 239.916-4.21-32.673"/><path d="m27.906 207.243v-65.346"/><path d="m27.906 141.897 4.21-32.672"/><path d="m32.116 109.225h4.21"/><path d="m34.642 231.203v-8.713"/><path d="m34.642 222.49h-1.052"/><path d="m33.59 222.49v8.713"/><path d="m33.59 231.203h1.052"/><path d="m34.642 220.312v-8.712"/><path d="m34.642 211.6h-1.052"/><path d="m33.59 211.6v8.712"/><path d="m33.59 220.312h1.052"/><path d="m34.642 209.421v-4.356"/><path d="m34.642 205.065h-1.052"/><path d="m33.59 205.065v4.356"/><path d="m33.59 209.421h1.052"/><path d="m32.116 109.225v130.691"/><path d="m27.906 82.642h59.262v183.856h-59.262z"/><path d="m30.716 309.644h184.831v72.59h-184.831z"/><path d="m122.385 425.471c-14.497 4.393-29.817 4.393-44.314 0"/><path d="m124.097 407.884c-15.448 5.93-32.288 5.934-47.739.01"/><path d="m76.115 424.842c-1.959-.63-3.336-2.548-3.426-4.774"/><path d="m78.07 425.471-1.955-.629"/><path d="m72.689 420.068-1.539-37.834"/><path d="m127.766 420.068c-.091 2.226-1.467 4.144-3.426 4.774"/><path d="m122.385 425.471 1.955-.629"/><path d="m127.766 420.068 1.539-37.834"/><path d="m124.643 418.505c-.064 0-.117-.055-.119-.125"/><path d="m124.524 418.38-1.471-36.146"/><path d="m124.643 418.505h2.864"/><path d="m75.932 418.38c-.003.07-.055.125-.119.125"/><path d="m75.932 418.38 1.47-36.146"/><path d="m75.812 418.505h-3.311"/><path d="m149.019 425.471c14.497 4.393 29.817 4.393 44.314 0"/><path d="m147.307 407.884c15.448 5.93 32.288 5.934 47.739.01"/><path d="m195.289 424.842c1.959-.63 3.336-2.548 3.426-4.774"/><path d="m193.334 425.471 1.955-.629"/><path d="m198.715 420.068 1.539-37.834"/><path d="m143.638 420.068c.091 2.226 1.467 4.144 3.426 4.774"/><path d="m149.019 425.471-1.955-.629"/><path d="m143.638 420.068-1.539-37.834"/><path d="m146.761 418.505c.064 0 .117-.055.119-.125"/><path d="m146.88 418.38 1.47-36.146"/><path d="m146.761 418.505h-2.864"/><path d="m195.472 418.38c.003.07.055.125.119.125"/><path d="m195.472 418.38-1.47-36.146"/><path d="m195.592 418.505h3.311"/><path d="m328.27 131.4h73.958v105.654h-73.958z"/></g><path d="m304.917 132.491h222.954v107.156h-222.954z" transform="matrix(0 -1 1 0 230.3252 602.463)"/><g stroke-linecap="round" stroke-linejoin="round"><path d="m468.264 53.879v262.651"/><path d="m468.264 316.53h118.194"/><path d="m586.458 316.53v-262.651"/><path d="m586.458 53.879h-118.194"/><path d="m468.264 296.832h118.194"/><path d="m468.264 73.877h118.194"/><path d="m566.759 73.578v223.254"/><path d="m468.264 185.205h98.495"/><path d="m325.437 968.138v-89.83"/><path d="m315.06 914.175-57.07-4.996"/><path d="m315.06 921.964h-57.07"/><path d="m257.99 935.268 57.07-8.026"/><path d="m315.06 945.653-57.07-4.997"/><path d="m315.06 953.441h-57.07"/><path d="m257.99 966.746 57.07-8.027"/><path d="m286.525 968.138v-89.83"/><path d="m315.06 882.698-57.07-4.997"/><path d="m315.06 890.486h-57.07"/><path d="m257.99 903.791 57.07-8.027"/><path d="m247.613 878.308h77.823v89.83h-77.823z"/></g></g><g stroke="#46a5de" stroke-width="1.4311"><path d="m227.612 37.594h59.683"/><path d="m287.295 34.941h-59.683"/><path d="m295.252 28.31v7.958"/><path d="m295.252 36.268h7.958"/><path d="m303.21 36.268v-7.958"/><path d="m303.21 28.31h-7.958"/><path d="m287.295 32.289v7.958"/><path d="m287.295 40.247h7.957"/><path d="m295.252 40.247v-7.958"/><path d="m295.252 32.289h-7.957"/><path d="m219.655 32.289v7.958"/><path d="m219.655 40.247h7.957"/><path d="m227.612 40.247v-7.958"/><path d="m227.612 32.289h-7.957"/><path d="m219.655 28.31v7.958"/><path d="m219.655 36.268h-7.958"/><path d="m211.697 36.268v-7.958"/><path d="m211.697 28.31h7.958"/><path d="m118.858 28.31v7.958"/><path d="m118.858 36.268h-7.958"/><path d="m110.9 36.268v-7.958"/><path d="m110.9 28.31h7.958"/><path d="m295.252 32.289v-1.326"/><path d="m295.252 30.963h-75.597"/><path d="m219.655 30.963v1.326"/><path d="m118.858 33.615h92.839"/><path d="m211.697 33.615v-2.652"/><path d="m211.697 30.963h-92.839"/><path d="m118.858 30.963v2.652"/><path d="m211.697 36.268h7.958"/><path d="m219.655 32.289v-3.979"/><path d="m219.655 28.31h-7.958"/><path d="m211.697 28.31v7.958"/><path d="m295.252 36.268h7.958"/><path d="m303.21 36.268v-7.958"/><path d="m299.894 28.31h-4.642"/><path d="m295.252 28.31v3.979"/><path d="m110.9 36.268h7.958"/><path d="m118.858 36.268v-7.958"/><path d="m118.858 28.31h-4.642"/><path d="m110.9 28.31v7.958"/><path d="m533.982 28.31v7.958"/><path d="m533.982 32.289h-7.958"/><path d="m526.024 32.289v7.958"/><path d="m526.024 40.247h7.958"/><path d="m533.982 40.247v-7.958"/><path d="m405.333 37.594h120.691"/><path d="m526.024 34.941h-120.691"/><path d="m397.375 32.289v7.958"/><path d="m397.375 40.247h7.958"/><path d="m405.333 40.247v-7.958"/><path d="m405.333 32.289h-7.958"/><path d="m533.982 36.268h7.957"/><path d="m541.939 36.268v-7.958"/><path d="m541.939 28.31h-7.957"/><path d="m397.375 28.31v7.958"/><path d="m397.375 36.268h-7.957"/><path d="m389.418 36.268v-7.958"/><path d="m389.418 28.31h7.957"/><path d="m389.418 36.268h7.957"/><path d="m397.375 32.289v-3.979"/><path d="m397.375 28.31h-4.641"/><path d="m389.418 28.31v7.958"/><path d="m533.982 36.268h7.957"/><path d="m541.939 36.268v-7.958"/><path d="m538.624 28.31h-4.642"/><path d="m533.982 28.31v3.979"/><path d="m225.19 41.838-.107.923-.192 1.548-.146 1.024-.237 1.294-.121.535-.028.141-.013.099"/><path d="m222.922 47.413c-.001-.023-.009-.084-.009-.084l-.035-.18-.125-.552-.157-.815-.136-.871-.197-1.499-.095-.794-.09-.779"/><path d="m222.965 48.302c.022.053.046.101.046.101.027.044.09.128.09.128l.071.071.078.059.085.047.091.035.095.022.097.009.096-.004.189-.048.132-.071.087-.07c.057-.061.095-.111.095-.111l.047-.078c.021-.044.039-.088.039-.088"/><path d="m221.777 40.247v1.591"/><path d="m225.49 41.838v-1.591"/><path d="m224.317 41.838c.003 1.142.006 2.173.01 3.014.003.841.006 1.492.01 1.922.003.43.006.64.01.649"/><path d="m224.346 47.423v-.505-.168"/><path d="m222.951 41.838c-.003 1.142-.006 2.173-.01 3.014-.003.841-.006 1.492-.01 1.922-.003.43-.006.64-.01.649"/><path d="m222.922 47.423c.021.055.05.108.084.157.035.049.075.093.121.133s.097.073.151.101.113.049.172.063"/><path d="m223.45 47.876c.06.014.122.022.183.022s.123-.007.183-.022c.12-.029.232-.085.324-.164.046-.039.086-.084.121-.133s.063-.101.084-.157"/><path d="m222.922 46.732v.186.505"/><path d="m222.994 47.08c-.004.075-.008.132-.012.171"/><path d="m222.954 47.224c-.005-.061-.01-.151-.015-.271"/><path d="m224.328 46.952c-.006.144-.012.246-.018.305"/><path d="m224.288 47.278c-.005-.037-.01-.102-.015-.194"/><path d="m224.257 46.972v.232"/><path d="m224.257 47.356v.202"/><path d="m224.346 47.423c-.015.562-.03.86-.044.882-.007.01-.013-.036-.02-.138"/><path d="m224.273 48.006c-.005-.116-.01-.266-.016-.449"/><path d="m224.257 47.558-.074.138"/><path d="m223.084 47.696-.073-.138"/><path d="m222.922 47.423c.015.562.03.86.044.882"/><path d="m222.995 48.006c.005-.107.01-.241.014-.403"/><path d="m223.011 47.156v-.189"/><path d="m225.49 41.838h-3.713"/><path d="m295.252 40.247h-75.597"/><path d="m219.655 32.289h75.597"/><path d="m295.252 40.247v-7.958"/><path d="m219.655 32.289v7.958"/><path d="m211.697 36.268h-92.839"/><path d="m118.858 28.31h92.839"/><path d="m219.655 28.31h75.597"/><path d="m402.911 41.838-.107.923-.192 1.548-.147 1.024-.236 1.294-.121.535-.029.141-.012.099"/><path d="m400.642 47.413c-.001-.023-.009-.084-.009-.084l-.035-.18-.125-.552-.157-.815-.136-.871-.197-1.499-.095-.794-.09-.779"/><path d="m400.685 48.302c.022.053.046.101.046.101.027.044.09.128.09.128l.071.071.078.059.085.047.091.035.095.022.097.009.096-.004.189-.048.132-.071.087-.07c.057-.061.095-.111.095-.111l.047-.078c.021-.044.039-.088.039-.088"/><path d="m399.498 40.247v1.591"/><path d="m403.211 41.838v-1.591"/><path d="m402.037 41.838c.003 1.142.006 2.173.01 3.014.003.841.006 1.492.01 1.922.003.43.006.64.01.649"/><path d="m402.066 47.423v-.505-.168"/><path d="m400.671 41.838c-.003 1.142-.006 2.173-.01 3.014-.003.841-.006 1.492-.01 1.922-.003.43-.006.64-.01.649"/><path d="m400.642 47.423c.021.055.05.108.084.157.035.049.075.093.121.133s.097.073.151.101.113.049.172.063"/><path d="m401.171 47.876c.06.014.121.022.183.022s.123-.007.183-.022c.12-.029.232-.085.324-.164.046-.039.086-.084.121-.133s.063-.101.084-.157"/><path d="m400.642 46.732v.186.505"/><path d="m400.715 47.08c-.004.075-.008.132-.012.171"/><path d="m400.675 47.224c-.005-.061-.01-.151-.015-.271"/><path d="m402.049 46.952c-.006.144-.012.246-.018.305"/><path d="m402.008 47.278c-.005-.037-.01-.102-.015-.194"/><path d="m401.977 46.972v.232"/><path d="m401.977 47.356v.202"/><path d="m402.066 47.423c-.015.562-.03.86-.044.882-.007.01-.013-.036-.02-.138"/><path d="m401.993 48.006c-.005-.116-.01-.266-.016-.449"/><path d="m401.977 47.558-.073.138"/><path d="m400.805 47.696-.074-.138"/><path d="m400.642 47.423c.015.562.03.86.044.882"/><path d="m400.715 48.006c.005-.107.01-.241.014-.403"/><path d="m400.731 47.156v-.189"/><path d="m403.211 41.838h-3.713"/><path d="m533.982 40.247h-136.607"/><path d="m397.375 32.289h136.607"/><path d="m533.982 40.247v-7.958"/><path d="m397.375 32.289v7.958"/><path d="m397.375 28.31h136.607"/></g></g><g clip-rule="evenodd" fill="#5d5790" fill-rule="evenodd"><path d="m306.526 40.512v1.061 11.666h79.576v-24.929h5.626 1.006v-23.873h-92.84v23.873h6.632z"/><path d="m2.993 28.31v14.471l-2.506-1.208v954.086h27.521v.831h27.852v-13.263-2.653h10.61v-5.305h-1.326v-5.305h-37.136v-435.013-479.12h79.577v-27.521h6.631v-23.873h-111.223z"/><path d="m70.449 836.011h-5.305v116.589 17.364h5.305z"/><path d="m617.9 53.239h4.699v-24.929h-7.778l5.185-23.873h-81.383v23.873h6.632v26.225l46.419.786v479.629h-136.606v1.326h-7.957v.899 3.08h1.326v5.305h143.237v380.636h-253.318v-380.635h17.241v-5.305h1.326v-3.979h-7.957v-1.326h-15.916-5.305v342.466 1.035 91.513h-128.647v5.305h-1.326v5.305h10.61v2.652 13.263h124.67 3.585 255.039 26.524l-.001-64.987h-.299v-391.247zm-26.225 916.725h-253.319v-33.157h4.64 248.678v33.157zm13.262-921.836v-6.555l.883 6.109z"/><path d="m355.598 545.561h5.305v92.839h-5.305z"/></g><g fill="none" stroke="#43456f" stroke-miterlimit="10" stroke-width="1.4311"><path d="m28.008 996.49v-238.73"/><path d="m1.483.142v996.348"/><path d="m1.483 996.49h26.525"/><path d="m545.255 28.31v26.526"/><path d="m545.255 54.836h77.344"/><path d="m618.2 996.49v-26.53"/><path d="m618.2 936.804v-931.477"/><path d="m591.675 757.76v238.73"/><path d="m591.675 996.49h26.525"/><path d="m306.526 54.836h79.576"/><path d="m386.102 54.836v-26.526"/><path d="m306.526 28.31v26.526"/><path d="m2.993 54.836h104.592"/><path d="m107.585 54.836v-26.526"/><path d="m114.216 28.31v-23.873"/><path d="m392.734 28.31v-23.873"/><path d="m299.894 4.437v23.873"/><path d="m538.624 4.437v23.873"/><path d="m114.216 4.437h-111.223"/><path d="m392.734 4.437h-92.84"/><path d="m620.007 4.437h-81.383"/><path d="m.401 4.437h581.933"/><path d="m299.894 4.437h92.84"/><path d="m538.624 4.437h78.79"/><path d="m306.526 54.836h-198.941"/><path d="m545.255 54.836h-159.153"/><path d="m591.675 53.852v703.908"/><path d="m327.746 534.951v435.013"/><path d="m338.356 926.197v-380.636"/><path d="m591.676 534.951h-136.608"/><path d="m455.068 534.951v1.326"/><path d="m455.068 545.561h136.608"/><path d="m591.676 545.561v-10.61"/><path d="m348.967 534.951h-21.221"/><path d="m327.746 545.561h21.221"/><path d="m348.967 536.277v-1.326"/><path d="m338.356 936.807h4.644"/><path d="m528.678 936.807h13.263"/><path d="m588.36 936.807h3.316"/><path d="m591.676 936.807v-10.61"/><path d="m618.2 926.197v10.607"/><path d="m338.356 969.964v-33.157"/><path d="m591.676 926.197h-263.93"/><path d="m327.746 969.964h10.61"/><path d="m28.008 757.76v-702.924"/><path d="m28.008 54.836h-26.525"/><path d="m618.2 969.964v26.526"/><path d="m1.483 996.49v-10.61"/><path d="m28.008 996.49h27.852"/><path d="m55.86 996.49v-15.916"/><path d="m55.86 969.964h-27.852"/><path d="m28.008 969.964v26.526"/><path d="m208.382 996.49h383.293"/><path d="m591.675 996.49v-26.526"/><path d="m541.942 969.964h-203.586"/><path d="m591.675 969.964h-3.314"/><path d="m327.746 969.964h-119.364"/><path d="m208.382 980.574v15.916"/><path clip-rule="evenodd" d="m541.942 969.964 46.419-.001-.001-33.156-6.63 26.525z"/><path d="m588.36 936.806-46.419.001"/><path d="m541.941 936.807.001 33.157"/><path d="m541.942 969.964 46.419-.001"/><path d="m588.361 969.963-.001-33.157"/><path clip-rule="evenodd" d="m422.577 969.968 106.101-.004-95.049-11.049-11.053-22.104.001 33.153z"/><path d="m528.679 969.964-.001-33.157"/><path d="m528.678 936.807-106.102.004"/><path d="m422.576 936.811.001 33.157"/><path d="m422.577 969.968 106.102-.004"/><path clip-rule="evenodd" d="m343.001 969.97 79.555-.006-68.503-11.047-11.053-22.104.001 33.155z"/><path d="m422.577 969.968-.001-33.157"/><path d="m422.576 936.811-79.576.002"/><path d="m343 936.813.001 33.157"/><path d="m343.001 969.97 79.576-.002"/><path d="m618.199 969.96.001-33.156"/><path d="m360.903 545.561h-5.305"/><path d="m355.598 545.561v92.839"/><path d="m355.598 638.4h5.305"/><path d="m360.903 638.4v-92.839"/><path d="m351.619 536.277v9.284"/><path d="m351.619 545.561h3.979"/><path d="m355.598 545.561v-5.305"/><path d="m355.598 540.256h1.326"/><path d="m356.924 540.256v-3.979"/><path d="m356.924 536.277h-5.305"/><path d="m452.416 536.277h-5.305"/><path d="m447.111 536.277v3.979"/><path d="m447.111 540.256h1.326"/><path d="m448.437 540.256v5.305"/><path d="m448.437 545.561h3.979"/><path d="m452.416 545.561v-9.284"/><path d="m351.619 536.277h-2.652"/><path d="m348.967 536.277v9.284"/><path d="m348.967 545.561h2.652"/><path d="m351.619 545.561v-9.284"/><path d="m452.416 536.277v9.284"/><path d="m452.416 545.561h2.652"/><path d="m455.068 545.561v-9.284"/><path d="m455.068 536.277h-2.652"/><path d="m355.598 638.4c51.274 0 92.839-41.565 92.839-92.839"/><path d="m70.449 836.011v133.953"/><path d="m65.144 836.011h5.305"/><path d="m65.144 969.964v-133.953"/><path d="m70.449 969.964h-5.305"/><path d="m66.47 980.574h-7.957"/><path d="m66.47 975.269v5.305"/><path d="m65.144 975.269h1.326"/><path d="m65.144 969.964v5.305"/><path d="m58.513 969.964h6.631"/><path d="m58.513 980.574v-10.61"/><path d="m205.729 969.964v10.61"/><path d="m199.098 969.964h6.631"/><path d="m199.098 975.269v-5.305"/><path d="m197.771 975.269h1.327"/><path d="m197.771 980.574v-5.305"/><path d="m205.729 980.574h-7.958"/><path d="m58.513 969.964v10.61"/><path d="m55.86 969.964h2.653"/><path d="m55.86 980.574v-10.61"/><path d="m58.513 980.574h-2.653"/><path d="m208.382 980.574h-2.653"/><path d="m208.382 969.964v10.61"/><path d="m205.729 969.964h2.653"/><path d="m205.729 980.574v-10.61"/><path d="m199.098 969.964c0-73.981-59.973-133.954-133.954-133.954"/><path d="m58.513 996.49h-2.653"/><path d="m51.218 996.49v2.652"/><path d="m51.218 999.142h9.947"/><path d="m61.165 999.142v-18.568"/><path d="m58.513 980.574v15.916"/><path d="m208.382 996.49h-2.653"/><path d="m205.729 996.49v-15.916"/><path d="m203.076 980.574v18.568"/><path d="m203.076 999.142h9.947"/><path d="m213.023 999.142v-2.652"/><path d="m211.697 967.312v2.652"/><path d="m213.023 969.964v-5.305"/><path d="m213.023 964.659h-9.947"/><path d="m203.076 964.659v5.305"/><path d="m205.729 969.964v-2.652"/><path d="m205.729 967.312h5.968"/><path d="m52.544 967.312h5.969"/><path d="m58.513 967.312v2.652"/><path d="m61.165 969.964v-5.305"/><path d="m61.165 964.659h-9.947"/><path d="m51.218 964.659v5.305"/><path d="m52.544 969.964v-2.652"/><g stroke-dasharray="11.4484 11.4484"><path d="m327.741 534.951h-136.009"/><path d="m244.849 878.451h-57.688"/><path d="m187.161 878.451v-332.89"/></g></g><g fill="#43456f"><path d="m327.183 400.891h-.083l-5.175 2.735-1.044-5.286 7.179-3.71h5.258v30.142h-6.135z"/><path d="m360.364 400.427h-10.517l-.585 4.637c.585-.093 1.085-.093 1.753-.093 2.588 0 5.217.649 7.137 2.18 2.045 1.53 3.297 4.034 3.297 7.559 0 5.611-4.341 10.572-11.644 10.572-3.297 0-6.052-.834-7.554-1.716l1.127-5.286c1.21.649 3.672 1.484 6.135 1.484 2.629 0 5.425-1.392 5.425-4.591 0-3.107-2.212-5.009-7.637-5.009-1.503 0-2.546.093-3.673.278l1.795-15.813h14.94v5.798z"/><path d="m363.747 430.291c1.294-4.127 2.421-8.95 3.005-13.17l6.469-.464c-1.377 4.73-3.255 9.6-5.258 13.216z"/><path d="m387.494 424.772v-7.188h-12.019v-4.591l10.267-18.363h7.762v17.668h3.255v5.286h-3.255v7.188zm0-12.473v-6.678c0-1.809.084-3.663.209-5.611h-.167c-.876 1.948-1.586 3.71-2.504 5.611l-3.631 6.585v.093z"/><path d="m96.875 760.132v-7.188h-12.018v-4.591l10.267-18.363h7.762v17.668h3.255v5.286h-3.255v7.188zm0-12.474v-6.678c0-1.809.084-3.663.209-5.611h-.167c-.876 1.948-1.586 3.71-2.504 5.611l-3.631 6.585v.093z"/><path d="m107.145 765.65c1.294-4.127 2.421-8.95 3.005-13.17l6.469-.464c-1.377 4.73-3.255 9.6-5.258 13.216z"/><path d="m139.113 729.99v4.452l-11.185 25.689h-6.719l11.185-24.252v-.093h-12.437v-5.797h19.156z"/><path d="m429.113 763.439h-10.518l-.584 4.637c.584-.093 1.085-.093 1.753-.093 2.588 0 5.217.649 7.137 2.18 2.045 1.53 3.297 4.034 3.297 7.559 0 5.611-4.341 10.572-11.644 10.572-3.297 0-6.052-.834-7.554-1.716l1.127-5.286c1.21.649 3.672 1.484 6.135 1.484 2.629 0 5.425-1.392 5.425-4.591 0-3.107-2.212-5.009-7.637-5.009-1.503 0-2.546.093-3.673.278l1.795-15.813h14.94v5.798z"/><path d="m432.496 793.302c1.294-4.127 2.421-8.95 3.005-13.17l6.469-.464c-1.377 4.73-3.255 9.6-5.258 13.216z"/><path d="m463.13 763.439h-10.517l-.585 4.637c.585-.093 1.085-.093 1.753-.093 2.588 0 5.217.649 7.137 2.18 2.045 1.53 3.297 4.034 3.297 7.559 0 5.611-4.341 10.572-11.644 10.572-3.297 0-6.052-.834-7.554-1.716l1.127-5.286c1.21.649 3.672 1.484 6.135 1.484 2.629 0 5.425-1.392 5.425-4.591 0-3.107-2.212-5.009-7.637-5.009-1.503 0-2.546.093-3.673.278l1.795-15.813h14.94v5.798z"/><path d="m44.257 685.743v9.737h.876l7.596-9.737h4.465l-8.806 10.155c3.255.371 5.217 2.782 6.803 6.816.542 1.483 1.252 3.663 2.17 5.472h-3.839c-.543-.974-1.253-2.736-1.879-4.591-1.377-3.617-3.255-5.286-6.677-5.286h-.709v9.877h-3.631v-22.443z"/><path d="m78.648 696.779c0 8.301-5.175 11.917-10.058 11.917-5.467 0-9.682-4.451-9.682-11.546 0-7.513 4.424-11.918 10.016-11.918 5.801 0 9.724 4.684 9.724 11.547zm-16.026.231c0 4.916 2.546 8.625 6.135 8.625 3.506 0 6.135-3.663 6.135-8.718 0-3.802-1.711-8.625-6.051-8.625-4.341.001-6.219 4.453-6.219 8.718z"/><path d="m83.284 693.069c0-2.875-.084-5.193-.167-7.326h3.297l.167 3.849h.083c1.503-2.736 3.881-4.359 7.178-4.359 4.883 0 8.556 4.591 8.556 11.407 0 8.069-4.424 12.057-9.182 12.057-2.671 0-5.008-1.298-6.218-3.523h-.084v12.195h-3.63zm3.63 5.982c0 .603.084 1.159.167 1.669.668 2.829 2.88 4.776 5.509 4.776 3.882 0 6.135-3.524 6.135-8.672 0-4.498-2.128-8.347-6.009-8.347-2.504 0-4.842 1.994-5.551 5.055-.125.51-.251 1.113-.251 1.669z"/><path d="m110.413 685.743v9.459c0 3.571-.042 5.797-.209 8.996l.126.047c1.21-2.736 1.919-4.313 3.255-6.909l6.302-11.593h4.298v22.443h-3.505v-9.506c0-3.664.083-5.564.25-9.182h-.125c-1.294 2.875-2.17 4.684-3.339 6.955-1.92 3.479-4.132 7.791-6.302 11.732h-4.215v-22.443h3.464z"/><path d="m145.805 685.743v19.383l2.087.047-.209 10.155h-2.88l-.167-7.142h-13.98l-.167 7.142h-2.879l-.167-10.155 1.711-.047c.876-1.438 1.544-2.968 2.003-4.591.793-2.782 1.169-5.796 1.169-8.949v-5.843zm-10.225 6.816c0 2.968-.376 5.843-1.043 8.347-.418 1.53-1.002 2.921-1.628 4.174h9.307v-16.23h-6.636z"/><path d="m170.389 696.779c0 8.301-5.175 11.917-10.058 11.917-5.467 0-9.682-4.451-9.682-11.546 0-7.513 4.424-11.918 10.016-11.918 5.801 0 9.724 4.684 9.724 11.547zm-16.026.231c0 4.916 2.546 8.625 6.135 8.625 3.506 0 6.135-3.663 6.135-8.718 0-3.802-1.711-8.625-6.051-8.625-4.341.001-6.219 4.453-6.219 8.718z"/><path d="m175.025 693.069c0-2.875-.084-5.193-.167-7.326h3.297l.167 3.849h.083c1.503-2.736 3.881-4.359 7.178-4.359 4.883 0 8.556 4.591 8.556 11.407 0 8.069-4.424 12.057-9.182 12.057-2.671 0-5.008-1.298-6.218-3.523h-.083v12.195h-3.631zm3.631 5.982c0 .603.083 1.159.166 1.669.668 2.829 2.88 4.776 5.509 4.776 3.882 0 6.135-3.524 6.135-8.672 0-4.498-2.128-8.347-6.009-8.347-2.504 0-4.842 1.994-5.551 5.055-.125.51-.25 1.113-.25 1.669z"/><path d="m295.418 349.692v3.292h-8.764v19.151h-3.631v-22.443z"/><path d="m316.621 360.728c0 8.301-5.175 11.917-10.058 11.917-5.467 0-9.682-4.451-9.682-11.546 0-7.513 4.424-11.918 10.016-11.918 5.801 0 9.724 4.684 9.724 11.547zm-16.025.232c0 4.916 2.546 8.625 6.135 8.625 3.506 0 6.135-3.663 6.135-8.718 0-3.802-1.711-8.625-6.051-8.625-4.341 0-6.219 4.452-6.219 8.718z"/><path d="m335.654 371.3c-.96.557-3.088 1.299-5.801 1.299-6.093 0-10.058-4.591-10.058-11.454 0-6.909 4.257-11.917 10.851-11.917 2.17 0 4.09.603 5.091 1.159l-.834 3.153c-.877-.557-2.254-1.066-4.257-1.066-4.633 0-7.137 3.802-7.137 8.485 0 5.194 3.005 8.394 7.012 8.394 2.086 0 3.464-.603 4.507-1.113z"/><path d="m354.271 349.692v3.245h-6.302v19.198h-3.631v-19.198h-6.302v-3.245z"/><path d="m360.866 349.692v9.459c0 3.571-.042 5.797-.209 8.996l.126.047c1.21-2.736 1.919-4.313 3.255-6.909l6.302-11.593h4.298v22.443h-3.505v-9.506c0-3.664.083-5.564.25-9.182h-.125c-1.294 2.875-2.17 4.684-3.339 6.955-1.92 3.479-4.132 7.791-6.302 11.732h-4.215v-22.443h3.464z"/><path d="m384.156 349.692v9.042h9.599v-9.042h3.631v22.443h-3.631v-10.155h-9.599v10.155h-3.631v-22.443z"/><path d="m414.582 372.135-.292-2.829h-.125c-1.127 1.763-3.297 3.339-6.177 3.339-4.09 0-6.176-3.199-6.176-6.445 0-5.426 4.34-8.394 12.144-8.347v-.464c0-1.854-.459-5.193-4.59-5.193-1.878 0-3.84.648-5.259 1.669l-.835-2.689c1.67-1.206 4.09-1.994 6.636-1.994 6.177 0 7.679 4.684 7.679 9.182v8.394c0 1.947.084 3.849.334 5.379h-3.339zm-.542-11.454c-4.007-.093-8.556.696-8.556 5.055 0 2.644 1.586 3.896 3.464 3.896 2.63 0 4.299-1.855 4.883-3.756.125-.418.209-.882.209-1.299z"/><path d="m438.54 372.135h-3.631v-9.413h-2.713c-1.544 0-2.587.464-3.38 1.252-1.503 1.345-2.045 4.127-2.838 6.307-.251.695-.543 1.298-.835 1.854h-3.923c.459-.742.877-1.576 1.252-2.551.877-2.179 1.377-5.101 3.172-6.77.626-.604 1.377-1.113 2.295-1.299v-.139c-2.629-.325-5.342-2.134-5.342-5.564 0-2.319 1.127-3.896 2.671-4.869 1.67-1.066 4.132-1.53 6.761-1.53 2.421 0 4.758.231 6.511.464zm-3.631-19.753c-.918-.14-1.753-.232-3.047-.232-2.504 0-5.467.788-5.467 3.896 0 2.875 3.214 3.896 5.384 3.896h3.13z"/><path d="m233.533 614.847h-4.267l-3.523-3.506c-5.89-5.926-9.274-8.805-12.799-8.889-2.458 0-4.405 1.336-4.405 4.466 0 2.337 1.298 4.382 2.504 5.801l-5.055 1.794c-1.716-2.045-3.106-5.217-3.106-8.889 0-6.135 3.987-9.516 9.46-9.516 5.054 0 9.089 3.297 12.983 7.22l2.318 2.505h.093v-10.225h5.797z"/><path d="m239.052 593.352c-4.127-1.294-8.95-2.421-13.17-3.005l-.464-6.469c4.73 1.377 9.6 3.255 13.216 5.258z"/><path d="m203.392 561.383h4.452l25.689 11.185v6.719l-24.252-11.185h-.093v12.437h-5.797v-19.156z"/><path d="m211.676 838.454h9.737v-.876l-9.737-7.596v-4.465l10.155 8.806c.371-3.255 2.782-5.217 6.816-6.803 1.483-.542 3.663-1.252 5.472-2.17v3.839c-.974.543-2.736 1.253-4.591 1.879-3.617 1.377-5.286 3.255-5.286 6.677v.709h9.877v3.631h-22.443z"/><path d="m211.676 820.466 13.262-4.424c1.484-.459 3.246-.96 4.591-1.294v-.083c-1.345-.376-3.061-.793-4.684-1.294l-13.169-4.006v-3.882l15.998 5.509c7.697 2.629 11.639 4.424 14.05 6.928 1.763 1.795 2.458 3.589 2.644 4.507l-3.432.919c-.324-.919-.974-2.129-1.994-3.214-.881-1.002-2.457-2.254-4.544-3.088-.417-.167-.742-.292-.974-.292s-.557.083-1.066.25l-20.682 7.47z"/><path d="m211.676 800.263 4.822-2.879c1.252-.752 2.411-1.378 3.663-2.045v-.126c-1.345-.667-2.504-1.335-3.71-2.003l-4.775-2.838v-3.965l10.851 6.887 11.593-7.095v4.173l-5.055 2.963c-1.298.793-2.55 1.461-3.895 2.171v.083c1.345.668 2.55 1.377 3.895 2.128l5.055 2.922v4.048l-11.454-7.178-10.989 6.844v-4.09z"/><path d="m211.676 779.102h9.042v-9.599h-9.042v-3.631h22.443v3.631h-10.155v9.599h10.155v3.631h-22.443z"/><path d="m234.119 744.963v3.631h-9.413v2.713c0 1.544.464 2.587 1.252 3.38 1.345 1.503 4.127 2.045 6.307 2.838.695.251 1.298.543 1.854.835v3.923c-.742-.459-1.576-.877-2.551-1.252-2.179-.877-5.101-1.377-6.77-3.172-.604-.626-1.113-1.377-1.299-2.295h-.139c-.325 2.629-2.134 5.342-5.564 5.342-2.319 0-3.896-1.127-4.869-2.671-1.066-1.67-1.53-4.132-1.53-6.761 0-2.421.231-4.758.464-6.511zm-19.754 3.63c-.14.918-.232 1.753-.232 3.047 0 2.504.788 5.467 3.896 5.467 2.875 0 3.896-3.214 3.896-5.384 0-1.502 0-2.295 0-3.13z"/><path d="m220.068 730.479h3.015v10.308h-3.015z"/><path d="m211.676 722.632h9.042v-9.599h-9.042v-3.631h22.443v3.631h-10.155v9.599h10.155v3.631h-22.443z"/><path d="m211.676 700.008h9.459c3.571 0 5.797.042 8.996.209l.047-.126c-2.736-1.21-4.313-1.919-6.909-3.255l-11.593-6.302v-4.298h22.443v3.505h-9.506c-3.664 0-5.564-.083-9.182-.25v.125c2.875 1.294 4.684 2.17 6.955 3.339 3.479 1.92 7.791 4.131 11.732 6.302v4.215h-22.443v-3.464z"/><path d="m211.676 676.761h19.244v-7.053h-19.244v-3.59h19.244v-7.053h-19.244v-3.631h22.443v24.915h-22.443z"/><path d="m234.119 638.279-2.829.292v.125c1.763 1.127 3.339 3.297 3.339 6.177 0 4.09-3.199 6.176-6.445 6.176-5.426 0-8.394-4.34-8.347-12.144h-.464c-1.854 0-5.193.459-5.193 4.59 0 1.878.648 3.84 1.669 5.259l-2.689.835c-1.206-1.67-1.994-4.09-1.994-6.636 0-6.177 4.684-7.679 9.182-7.679h8.394c1.947 0 3.849-.084 5.379-.334v3.339zm-11.454.542c-.093 4.007.696 8.556 5.055 8.556 2.644 0 3.896-1.586 3.896-3.464 0-2.63-1.855-4.299-3.756-4.883-.418-.125-.882-.209-1.299-.209z"/><path d="m431.599 727.281c-.96.557-3.088 1.299-5.801 1.299-6.093 0-10.058-4.591-10.058-11.454 0-6.909 4.257-11.917 10.851-11.917 2.17 0 4.09.603 5.091 1.159l-.834 3.153c-.877-.557-2.254-1.066-4.257-1.066-4.633 0-7.137 3.802-7.137 8.485 0 5.194 3.005 8.394 7.012 8.394 2.086 0 3.464-.603 4.507-1.113z"/><path d="m432.812 729.97 11.644-33.619h2.838l-11.686 33.619z"/><path d="m451.551 705.673 4.424 13.262c.459 1.484.96 3.246 1.294 4.591h.083c.376-1.345.793-3.061 1.294-4.684l4.006-13.169h3.882l-5.509 15.998c-2.629 7.697-4.424 11.639-6.928 14.05-1.795 1.763-3.589 2.458-4.507 2.644l-.919-3.432c.919-.324 2.129-.974 3.214-1.994 1.002-.881 2.254-2.457 3.088-4.544.167-.417.292-.742.292-.974s-.083-.557-.25-1.066l-7.47-20.682z"/></g></svg>