<svg enable-background="new 0 0 702 1000" viewBox="0 0 702 1000" xmlns="http://www.w3.org/2000/svg"><path d="m32.455 23.294v919.818l640.334-7.076v-919.817c.001 0-629.721 7.075-640.334 7.075z" fill="#fff"/><g fill="none" stroke-miterlimit="10"><g stroke="#414242" stroke-linecap="round" stroke-linejoin="round" stroke-width=".8388"><path d="m202.268 510.06h-92.174v275.621h-22.106"/><path d="m85.664 701.71c5.712 0 10.343-4.631 10.343-10.343s-4.631-10.343-10.343-10.343"/><path d="m85.664 681.024c-5.712 0-10.343 4.631-10.343 10.343s4.631 10.343 10.343 10.343"/><path d="m85.664 746.898c7.617 0 13.791-6.174 13.791-13.791s-6.174-13.791-13.791-13.791"/><path d="m85.664 719.316c-7.617 0-13.791 6.174-13.791 13.791s6.174 13.791 13.791 13.791"/><path d="m52.272 705.158c7.617 0 13.791-6.174 13.791-13.791s-6.174-13.791-13.791-13.791"/><path d="m52.272 677.576c-7.617 0-13.791 6.174-13.791 13.791s6.174 13.791 13.791 13.791"/><path d="m52.272 743.503c5.742 0 10.396-4.655 10.396-10.396s-4.655-10.396-10.396-10.396"/><path d="m52.272 722.71c-5.742 0-10.396 4.655-10.396 10.396s4.655 10.396 10.396 10.396"/><path d="m35.034 670.497h67.869"/><path d="m102.903 670.497v83.48"/><path d="m102.903 753.977h-67.869"/><path d="m35.034 753.977v-83.48"/><path d="m29.862 759.148h78.213"/><path d="m108.075 759.148v-93.823"/><path d="m108.075 665.325h-78.213"/><path d="m29.862 665.325v93.823"/><path d="m700.488 325.72.002 66.373"/><path d="m699.13 170.882.002 54.208"/><path d="m701.166 157.264h-2.036"/><path d="m701.168 238.708h-2.036"/><path d="m699.133 259.069-.004-122.166"/><path d="m278.339 306.577h-244.33"/><path d="m34.009 306.577v108.591"/><path d="m34.009 415.168h244.33"/><path d="m278.339 415.168v-108.591"/><path d="m227.654 404.988c22.37 0 40.505-18.135 40.505-40.505"/><path d="m44.352 391.196c0 7.617 6.174 13.791 13.791 13.791"/><path d="m227.654 404.988h-169.511"/><path d="m54.696 360.872c0 1.904 1.544 3.448 3.448 3.448s3.448-1.544 3.448-3.448"/><path d="m61.591 360.872c0-1.904-1.544-3.448-3.448-3.448s-3.448 1.544-3.448 3.448"/><path d="m268.159 357.262c0-22.37-18.135-40.505-40.505-40.505"/><path d="m58.143 316.757c-7.617 0-13.791 6.174-13.791 13.791"/><path d="m268.159 364.483v-7.221"/><path d="m227.654 316.757h-169.511"/><path d="m44.352 330.548v60.648"/><path d="m34.009 301.147h49.015"/><path d="m28.579 301.147h5.43"/><path d="m83.024 301.147h200.066"/><path d="m83.024 301.147c6.665 0 12.067-5.403 12.067-12.067"/><path d="m95.092 289.08v-57.927"/><path d="m95.092 231.153c0-6.323-5.126-11.45-11.45-11.45"/><path d="m83.642 219.704h-49.633"/><path d="m34.009 219.704v81.443"/><path d="m34.009 301.147h49.015"/><path d="m39.181 258.701v-8.619"/><path d="m34.009 250.082v22.411"/><path d="m34.009 272.493c0 1.428 1.158 2.586 2.586 2.586s2.586-1.158 2.586-2.586"/><path d="m39.181 250.082c0-1.428-1.158-2.586-2.586-2.586s-2.586 1.158-2.586 2.586"/><path d="m39.181 272.493v-10.344"/><path d="m36.595 271.631c1.428 0 2.586-1.158 2.586-2.586s-1.158-2.586-2.586-2.586"/><path d="m36.595 266.459c-1.428 0-2.586 1.158-2.586 2.586s1.158 2.586 2.586 2.586"/><path d="m36.595 256.116c1.428 0 2.586-1.158 2.586-2.586s-1.158-2.586-2.586-2.586"/><path d="m36.595 250.944c-1.428 0-2.586 1.158-2.586 2.586s1.158 2.586 2.586 2.586"/><path d="m34.009 234.496v51.859"/><path d="m55.266 224.875c-4.76 0-8.619 3.859-8.619 8.619"/><path d="m95.092 231.153c0-6.323-5.126-11.45-11.45-11.45"/><path d="m83.024 301.147c6.665 0 12.067-5.403 12.067-12.067"/><path d="m46.646 262.149v25.207"/><path d="m52.979 262.149c.952 0 1.724-.772 1.724-1.724s-.772-1.724-1.724-1.724"/><path d="m36.642 258.701h16.337"/><path d="m36.642 262.149h16.337"/><path d="m36.642 258.701c-.952 0-1.724.772-1.724 1.724s.772 1.724 1.724 1.724"/><path d="m46.646 287.356c0 4.76 3.859 8.619 8.619 8.619"/><path d="m81.3 295.975c4.76 0 8.619-3.859 8.619-8.619"/><path d="m89.92 233.495c0-4.76-3.859-8.619-8.619-8.619"/><path d="m46.646 233.495v25.206"/><path d="m81.3 224.875h-26.034"/><path d="m89.92 287.356v-53.861"/><path d="m55.266 295.975h26.034"/><path d="m58.031 263.873c1.904 0 3.448-1.544 3.448-3.448s-1.544-3.448-3.448-3.448"/><path d="m58.031 256.978c-1.904 0-3.448 1.544-3.448 3.448s1.544 3.448 3.448 3.448"/><path d="m48.801 301.147h34.223"/><path d="m95.092 289.08v-57.927"/><path d="m83.642 219.704h-34.841"/><path d="m83.024 301.147h79.937"/><path d="m162.961 306.577h-134.382"/><path d="m34.009 306.577v-92.303"/><path d="m34.009 180.295v-54.207"/><path d="m52.168 180.295h-18.159"/><path d="m52.168 180.295c5.591 0 10.124-4.532 10.124-10.124"/><path d="m62.292 167.432v2.74"/><path d="m65.863 167.842-3.571-.41"/><path d="m72.534 175.792-6.671-7.95"/><path d="m76.065 177.794-3.531-2.002"/><path d="m79.595 178.74-3.53-.946"/><path d="m83.14 179.365-3.545-.625"/><path d="m86.657 179.672-3.517-.307"/><path d="m93.692 179.057-7.035.615"/><path d="m100.78 177.158-7.088 1.899"/><path d="m107.842 174.587-7.062 2.571"/><path d="m114.903 171.294-7.061 3.293"/><path d="m121.965 166.396-7.062 4.898"/><path d="m125.496 162.865-3.531 3.531"/><path d="m127.261 159.807-1.765 3.058"/><path d="m129.026 154.957-1.765 4.85"/><path d="m129.026 151.426v3.531"/><path d="m127.261 146.576 1.765 4.85"/><path d="m125.496 143.518 1.765 3.058"/><path d="m121.965 139.987 3.531 3.531"/><path d="m114.903 135.088 7.062 4.899"/><path d="m107.842 131.796 7.061 3.292"/><path d="m100.78 129.225 7.062 2.571"/><path d="m93.692 127.326 7.088 1.899"/><path d="m86.657 126.711 7.035.615"/><path d="m83.14 127.018 3.517-.307"/><path d="m79.595 127.643 3.545-.625"/><path d="m76.065 128.589 3.53-.946"/><path d="m72.534 130.59 3.531-2.001"/><path d="m65.863 138.541 6.671-7.951"/><path d="m62.292 138.951 3.571-.41"/><path d="m62.292 136.211v2.74"/><path d="m62.292 136.211c0-5.591-4.532-10.124-10.124-10.124"/><path d="m34.009 126.088h18.159"/><path d="m36.045 193.913h-2.036"/><path d="m36.045 112.47h-2.036"/><path d="m62.292 138.951v28.481"/><path d="m34.009 219.704h49.633"/><path d="m28.579 219.704h5.43"/><path d="m34.009 92.109v122.165"/><path d="m293.949 86.679h.679"/><path d="m207.755 173.552v-72.5"/><path d="m207.755 101.052v-4.418"/><path d="m207.755 96.634v-4.525"/><path d="m207.755 92.109v81.443"/><path d="m207.755 173.552h75.335"/><path d="m283.09 173.552h-75.335"/><path d="m283.09 101.052h-75.335"/><path d="m283.09 96.634h-75.335"/><path d="m283.09 92.109h-75.335"/><path d="m283.09 92.109h-75.335"/><path d="m71.058 579.785c1.904 0 3.448-1.544 3.448-3.448s-1.544-3.448-3.448-3.448"/><path d="m71.058 572.889c-1.904 0-3.448 1.544-3.448 3.448s1.544 3.448 3.448 3.448"/><path d="m42.187 566.211c1.904 0 3.448-1.544 3.448-3.448s-1.544-3.448-3.448-3.448"/><path d="m42.187 559.315c-1.904 0-3.448 1.544-3.448 3.448s1.544 3.448 3.448 3.448"/><path d="m42.187 593.359c1.904 0 3.448-1.544 3.448-3.448s-1.544-3.448-3.448-3.448"/><path d="m42.187 586.463c-1.904 0-3.448 1.544-3.448 3.448s1.544 3.448 3.448 3.448"/><path d="m63.844 574.613h-21.657"/><path d="m63.844 578.061c.952 0 1.724-.772 1.724-1.724s-.772-1.724-1.724-1.724"/><path d="m42.187 578.061h21.657"/><path d="m42.187 574.613c-.952 0-1.724.772-1.724 1.724s.772 1.724 1.724 1.724"/><path d="m49.945 536.823v37.79"/><path d="m56.84 529.928c-3.808 0-6.896 3.087-6.896 6.896"/><path d="m94.983 529.928h-38.143"/><path d="m101.879 536.823c0-3.808-3.087-6.896-6.896-6.896"/><path d="m101.879 615.851v-79.028"/><path d="m94.983 622.746c3.808 0 6.896-3.087 6.896-6.896"/><path d="m56.84 622.746h38.143"/><path d="m49.945 615.851c0 3.808 3.087 6.896 6.896 6.896"/><path d="m49.945 578.061v37.79"/><path d="m34.43 524.756h72.62"/><path d="m107.05 524.756v103.162"/><path d="m107.05 627.918h-72.62"/><path d="m34.43 627.918v-103.162"/></g><g stroke="#4a4a4c" stroke-width=".5592"><path d="m290.421 429.348v83.895"/><path d="m290.421 513.243h-83.895"/><path d="m290.421 505.189h-83.895"/><path d="m290.421 513.243v-83.895"/><path d="m290.421 429.348h-83.895"/><path d="m290.421 513.243h-83.895v-84.537"/></g></g><path d="m241.076 478.423 6.298-8.487-5.557-7.8h2.57l2.956 4.176c.61.868 1.05 1.536 1.312 2.003.363-.594.787-1.212 1.281-1.856l3.28-4.322h2.346l-5.719 7.676 6.159 8.61h-2.663l-4.099-5.808c-.232-.336-.471-.699-.71-1.092-.363.594-.625 1.003-.78 1.223l-4.091 5.677z" fill="#4a4a4c"/><g fill="none" stroke-miterlimit="10"><g stroke="#414242" stroke-width=".8388"><g stroke-linecap="round" stroke-linejoin="round"><path d="m671.659 355.844v-325.551"/><path d="m661.039 113.534-58.409-4.747"/><path d="m661.039 120.934h-58.409"/><path d="m602.63 133.575 58.409-7.626"/><path d="m661.039 143.441-58.409-4.747"/><path d="m661.039 150.841h-58.409"/><path d="m602.63 163.482 58.409-7.626"/><path d="m661.039 173.349-58.409-4.748"/><path d="m661.039 180.748h-58.409"/><path d="m602.63 193.39 58.409-7.627"/><path d="m661.039 203.256-58.409-4.748"/><path d="m661.039 210.656h-58.409"/><path d="m602.63 223.297 58.409-7.627"/><path d="m661.039 233.163-58.409-4.747"/><path d="m661.039 240.563h-58.409"/><path d="m602.63 253.204 58.409-7.626"/><path d="m661.039 263.07-58.409-4.747"/><path d="m661.039 270.47h-58.409"/><path d="m602.63 283.111 58.409-7.626"/><path d="m661.039 292.978-58.409-4.748"/><path d="m661.039 308.177-58.409-4.748"/><path d="m661.039 315.577h-58.409"/><path d="m602.63 328.218 58.409-7.627"/><path d="m661.039 338.084-58.409-4.747"/><path d="m631.834 355.844v-325.551"/><path d="m602.63 43.853 58.409-7.626"/><path d="m661.039 53.72-58.409-4.748"/><path d="m661.039 61.119h-58.409"/><path d="m602.63 73.761 58.409-7.627"/><path d="m661.039 83.627-58.409-4.748"/><path d="m661.039 91.027h-58.409"/><path d="m602.63 103.668 58.409-7.627"/><path d="m592.01 30.293h79.649v325.55h-79.649z"/><path d="m483.561 496.47h189.168v74.293h-189.168z"/><path d="m578.91 452.219c14.837-4.496 30.517-4.496 45.354 0"/><path d="m577.158 470.218c15.811-6.069 33.046-6.073 48.859-.01"/><path d="m626.265 452.862c2.005.645 3.414 2.607 3.507 4.886"/><path d="m624.264 452.219 2.001.643"/><path d="m629.772 457.748 1.575 38.722"/><path d="m573.403 457.748c.093-2.278 1.501-4.241 3.507-4.886"/><path d="m578.91 452.219-2.001.643"/><path d="m573.403 457.748-1.575 38.722"/><path d="m576.599 459.348c.065 0 .119.056.122.128"/><path d="m576.721 459.475 1.505 36.995"/><path d="m576.599 459.348h-2.931"/><path d="m626.453 459.475c.003-.071.057-.128.122-.128"/><path d="m626.453 459.475-1.504 36.995"/><path d="m626.576 459.348h3.388"/><path d="m551.651 452.219c-14.837-4.496-30.517-4.496-45.354 0"/><path d="m553.403 470.218c-15.811-6.069-33.046-6.073-48.859-.01"/><path d="m504.296 452.862c-2.005.645-3.414 2.607-3.507 4.886"/><path d="m506.297 452.219-2.001.643"/><path d="m500.789 457.748-1.575 38.722"/><path d="m557.158 457.748c-.093-2.278-1.501-4.241-3.507-4.886"/><path d="m551.651 452.219 2.001.643"/><path d="m557.158 457.748 1.575 38.722"/><path d="m553.962 459.348c-.065 0-.119.056-.122.128"/><path d="m553.84 459.475-1.505 36.995"/><path d="m553.962 459.348h2.931"/><path d="m504.108 459.475c-.003-.071-.057-.128-.122-.128"/><path d="m504.108 459.475 1.504 36.995"/><path d="m503.985 459.348h-3.388"/><path d="m409.227 754.495h75.693v108.133h-75.693z"/></g><path d="m385.326 755.61h228.186v109.671h-228.186z" transform="matrix(0 -1 1 0 -311.0273 1309.8643)"/><g stroke-linecap="round" stroke-linejoin="round"><path d="m552.506 675.154v268.814"/><path d="m552.506 943.968h120.966"/><path d="m673.472 943.968v-268.814"/><path d="m673.472 675.154h-120.966"/><path d="m552.506 923.807h120.966"/><path d="m552.506 695.622h120.966"/><path d="m653.311 695.315v228.492"/><path d="m552.506 809.561h100.805"/><path d="m35.954 934.785v-141.662"/><path d="m35.954 793.123h-4.309"/><path d="m31.645 793.123-4.31 35.416"/><path d="m27.335 828.539v70.831"/><path d="m27.335 899.37 4.31 35.415"/><path d="m31.645 934.785h4.309"/><path d="m34.23 802.568v9.444"/><path d="m34.23 812.012h-1.077"/><path d="m33.153 812.012v-9.444"/><path d="m33.153 802.568h1.077"/><path d="m34.23 814.373v9.444"/><path d="m34.23 823.817h-1.077"/><path d="m33.153 823.817v-9.444"/><path d="m33.153 814.373h1.077"/><path d="m34.23 826.178v4.722"/><path d="m34.23 830.9h-1.077"/><path d="m33.153 830.9v-4.722"/><path d="m33.153 826.178h1.077"/><path d="m31.645 934.785v-141.662"/><path d="m27.335 785.536h60.653v162.143h-60.653z"/></g></g><g stroke="#46a5de" stroke-width="1.3979"><path d="m454.122 974.408v-8.144"/><path d="m454.122 970.336h8.144"/><path d="m462.266 970.336v-8.144"/><path d="m462.266 962.192h-8.144"/><path d="m454.122 962.192v8.144"/><path d="m585.789 964.906h-123.523"/><path d="m462.266 967.621h123.523"/><path d="m593.933 970.336v-8.144"/><path d="m593.933 962.192h-8.144"/><path d="m585.789 962.192v8.144"/><path d="m585.789 970.336h8.144"/><path d="m454.122 966.264h-8.145"/><path d="m445.977 966.264v8.144"/><path d="m445.977 974.408h8.145"/><path d="m593.933 974.408v-8.144"/><path d="m593.933 966.264h8.144"/><path d="m602.077 966.264v8.144"/><path d="m602.077 974.408h-8.144"/><path d="m602.077 966.264h-8.144"/><path d="m593.933 970.336v4.072"/><path d="m593.933 974.408h4.751"/><path d="m602.077 974.408v-8.144"/><path d="m454.122 966.264h-8.145"/><path d="m445.977 966.264v8.144"/><path d="m449.371 974.408h4.751"/><path d="m454.122 974.408v-4.072"/><path d="m177.214 964.906h-61.083"/><path d="m116.131 967.621h61.083"/><path d="m107.987 974.408v-8.144"/><path d="m107.987 966.264h-8.145"/><path d="m99.842 966.264v8.144"/><path d="m99.842 974.408h8.145"/><path d="m116.131 970.336v-8.144"/><path d="m116.131 962.192h-8.144"/><path d="m107.987 962.192v8.144"/><path d="m107.987 970.336h8.144"/><path d="m185.358 970.336v-8.144"/><path d="m185.358 962.192h-8.144"/><path d="m177.214 962.192v8.144"/><path d="m177.214 970.336h8.144"/><path d="m185.358 974.408v-8.144"/><path d="m185.358 966.264h8.144"/><path d="m193.502 966.264v8.144"/><path d="m193.502 974.408h-8.144"/><path d="m369.963 974.408v-8.144"/><path d="m369.963 966.264h8.145"/><path d="m378.108 966.264v8.144"/><path d="m378.108 974.408h-8.145"/><path d="m107.987 970.336v1.357"/><path d="m107.987 971.693h77.371"/><path d="m185.358 971.693v-1.357"/><path d="m369.963 968.979h-176.461"/><path d="m193.502 968.979v2.714"/><path d="m193.502 971.693h176.461"/><path d="m369.963 971.693v-2.714"/><path d="m193.502 966.264h-8.144"/><path d="m185.358 970.336v4.072"/><path d="m185.358 974.408h8.144"/><path d="m193.502 974.408v-8.144"/><path d="m378.108 966.264h-8.145"/><path d="m369.963 966.264v8.144"/><path d="m369.963 974.408h4.751"/><path d="m378.108 974.408v-8.144"/><path d="m107.987 966.264h-8.145"/><path d="m99.842 966.264v8.144"/><path d="m103.236 974.408h4.751"/><path d="m107.987 974.408v-4.072"/><path d="m588.268 960.563.109-.945.197-1.584.15-1.049.241-1.324.125-.547.028-.145.013-.1"/><path d="m590.589 954.857c.001.024.009.086.009.086l.036.184.128.565.16.834.139.892.202 1.535.097.813.092.797"/><path d="m590.545 953.947c-.022-.054-.047-.103-.047-.103-.027-.045-.092-.131-.092-.131l-.073-.072-.08-.06-.087-.048-.093-.036-.098-.023-.099-.009-.098.005-.193.05-.136.073-.089.072c-.058.062-.097.113-.097.113l-.048.08c-.021.045-.04.09-.04.09"/><path d="m591.761 962.192v-1.629"/><path d="m587.96 960.563v1.629"/><path d="m589.162 960.563c-.003-1.169-.007-2.224-.01-3.085s-.007-1.527-.01-1.967-.007-.655-.01-.664"/><path d="m589.132 954.847v.516.172"/><path d="m590.56 960.563c.003-1.169.007-2.224.01-3.085s.007-1.527.01-1.967.007-.655.01-.664"/><path d="m590.589 954.847c-.022-.057-.051-.11-.086-.16s-.077-.096-.124-.136-.099-.075-.155-.103-.115-.05-.176-.064"/><path d="m590.048 954.383c-.061-.015-.124-.022-.188-.022-.063 0-.126.008-.188.022-.122.029-.237.087-.331.167-.047.04-.089.086-.124.136s-.064.104-.086.16"/><path d="m590.589 955.554v-.191-.516"/><path d="m590.515 955.198c.004-.077.008-.135.012-.175"/><path d="m590.556 955.05c.005.062.01.155.015.277"/><path d="m589.15 955.328c.006-.148.012-.252.019-.312"/><path d="m589.191 954.995c.005.038.01.105.015.199"/><path d="m589.223 955.309v-.239"/><path d="m589.223 954.915v-.206"/><path d="m589.132 954.847c.015-.575.03-.88.045-.903.007-.01.014.037.021.142"/><path d="m589.207 954.25c.005.119.011.272.016.459"/><path d="m589.223 954.709.075-.142"/><path d="m590.423 954.567.075.142"/><path d="m590.589 954.847c-.015-.575-.03-.88-.045-.903"/><path d="m590.515 954.25c-.005.109-.01.247-.015.413"/><path d="m590.498 955.12v.193"/><path d="m587.96 960.563h3.801"/><path d="m454.122 962.192h139.811"/><path d="m593.933 970.336h-139.811"/><path d="m454.122 962.192v8.144"/><path d="m593.933 970.336v-8.144"/><path d="m593.933 974.408h-139.811"/><path d="m179.693 960.563.109-.945.197-1.584.15-1.049.242-1.324.124-.547.029-.145.013-.1"/><path d="m182.015 954.857c.001.024.009.086.009.086l.036.184.128.565.16.834.139.892.202 1.535.097.813.092.797"/><path d="m181.971 953.947c-.022-.054-.047-.103-.047-.103-.027-.045-.092-.131-.092-.131l-.073-.072-.08-.06-.087-.048-.093-.036-.098-.023-.099-.009-.098.005-.193.05-.136.073-.089.072c-.058.062-.097.113-.097.113l-.048.08c-.021.045-.04.09-.04.09"/><path d="m183.186 962.192v-1.629"/><path d="m179.386 960.563v1.629"/><path d="m180.587 960.563c-.003-1.169-.007-2.224-.01-3.085s-.007-1.527-.01-1.967-.007-.655-.01-.664"/><path d="m180.557 954.847v.516.172"/><path d="m181.985 960.563c.003-1.169.007-2.224.01-3.085s.007-1.527.01-1.967.007-.655.01-.664"/><path d="m182.015 954.847c-.022-.057-.051-.11-.086-.16s-.077-.096-.124-.136-.099-.075-.155-.103-.115-.05-.176-.064"/><path d="m181.473 954.383c-.061-.015-.124-.022-.188-.022-.063 0-.126.008-.188.022-.123.029-.237.087-.331.167-.047.04-.089.086-.124.136s-.064.104-.086.16"/><path d="m182.015 955.554v-.191-.516"/><path d="m181.94 955.198c.004-.077.008-.135.012-.175"/><path d="m181.981 955.05c.005.062.01.155.016.277"/><path d="m180.575 955.328c.006-.148.012-.252.019-.312"/><path d="m180.616 954.995c.005.038.01.105.015.199"/><path d="m180.648 955.309v-.239"/><path d="m180.648 954.915v-.206"/><path d="m180.557 954.847c.015-.575.03-.88.046-.903.007-.01.014.037.021.142"/><path d="m180.632 954.25c.005.119.011.272.016.459"/><path d="m180.648 954.709.075-.142"/><path d="m181.848 954.567.076.142"/><path d="m182.015 954.847c-.015-.575-.03-.88-.046-.903"/><path d="m181.94 954.25c-.005.109-.01.247-.015.413"/><path d="m181.924 955.12v.193"/><path d="m179.386 960.563h3.8"/><path d="m107.987 962.192h77.371"/><path d="m185.358 970.336h-77.371"/><path d="m107.987 962.192v8.144"/><path d="m185.358 970.336v-8.144"/><path d="m193.502 966.264h176.461"/><path d="m369.963 974.408h-176.461"/><path d="m185.358 974.408h-77.371"/></g></g><g clip-rule="evenodd" fill="#5d5790" fill-rule="evenodd"><path d="m700.181 947.568v-577.199h-1.327v-244.33h1.634v-122.165h-27.148v13.573-13.573h-196.821v13.573 2.715h-10.86v5.43h1.358v5.429h206.323v327.162h-179.065v10.859h156.054 23.011v1.327 576.891l-1.508.308h-66.361v26.84h-6.787v24.433h6.787 93.262v-24.433h2.653v-26.84z"/><path d="m442.584 947.568h-61.083v26.84h-6.787v24.433h74.657v-24.433h-6.787z"/><path d="m320.419 17.447v-13.573h-319.509v13.574h.522v66.512h13.574v.001h-13.267v339.347l13.267 2.716h-14.594v534.811l1.825-.879v14.453h-1.327v24.433h6.28 96.046v-24.433h-6.787v-26.841h-68.507l.638-.307v-515.808h265.37v-5.43-5.43-50.225-69.222h-1.357v-8.144h-4.072v1.357h-5.43v126.234h-254.512v-331.202h254.511v109.952h5.43v1.358h.678 3.393v-8.144h1.357v-161.536h35.971v-5.43h1.357v-5.43h-10.859v-2.714zm-37.329 61.084h-254.511v-47.51h129.631 9.502 115.378z"/><path d="m461.587 104.693v63.425h5.43v-137.097h-5.43z"/><path d="m188.073 288.93v5.43h27.86 62.406 4.751v-5.43z"/></g><g fill="none" stroke="#43456f" stroke-miterlimit="10" stroke-width="1.3979"><path d="m669.252 358.374h-175.119"/><path d="m669.252 369.233h-174.225v-10.859"/><path d="m700.488 997.832v-877.223"/><path d="m700.488 73.1v-29.183"/><path d="m700.488 16.769v-12.896"/><path d="m700.488 3.873h-27.148"/><path d="m673.34 3.873v943.387"/><path d="m673.34 947.26h27.148"/><path d="m28.579 31.021v-27.148"/><path d="m96.449 974.408v-27.148"/><path d="m96.449 947.26h-94.212"/><path d="m701.387 947.26h-95.916"/><path d="m605.471 947.26v27.148"/><path d="m442.584 974.408v-27.148"/><path d="m442.584 947.26h-61.083"/><path d="m381.501 947.26v27.148"/><path d="m598.684 974.408v24.433"/><path d="m598.684 998.841h101.376"/><path d="m374.714 974.408v24.433"/><path d="m374.714 998.841h74.657"/><path d="m449.371 998.841v-24.433"/><path d="m2.237 998.841h100.999"/><path d="m103.236 998.841v-24.433"/><path d="m598.684 998.841h-149.313"/><path d="m374.714 998.841h-271.478"/><path d="m103.236 998.841h-100.999"/><path d="m103.236 998.841h271.478"/><path d="m449.371 998.841h-74.657"/><path d="m449.371 998.841h149.313"/><path d="m673.34 998.841h-74.656"/><path d="m700.488 998.841h-27.148"/><path d="m96.449 947.26h285.052"/><path d="m442.584 947.26h162.887"/><path d="m1.432 3.873v27.148"/><path d="m1.432 947.26h27.147"/><path d="m28.579 947.26v-515.807"/><path d="m28.579 420.594v-342.064"/><path d="m700.488 120.609v10.859"/><path d="m700.488 393.453v10.859"/><path d="m673.34 702.93v210.396"/><path d="m283.09 89.39v103.166"/><path d="m292.592 192.556h1.357"/><path d="m293.949 192.556v-161.535"/><path d="m283.09 301.147v119.447"/><path d="m293.949 431.453v-130.306"/><path d="m293.949 301.147h-1.357"/><path d="m293.949 89.39h-10.859"/><path d="m283.09 420.594h-254.511"/><path d="m28.579 431.453h265.37"/><path d="m28.579 420.594v10.859"/><path d="m79.482 78.531h-16.968"/><path d="m28.579 89.39h254.511"/><path d="m283.09 31.021v47.509"/><path d="m293.949 31.021h-10.859"/><path d="m62.514 31.021h220.576"/><path d="m293.949 31.021h26.47"/><path d="m320.419 20.162v-16.289"/><path d="m320.419 3.873h-318.987"/><path d="m476.519 31.021h196.822"/><path d="m673.341 31.021v-27.148"/><path d="m673.341 3.873h-196.822"/><path d="m476.519 3.873v16.289"/><path d="m700.488 3.873v10.86"/><path d="m700.488 45.953v27.147"/><path d="m1.432 999.159v-575.852"/><path d="m1.432 423.307v-344.777"/><path d="m700.488 43.917v-27.148"/><path d="m1.432 78.53v-47.509"/><path clip-rule="evenodd" d="m167.712 78.53v-47.509h-88.23l78.728 9.502.569 2.275z"/><path d="m79.482 31.021v47.509"/><path d="m79.482 78.53h88.23"/><path d="m167.712 78.53v-47.509"/><path d="m167.712 31.021h-88.23"/><path clip-rule="evenodd" d="m28.579 78.53 6.787-40.722 27.148-6.787h-33.935v8.484z"/><path d="m62.514 31.021v47.509"/><path d="m62.514 78.53h-33.935"/><path d="m28.579 78.53v-47.509"/><path d="m28.579 31.021h33.935"/><path clip-rule="evenodd" d="m283.09 78.53v-47.509h-115.378l99.542 15.837z"/><path d="m167.712 31.021v47.509"/><path d="m167.712 78.53h115.378"/><path d="m283.09 78.53v-47.509"/><path d="m283.09 31.021h-115.378"/><path d="m700.488 120.609v-47.509"/><path d="m188.073 288.931h95.017"/><path d="m188.073 294.36v-5.429"/><path d="m283.09 294.36h-95.017"/><path d="m283.09 288.931v5.429"/><path d="m292.592 293.003v5.429"/><path d="m288.52 293.003h4.072"/><path d="m288.52 294.36v-1.357"/><path d="m283.09 294.36h5.43"/><path d="m283.09 298.432v-4.072"/><path d="m292.592 298.432h-9.502"/><path d="m283.09 195.271h9.502"/><path d="m283.09 199.343v-4.072"/><path d="m288.52 199.343h-5.43"/><path d="m288.52 200.7v-1.357"/><path d="m292.592 200.7h-4.072"/><path d="m292.592 195.271v5.429"/><path d="m283.09 298.432h9.502"/><path d="m283.09 301.147v-2.715"/><path d="m292.592 301.147h-9.502"/><path d="m292.592 298.432v2.715"/><path d="m292.592 192.556v2.715"/><path d="m283.09 192.556h9.502"/><path d="m283.09 195.271v-2.715"/><path d="m292.592 195.271h-9.502"/><path d="m283.09 199.343c-52.477 0-95.017 42.541-95.017 95.017"/><path d="m461.587 168.118v-137.097"/><path d="m467.017 168.118h-5.43"/><path d="m467.017 31.021v137.097"/><path d="m461.587 31.021h5.43"/><path d="m465.659 20.162h8.145"/><path d="m465.659 25.592v-5.43"/><path d="m467.017 25.592h-1.358"/><path d="m467.017 31.021v-5.429"/><path d="m473.804 31.021h-6.787"/><path d="m473.804 20.162v10.859"/><path d="m323.133 31.021v-10.859"/><path d="m329.92 31.021h-6.787"/><path d="m329.92 25.592v5.429"/><path d="m331.278 25.592h-1.358"/><path d="m331.278 20.162v5.43"/><path d="m323.133 20.162h8.145"/><path d="m473.804 31.021v-10.859"/><path d="m476.519 31.021h-2.715"/><path d="m476.519 20.162v10.859"/><path d="m473.804 20.162h2.715"/><path d="m320.419 20.162h2.714"/><path d="m320.419 31.021v-10.859"/><path d="m323.133 31.021h-2.714"/><path d="m323.133 20.162v10.859"/><path d="m329.92 31.021c0 75.716 61.38 137.097 137.097 137.097"/><path d="m473.804 3.873h2.715"/><path d="m481.269 3.873v-2.714"/><path d="m481.269 1.159h-10.18"/><path d="m471.089 1.159v19.003"/><path d="m473.804 20.162v-16.289"/><path d="m320.419 3.873h2.714"/><path d="m323.133 3.873v16.289"/><path d="m325.848 20.162v-19.003"/><path d="m325.848 1.159h-10.18"/><path d="m315.668 1.159v2.714"/><path d="m317.025 33.736v-2.715"/><path d="m315.668 31.021v5.43"/><path d="m315.668 36.451h10.18"/><path d="m325.848 36.451v-5.43"/><path d="m323.133 31.021v2.715"/><path d="m323.133 33.736h-6.108"/><path d="m479.912 33.736h-6.108"/><path d="m473.804 33.736v-2.715"/><path d="m471.089 31.021v5.43"/><path d="m471.089 36.451h10.18"/><path d="m481.269 36.451v-5.43"/><path d="m479.912 31.021v2.715"/></g><g fill="#43456f"><path d="m246.422 704.479h-.085l-5.299 2.801-1.067-5.411 7.349-3.798h5.383v30.855h-6.28v-24.447z"/><path d="m263.892 723.705c.813.095 1.539.095 2.82 0 1.965-.143 3.974-.76 5.469-1.898 1.795-1.377 2.99-3.371 3.504-5.697l-.129-.047c-1.238 1.424-3.033 2.231-5.554 2.231-4.7 0-8.673-3.655-8.673-9.637 0-6.029 4.357-11.108 10.467-11.108 7.135 0 10.511 6.076 10.511 13.292 0 6.408-1.837 11.107-4.871 14.193-2.648 2.658-6.28 4.13-10.596 4.319-1.11.096-2.222.048-2.948 0zm3.932-15.476c0 2.658 1.281 4.938 3.93 4.938 1.752 0 2.991-.949 3.59-2.042.213-.427.342-.901.342-1.804 0-3.275-1.111-6.503-4.06-6.503-2.222 0-3.845 2.184-3.802 5.411z"/><path d="m283.841 734.576c1.325-4.226 2.479-9.162 3.076-13.482l6.623-.475c-1.41 4.843-3.333 9.827-5.384 13.529z"/><path d="m297.811 721.853c1.153.665 3.802 1.899 6.451 1.899 3.375 0 5.084-1.805 5.084-4.13 0-3.038-2.734-4.415-5.597-4.415h-2.648v-5.175h2.521c2.179-.047 4.956-.949 4.956-3.56 0-1.852-1.367-3.229-4.102-3.229-2.265 0-4.657 1.092-5.811 1.852l-1.324-5.222c1.666-1.187 4.998-2.326 8.587-2.326 5.938 0 9.229 3.466 9.229 7.69 0 3.275-1.666 5.839-5.084 7.168v.095c3.333.665 6.024 3.466 6.024 7.5 0 5.46-4.315 9.447-11.365 9.447-3.589 0-6.622-1.045-8.246-2.184z"/><path d="m421.122 245.423v4.557l-11.45 26.299h-6.879l11.45-24.827v-.095h-12.731v-5.934z"/><path d="m423.212 281.928c1.324-4.226 2.478-9.162 3.076-13.482l6.622-.475c-1.41 4.843-3.333 9.827-5.384 13.529z"/><path d="m456.536 260.708c0 9.542-3.461 16.093-10.554 16.093-7.178 0-10.339-7.168-10.382-15.902 0-8.925 3.418-15.998 10.596-15.998 7.434-.001 10.34 7.358 10.34 15.807zm-14.398.19c-.043 7.072 1.495 10.443 4.016 10.443s3.889-3.513 3.889-10.539c0-6.835-1.325-10.443-3.932-10.443-2.393 0-4.016 3.371-3.973 10.539z"/><path d="m132.927 262.086v-7.357h-12.305v-4.7l10.511-18.798h7.946v18.086h3.333v5.412h-3.333v7.357zm0-12.77v-6.836c0-1.851.086-3.75.214-5.743h-.171c-.897 1.993-1.623 3.797-2.563 5.743l-3.717 6.741v.095z"/><path d="m143.433 267.735c1.325-4.226 2.479-9.162 3.076-13.482l6.623-.475c-1.41 4.843-3.333 9.826-5.384 13.529z"/><path d="m173.981 236.357c-.727-.048-1.495 0-2.521.095-5.769.522-8.332 3.798-9.059 7.405h.129c1.367-1.566 3.289-2.469 5.896-2.469 4.657 0 8.588 3.655 8.588 10.063 0 6.124-4.229 11.156-10.254 11.156-7.392 0-11.022-6.124-11.022-13.481 0-5.792 1.922-10.634 4.913-13.719 2.776-2.801 6.366-4.32 10.724-4.558 1.196-.095 1.965-.095 2.606-.048zm-3.546 15.475c0-2.848-1.367-5.316-4.145-5.316-1.752 0-3.205 1.187-3.846 2.753-.171.38-.256.95-.256 1.805.128 3.275 1.538 6.218 4.486 6.218 2.308-.001 3.761-2.326 3.761-5.46z"/><path d="m355.586 201.257v9.969h.897l7.775-9.969h4.572l-9.016 10.396c3.333.379 5.341 2.848 6.965 6.978.555 1.52 1.281 3.75 2.221 5.602h-3.93c-.556-.997-1.282-2.801-1.923-4.699-1.41-3.703-3.333-5.412-6.836-5.412h-.727v10.111h-3.717v-22.976z"/><path d="m390.787 212.555c0 8.497-5.298 12.2-10.296 12.2-5.598 0-9.912-4.558-9.912-11.82 0-7.69 4.528-12.2 10.254-12.2 5.939-.001 9.954 4.794 9.954 11.82zm-16.406.237c0 5.032 2.606 8.829 6.28 8.829 3.59 0 6.281-3.75 6.281-8.924 0-3.893-1.752-8.829-6.195-8.829s-6.366 4.557-6.366 8.924z"/><path d="m395.527 208.757c0-2.942-.086-5.316-.171-7.5h3.375l.171 3.94h.086c1.537-2.801 3.973-4.463 7.348-4.463 4.999 0 8.759 4.7 8.759 11.678 0 8.26-4.528 12.343-9.399 12.343-2.734 0-5.127-1.329-6.365-3.608h-.086v12.485h-3.717v-24.875zm3.716 6.124c0 .617.086 1.187.171 1.709.684 2.896 2.948 4.89 5.64 4.89 3.974 0 6.28-3.608 6.28-8.877 0-4.604-2.179-8.545-6.152-8.545-2.563 0-4.956 2.041-5.683 5.174-.128.522-.256 1.14-.256 1.709z"/><path d="m423.294 201.257v9.684c0 3.655-.043 5.935-.214 9.21l.128.047c1.239-2.801 1.965-4.414 3.332-7.073l6.452-11.867h4.4v22.976h-3.589v-9.731c0-3.75.086-5.696.256-9.399h-.128c-1.324 2.943-2.222 4.795-3.418 7.121-1.965 3.561-4.229 7.975-6.451 12.01h-4.315v-22.976h3.547z"/><path d="m459.52 201.257v19.843l2.136.047-.213 10.396h-2.948l-.171-7.311h-14.313l-.171 7.311h-2.948l-.171-10.396 1.752-.047c.897-1.472 1.581-3.038 2.051-4.7.812-2.848 1.196-5.934 1.196-9.161v-5.981h13.8zm-10.468 6.978c0 3.038-.385 5.98-1.068 8.544-.427 1.566-1.025 2.991-1.666 4.272h9.527v-16.614h-6.793z"/><path d="m484.682 212.555c0 8.497-5.298 12.2-10.296 12.2-5.598 0-9.912-4.558-9.912-11.82 0-7.69 4.528-12.2 10.254-12.2 5.938-.001 9.954 4.794 9.954 11.82zm-16.406.237c0 5.032 2.606 8.829 6.28 8.829 3.59 0 6.281-3.75 6.281-8.924 0-3.893-1.752-8.829-6.195-8.829s-6.366 4.557-6.366 8.924z"/><path d="m489.421 208.757c0-2.942-.086-5.316-.171-7.5h3.375l.171 3.94h.086c1.537-2.801 3.973-4.463 7.348-4.463 4.999 0 8.759 4.7 8.759 11.678 0 8.26-4.528 12.343-9.399 12.343-2.734 0-5.127-1.329-6.365-3.608h-.086v12.485h-3.717v-24.875zm3.717 6.124c0 .617.086 1.187.171 1.709.684 2.896 2.948 4.89 5.64 4.89 3.974 0 6.28-3.608 6.28-8.877 0-4.604-2.179-8.545-6.152-8.545-2.563 0-4.956 2.041-5.683 5.174-.128.522-.256 1.14-.256 1.709z"/><path d="m143.845 646.241v9.969h.897l7.775-9.969h4.571l-9.015 10.396c3.333.379 5.341 2.848 6.964 6.978.556 1.52 1.282 3.75 2.223 5.602h-3.932c-.555-.997-1.281-2.801-1.922-4.699-1.41-3.703-3.333-5.412-6.836-5.412h-.727v10.111h-3.717v-22.976z"/><path d="m162.255 646.241 4.528 13.576c.47 1.52.983 3.323 1.325 4.7h.085c.385-1.377.812-3.134 1.324-4.795l4.102-13.481h3.974l-5.64 16.377c-2.691 7.88-4.528 11.915-7.093 14.384-1.837 1.804-3.674 2.516-4.613 2.706l-.94-3.513c.94-.333 2.179-.997 3.29-2.042 1.025-.901 2.307-2.516 3.161-4.651.171-.428.3-.76.3-.997s-.086-.569-.257-1.092l-7.647-21.172z"/><path d="m182.931 646.241 2.947 4.937c.77 1.282 1.41 2.469 2.094 3.751h.128c.684-1.377 1.367-2.563 2.051-3.798l2.905-4.89h4.059l-7.049 11.108 7.263 11.867h-4.272l-3.033-5.174c-.812-1.329-1.495-2.611-2.222-3.988h-.085c-.684 1.377-1.41 2.611-2.18 3.988l-2.99 5.174h-4.145l7.349-11.726-7.007-11.25h4.187z"/><path d="m204.589 646.241v9.257h9.826v-9.257h3.717v22.976h-3.717v-10.396h-9.826v10.396h-3.718v-22.976z"/><path d="m239.534 669.217h-3.718v-9.637h-2.776c-1.581 0-2.649.475-3.461 1.282-1.538 1.376-2.094 4.225-2.905 6.456-.257.712-.556 1.329-.854 1.898h-4.017c.47-.76.897-1.614 1.282-2.611.896-2.23 1.41-5.222 3.247-6.93.641-.617 1.409-1.14 2.35-1.33v-.142c-2.691-.333-5.469-2.184-5.469-5.697 0-2.373 1.153-3.987 2.734-4.983 1.709-1.093 4.229-1.567 6.921-1.567 2.479 0 4.871.237 6.666.475zm-3.717-20.223c-.939-.142-1.794-.237-3.118-.237-2.564 0-5.598.808-5.598 3.988 0 2.942 3.29 3.987 5.512 3.987h3.204z"/><path d="m254.356 654.833v3.086h-10.554v-3.086z"/><path d="m271.358 646.241v3.37h-8.972v19.605h-3.718v-22.976h12.69z"/><path d="m293.06 657.539c0 8.497-5.298 12.2-10.297 12.2-5.597 0-9.912-4.558-9.912-11.82 0-7.69 4.529-12.2 10.254-12.2 5.939 0 9.955 4.795 9.955 11.82zm-16.406.237c0 5.032 2.606 8.829 6.281 8.829 3.588 0 6.28-3.75 6.28-8.924 0-3.893-1.752-8.829-6.195-8.829s-6.366 4.557-6.366 8.924z"/><path d="m312.538 668.362c-.982.569-3.161 1.329-5.938 1.329-6.237 0-10.296-4.699-10.296-11.725 0-7.073 4.357-12.2 11.107-12.2 2.223 0 4.188.617 5.213 1.187l-.854 3.229c-.897-.57-2.308-1.092-4.358-1.092-4.742 0-7.306 3.893-7.306 8.687 0 5.316 3.076 8.592 7.178 8.592 2.137 0 3.546-.616 4.614-1.139z"/><path d="m331.591 646.241v3.323h-6.451v19.652h-3.717v-19.652h-6.452v-3.323z"/><path d="m338.339 646.241v9.684c0 3.655-.043 5.935-.214 9.21l.128.047c1.239-2.801 1.965-4.414 3.332-7.073l6.452-11.867h4.4v22.976h-3.589v-9.731c0-3.75.086-5.696.256-9.399h-.128c-1.324 2.943-2.222 4.795-3.418 7.121-1.965 3.561-4.229 7.975-6.451 12.01h-4.315v-22.976h3.547z"/><path d="m362.175 646.241v9.257h9.827v-9.257h3.717v22.976h-3.717v-10.396h-9.827v10.396h-3.717v-22.976z"/><path d="m393.318 669.217-.299-2.896h-.129c-1.153 1.804-3.375 3.418-6.323 3.418-4.187 0-6.323-3.275-6.323-6.599 0-5.554 4.443-8.592 12.434-8.545v-.475c0-1.898-.471-5.316-4.7-5.316-1.923 0-3.931.665-5.384 1.709l-.854-2.753c1.709-1.234 4.187-2.042 6.793-2.042 6.323 0 7.861 4.795 7.861 9.399v8.592c0 1.994.085 3.94.342 5.507h-3.418zm-.556-11.726c-4.102-.095-8.759.713-8.759 5.175 0 2.706 1.624 3.987 3.547 3.987 2.691 0 4.4-1.898 4.998-3.845.129-.428.214-.902.214-1.329z"/><path d="m417.837 669.217h-3.717v-9.637h-2.777c-1.58 0-2.648.475-3.46 1.282-1.538 1.376-2.094 4.225-2.905 6.456-.257.712-.556 1.329-.854 1.898h-4.017c.471-.76.897-1.614 1.282-2.611.897-2.23 1.409-5.222 3.247-6.93.641-.617 1.41-1.14 2.35-1.33v-.142c-2.691-.333-5.469-2.184-5.469-5.697 0-2.373 1.153-3.987 2.734-4.983 1.709-1.093 4.229-1.567 6.922-1.567 2.478 0 4.87.237 6.664.475zm-3.717-20.223c-.939-.142-1.794-.237-3.119-.237-2.563 0-5.597.808-5.597 3.988 0 2.942 3.29 3.987 5.512 3.987h3.204z"/><path d="m143.525 197.783c-.983.569-3.162 1.329-5.939 1.329-6.237 0-10.297-4.699-10.297-11.725 0-7.073 4.358-12.2 11.109-12.2 2.221 0 4.187.617 5.212 1.187l-.854 3.229c-.897-.57-2.307-1.092-4.357-1.092-4.743 0-7.307 3.893-7.307 8.687 0 5.316 3.076 8.592 7.178 8.592 2.137 0 3.547-.616 4.614-1.139z"/><path d="m144.76 200.536 11.921-34.415h2.904l-11.963 34.415z"/><path d="m163.942 175.662 4.528 13.576c.471 1.52.982 3.323 1.324 4.7h.086c.385-1.377.812-3.134 1.324-4.795l4.102-13.481h3.974l-5.64 16.377c-2.691 7.88-4.529 11.915-7.092 14.384-1.838 1.804-3.675 2.516-4.615 2.706l-.939-3.513c.939-.333 2.179-.997 3.29-2.042 1.025-.901 2.307-2.516 3.161-4.651.171-.428.299-.76.299-.997s-.085-.569-.256-1.092l-7.647-21.172z"/></g></svg>