<svg enable-background="new 0 0 704 1000" viewBox="0 0 704 1000" xmlns="http://www.w3.org/2000/svg"><path d="m25.787 69.282v884.446h640.339v-856.143h-162.738v-63.68h-293.636v38.915s-189.272-8.844-183.965-3.538z" fill="#fff"/><g fill="none" stroke-miterlimit="10"><g stroke="#414242" stroke-linecap="round" stroke-linejoin="round" stroke-width=".8245"><path d="m589.956 355.467h84.837"/><path d="m589.956 785.994v-430.527"/><path d="m674.793 785.994h-84.837"/><path d="m614.386 628.269c-5.713 0-10.343 4.631-10.343 10.343s4.631 10.343 10.343 10.343"/><path d="m614.386 648.955c5.713 0 10.343-4.631 10.343-10.343 0-5.713-4.631-10.343-10.343-10.343"/><path d="m614.386 666.561c-7.617 0-13.791 6.174-13.791 13.791s6.175 13.791 13.791 13.791"/><path d="m614.386 694.143c7.617 0 13.791-6.174 13.791-13.791s-6.175-13.791-13.791-13.791"/><path d="m647.778 624.821c-7.617 0-13.791 6.174-13.791 13.791s6.175 13.791 13.791 13.791"/><path d="m647.778 652.403c7.617 0 13.791-6.174 13.791-13.791s-6.174-13.791-13.791-13.791"/><path d="m647.778 669.956c-5.742 0-10.396 4.655-10.396 10.396 0 5.742 4.655 10.396 10.396 10.396"/><path d="m647.778 690.748c5.742 0 10.396-4.655 10.396-10.396 0-5.742-4.655-10.396-10.396-10.396"/><path d="m665.017 617.742h-67.87"/><path d="m597.147 617.742v83.48"/><path d="m597.147 701.222h67.87"/><path d="m665.017 701.222v-83.48"/><path d="m670.188 706.394h-78.213"/><path d="m591.975 706.394v-93.824"/><path d="m591.975 612.57h78.213"/><path d="m670.188 612.57v93.824"/><path d="m100.663 325.578c0-2.999-2.431-5.43-5.43-5.429-2.999 0-5.43 2.431-5.429 5.43"/><path d="m89.804 325.578c0 2.999 2.431 5.43 5.43 5.429s5.43-2.431 5.429-5.43"/><path d="m161.744 259.063-133.023.004"/><path d="m161.748 392.088-.004-133.025"/><path d="m28.721 325.719.002 66.373"/><path d="m28.723 392.092 133.025-.004"/><path d="m91.484 321.828-47.154-47.151"/><path d="m98.983 321.828 47.152-47.154"/><path d="m146.138 376.479-46.975-46.972"/><path d="m44.333 376.482 46.972-46.975"/><path d="m156.319 386.659-.004-122.166"/><path d="m156.315 264.493-122.166.004"/><path d="m34.149 264.497.004 122.166"/><path d="m34.153 386.663 122.166-.004"/><path d="m146.138 376.479-.003-101.805"/><path d="m146.135 274.674-101.805.003"/><path d="m44.33 274.677.003 101.805"/><path d="m44.333 376.482 101.805-.003"/><path d="m27.365 225.088 18.159-.001"/><path d="m45.524 225.087c5.591 0 10.123-4.533 10.123-10.124"/><path d="m55.648 214.963v-2.74"/><path d="m55.648 212.223 3.57.411"/><path d="m59.218 212.634 6.672 7.95"/><path d="m65.89 220.584 3.531 2.001"/><path d="m69.421 222.585 3.53.946"/><path d="m72.951 223.531 3.545.625"/><path d="m76.496 224.156 3.517.307"/><path d="m80.013 224.463 7.035-.615"/><path d="m87.048 223.848 7.088-1.9"/><path d="m94.136 221.948 7.062-2.57"/><path d="m101.198 219.378 7.061-3.293"/><path d="m108.259 216.085 7.062-4.899"/><path d="m115.321 211.186 3.531-3.531"/><path d="m118.852 207.655 1.765-3.058"/><path d="m120.617 204.597 1.765-4.851"/><path d="m122.382 199.746v-3.53"/><path d="m122.382 196.216-1.766-4.851"/><path d="m120.616 191.365-1.765-3.057"/><path d="m118.851 188.308-3.531-3.531"/><path d="m115.32 184.777-7.062-4.899"/><path d="m108.258 179.878-7.061-3.292"/><path d="m101.197 176.586-7.062-2.57"/><path d="m94.135 174.016-7.089-1.899"/><path d="m87.046 172.117-7.035-.616"/><path d="m80.011 171.501-3.517.308"/><path d="m76.494 171.809-3.544.625"/><path d="m72.95 172.434-3.531.946"/><path d="m69.419 173.38-3.531 2.002"/><path d="m65.888 175.382-6.671 7.95"/><path d="m59.217 183.332-3.57.411"/><path d="m55.647 183.743v-2.74"/><path d="m55.647 181.003c0-5.591-4.533-10.123-10.124-10.123"/><path d="m45.523 170.88h-18.16"/><path d="m27.363 170.88.002 54.208"/><path d="m29.399 157.262h-2.036"/><path d="m29.401 238.706h-2.036"/><path d="m55.648 212.223-.001-28.48"/><path d="m156.315 264.493-122.166.004"/><path d="m34.149 264.497h-5.428"/><path d="m27.366 259.067-.004-122.166"/><path d="m202.476 394.798-.002-49.016"/><path d="m283.92 394.795-81.444.003"/><path d="m283.918 345.162.002 49.633"/><path d="m283.918 345.162c0-6.323-5.127-11.45-11.45-11.449"/><path d="m214.541 333.715 57.927-.002"/><path d="m214.541 333.715c-6.665 0-12.067 5.403-12.067 12.068"/><path d="m244.922 389.625h8.619"/><path d="m253.541 394.796-22.41.001"/><path d="m231.13 389.625c-1.428 0-2.586 1.158-2.586 2.586s1.158 2.586 2.586 2.586"/><path d="m253.541 394.796c1.428 0 2.586-1.158 2.586-2.586s-1.158-2.586-2.586-2.586"/><path d="m231.13 389.625h10.344"/><path d="m237.164 392.211c0-1.428-1.158-2.586-2.586-2.586s-2.586 1.158-2.586 2.586"/><path d="m231.992 392.211c0 1.428 1.158 2.586 2.586 2.586s2.586-1.158 2.586-2.586"/><path d="m252.679 392.211c0-1.428-1.158-2.586-2.586-2.586s-2.586 1.158-2.586 2.586"/><path d="m247.508 392.211c0 1.428 1.158 2.586 2.586 2.586s2.586-1.158 2.586-2.586"/><path d="m269.128 394.796-51.86.002"/><path d="m270.128 382.158c4.76 0 8.619-3.859 8.619-8.62"/><path d="m283.918 345.162c0-6.323-5.127-11.45-11.45-11.449"/><path d="m214.541 333.715c-6.665 0-12.067 5.403-12.067 12.068"/><path d="m241.474 382.159-25.207.001"/><path d="m244.921 375.826c0-.952-.772-1.724-1.724-1.724s-1.724.772-1.724 1.724"/><path d="m244.922 392.163-.001-16.337"/><path d="m241.474 392.163-.001-16.337"/><path d="m241.474 392.163c0 .952.772 1.724 1.724 1.724s1.724-.772 1.724-1.724"/><path d="m207.647 373.541c0 4.76 3.859 8.619 8.62 8.619"/><path d="m216.265 338.886c-4.76 0-8.619 3.859-8.619 8.62"/><path d="m278.747 347.504c0-4.76-3.859-8.619-8.62-8.619"/><path d="m270.128 382.158-25.207.001"/><path d="m278.747 347.504.001 26.035"/><path d="m216.265 338.886 53.862-.001"/><path d="m207.647 373.541-.001-26.035"/><path d="m246.645 370.775c0-1.904-1.544-3.448-3.448-3.448s-3.448 1.544-3.448 3.448"/><path d="m239.749 370.775c0 1.904 1.544 3.448 3.448 3.448s3.448-1.544 3.448-3.448"/><path d="m202.475 380.006-.001-34.224"/><path d="m214.541 333.715 57.927-.002"/><path d="m283.918 345.162.001 34.841"/><path d="m197.046 394.798 92.303-.003"/><path d="m631.007 510.653c-1.904 0-3.448 1.544-3.448 3.448s1.544 3.448 3.448 3.448"/><path d="m631.007 517.549c1.904 0 3.448-1.544 3.448-3.448s-1.544-3.448-3.448-3.448"/><path d="m659.878 497.079c-1.904 0-3.448 1.544-3.448 3.448s1.544 3.448 3.448 3.448"/><path d="m659.878 503.975c1.904 0 3.448-1.544 3.448-3.448s-1.544-3.448-3.448-3.448"/><path d="m659.878 524.227c-1.904 0-3.448 1.544-3.448 3.448s1.544 3.448 3.448 3.448"/><path d="m659.878 531.122c1.904 0 3.448-1.544 3.448-3.448s-1.544-3.448-3.448-3.448"/><path d="m638.221 512.377h21.657"/><path d="m638.221 512.377c-.952 0-1.724.772-1.724 1.724s.772 1.724 1.724 1.724"/><path d="m659.878 515.825h-21.657"/><path d="m659.878 515.825c.952 0 1.724-.772 1.724-1.724s-.772-1.724-1.724-1.724"/><path d="m652.121 474.587v37.79"/><path d="m652.121 474.587c0-3.808-3.087-6.896-6.896-6.896"/><path d="m607.082 467.691h38.143"/><path d="m607.082 467.691c-3.808 0-6.896 3.087-6.896 6.896"/><path d="m600.186 553.615v-79.028"/><path d="m600.186 553.615c0 3.808 3.087 6.896 6.896 6.896"/><path d="m645.225 560.51h-38.143"/><path d="m645.225 560.51c3.808 0 6.896-3.087 6.896-6.896"/><path d="m652.121 515.825v37.79"/><path d="m667.636 462.52h-72.621"/><path d="m595.015 462.52v103.162"/><path d="m595.015 565.682h72.621"/><path d="m667.636 565.682v-103.162"/><path d="m217.4 117.892v-72.501"/><path d="m217.4 45.391v-4.418"/><path d="m217.4 40.973v-4.525"/><path d="m217.4 36.448v81.444"/><path d="m298.844 117.892v-81.444"/><path d="m298.844 36.448v4.525"/><path d="m298.844 40.973v4.418"/><path d="m298.844 45.391v72.501"/><path d="m217.4 117.892h81.444"/><path d="m298.844 117.892h-81.444"/><path d="m298.844 45.391h-81.444"/><path d="m298.844 40.973h-81.444"/><path d="m298.844 36.448h-81.444"/><path d="m298.844 36.448h-81.444"/></g><g stroke="#4a4a4c" stroke-width=".5497"><path d="m585.251 365.912v83.895"/><path d="m585.251 449.807h-83.895"/><path d="m585.251 441.753h-83.895"/><path d="m585.251 449.807v-83.895"/><path d="m585.251 365.912h-83.895"/><path d="m585.251 449.807h-83.895v-84.536"/></g></g><path d="m535.906 414.987 6.298-8.487-5.557-7.8h2.57l2.956 4.176c.61.868 1.05 1.536 1.312 2.003.363-.594.787-1.212 1.281-1.856l3.28-4.322h2.346l-5.719 7.676 6.159 8.61h-2.663l-4.099-5.808c-.232-.336-.471-.699-.71-1.092-.363.594-.625 1.003-.78 1.223l-4.091 5.677z" fill="#4a4a4c"/><g fill="none" stroke-miterlimit="10"><g stroke="#414242" stroke-width=".8245"><g stroke-linecap="round" stroke-linejoin="round"><path d="m671.186 353.189v-196.347"/><path d="m660.566 217.012-58.41-4.748"/><path d="m660.566 224.412h-58.41"/><path d="m602.156 237.053 58.41-7.627"/><path d="m660.566 246.919-58.41-4.747"/><path d="m660.566 254.319h-58.41"/><path d="m602.156 266.96 58.41-7.626"/><path d="m660.566 276.827-58.41-4.748"/><path d="m660.566 284.226h-58.41"/><path d="m602.156 296.868 58.41-7.627"/><path d="m660.566 306.734-58.41-4.747"/><path d="m660.566 314.134h-58.41"/><path d="m602.156 326.775 58.41-7.626"/><path d="m660.566 336.642-58.41-4.748"/><path d="m660.566 344.041h-58.41"/><path d="m631.361 355.843v-199.001"/><path d="m660.566 164.597h-58.41"/><path d="m602.156 177.238 58.41-7.626"/><path d="m660.566 187.104-58.41-4.747"/><path d="m660.566 194.504h-58.41"/><path d="m602.156 207.145 58.41-7.626"/><path d="m591.536 156.842h79.65v197.466h-79.65z"/><path d="m28.33 499.123h189.169v74.293h-189.169z"/><path d="m122.15 454.872c-14.837-4.496-30.517-4.496-45.354 0"/><path d="m123.902 472.871c-15.811-6.069-33.046-6.073-48.859-.01"/><path d="m74.795 455.515c-2.005.645-3.414 2.607-3.507 4.886"/><path d="m76.795 454.872-2 .643"/><path d="m71.288 460.401-1.575 38.722"/><path d="m127.657 460.401c-.093-2.278-1.501-4.241-3.507-4.886"/><path d="m122.15 454.872 2.001.643"/><path d="m127.657 460.401 1.575 38.722"/><path d="m124.461 462.001c-.065 0-.119.056-.122.128"/><path d="m124.339 462.128-1.505 36.995"/><path d="m124.461 462.001h2.931"/><path d="m74.606 462.128c-.003-.071-.057-.128-.122-.128"/><path d="m74.606 462.128 1.505 36.995"/><path d="m74.484 462.001h-3.389"/><path d="m149.409 454.872c14.837-4.496 30.517-4.496 45.354 0"/><path d="m147.657 472.871c15.811-6.069 33.046-6.073 48.859-.01"/><path d="m196.765 455.515c2.005.645 3.414 2.607 3.507 4.886"/><path d="m194.764 454.872 2.001.643"/><path d="m200.271 460.401 1.575 38.722"/><path d="m143.902 460.401c.093-2.278 1.501-4.241 3.507-4.886"/><path d="m149.409 454.872-2 .643"/><path d="m143.902 460.401-1.575 38.722"/><path d="m147.098 462.001c.065 0 .119.056.122.128"/><path d="m147.22 462.128 1.505 36.995"/><path d="m147.098 462.001h-2.931"/><path d="m196.953 462.128c.003-.071.057-.128.122-.128"/><path d="m196.953 462.128-1.505 36.995"/><path d="m197.075 462.001h3.389"/><path d="m1.705 943.971v-268.815"/><path d="m218.944 756.497h75.694v108.134h-75.694z"/></g><path d="m90.352 753.843h228.187v109.671h-228.187z" transform="matrix(0 1 -1 0 1013.1238 604.2338)"/><g stroke-linecap="round" stroke-linejoin="round"><path d="m151.357 943.971v-268.815"/><path d="m151.357 675.156h-120.967"/><path d="m30.39 675.156v268.815"/><path d="m30.39 943.971h120.967"/><path d="m151.357 695.317h-120.967"/><path d="m151.357 923.504h-120.967"/><path d="m50.551 923.81v-228.493"/><path d="m151.357 809.563h-100.806"/><path d="m700.806 828.541v70.831"/><path d="m659.974 798.432v141.663"/><path d="m659.974 940.095h4.309"/><path d="m664.283 940.095 4.309-35.416"/><path d="m668.592 904.679v-70.831"/><path d="m668.592 833.848-4.309-35.416"/><path d="m664.283 798.432h-4.309"/><path d="m661.697 930.651v-9.445"/><path d="m661.697 921.206h1.078"/><path d="m662.775 921.206v9.445"/><path d="m662.775 930.651h-1.078"/><path d="m661.697 918.845v-9.444"/><path d="m661.697 909.401h1.078"/><path d="m662.775 909.401v9.444"/><path d="m662.775 918.845h-1.078"/><path d="m661.697 907.04v-4.722"/><path d="m661.697 902.318h1.078"/><path d="m662.775 902.318v4.722"/><path d="m662.775 907.04h-1.078"/><path d="m664.283 798.432v141.663"/><path d="m607.939 785.538h60.653v162.144h-60.653z"/></g></g><g stroke="#46a5de" stroke-width="1.3742"><path d="m454.266 974.411v-8.144"/><path d="m454.266 970.339h8.144"/><path d="m462.41 970.339v-8.144"/><path d="m462.41 962.195h-8.144"/><path d="m454.266 962.195v8.144"/><path d="m585.934 964.909h-123.524"/><path d="m462.41 967.624h123.524"/><path d="m594.078 970.339v-8.144"/><path d="m594.078 962.195h-8.144"/><path d="m585.934 962.195v8.144"/><path d="m585.934 970.339h8.144"/><path d="m454.266 966.267h-8.144"/><path d="m446.122 966.267v8.144"/><path d="m446.122 974.411h8.144"/><path d="m594.078 974.411v-8.144"/><path d="m594.078 966.267h8.145"/><path d="m602.223 966.267v8.144"/><path d="m602.223 974.411h-8.145"/><path d="m602.223 966.267h-8.145"/><path d="m594.078 970.339v4.072"/><path d="m594.078 974.411h4.751"/><path d="m602.223 974.411v-8.144"/><path d="m454.266 966.267h-8.144"/><path d="m446.122 966.267v8.144"/><path d="m449.515 974.411h4.751"/><path d="m454.266 974.411v-4.072"/><path d="m177.356 964.909h-61.083"/><path d="m116.273 967.624h61.083"/><path d="m108.129 974.411v-8.144"/><path d="m108.129 966.267h-8.144"/><path d="m99.985 966.267v8.144"/><path d="m99.985 974.411h8.144"/><path d="m116.273 970.339v-8.144"/><path d="m116.273 962.195h-8.144"/><path d="m108.129 962.195v8.144"/><path d="m108.129 970.339h8.144"/><path d="m185.501 970.339v-8.144"/><path d="m185.501 962.195h-8.145"/><path d="m177.356 962.195v8.144"/><path d="m177.356 970.339h8.145"/><path d="m185.501 974.411v-8.144"/><path d="m185.501 966.267h8.144"/><path d="m193.645 966.267v8.144"/><path d="m193.645 974.411h-8.144"/><path d="m370.107 974.411v-8.144"/><path d="m370.107 966.267h8.145"/><path d="m378.252 966.267v8.144"/><path d="m378.252 974.411h-8.145"/><path d="m108.129 970.339v1.358"/><path d="m108.129 971.697h77.372"/><path d="m185.501 971.697v-1.358"/><path d="m370.107 968.982h-176.462"/><path d="m193.645 968.982v2.715"/><path d="m193.645 971.697h176.462"/><path d="m370.107 971.697v-2.715"/><path d="m193.645 966.267h-8.144"/><path d="m185.501 970.339v4.072"/><path d="m185.501 974.411h8.144"/><path d="m193.645 974.411v-8.144"/><path d="m378.252 966.267h-8.145"/><path d="m370.107 966.267v8.144"/><path d="m370.107 974.411h4.751"/><path d="m378.252 974.411v-8.144"/><path d="m108.129 966.267h-8.144"/><path d="m99.985 966.267v8.144"/><path d="m103.378 974.411h4.751"/><path d="m108.129 974.411v-4.072"/><path d="m588.413 960.566.109-.945.197-1.584.15-1.049.242-1.324.124-.547.029-.145.013-.1"/><path d="m590.735 954.86c.001.024.009.086.009.086l.036.184.128.565.16.834.139.892.202 1.535.097.813.092.797"/><path d="m590.691 953.95c-.022-.054-.047-.103-.047-.103-.027-.045-.092-.131-.092-.131l-.073-.072-.08-.06-.087-.048-.093-.036-.098-.023-.099-.009-.098.005-.193.05-.136.073-.089.072c-.058.062-.097.113-.097.113l-.048.08c-.021.045-.04.09-.04.09"/><path d="m591.906 962.195v-1.629"/><path d="m588.106 960.566v1.629"/><path d="m589.307 960.566c-.003-1.169-.007-2.224-.01-3.085s-.007-1.527-.01-1.967-.007-.655-.01-.664"/><path d="m589.277 954.849v.517.172"/><path d="m590.705 960.566c.003-1.169.007-2.224.01-3.085s.007-1.527.01-1.967.007-.655.01-.664"/><path d="m590.735 954.849c-.022-.057-.051-.11-.086-.16s-.077-.096-.124-.136-.099-.075-.155-.103-.115-.05-.177-.064"/><path d="m590.193 954.386c-.061-.015-.124-.022-.188-.022-.063 0-.126.008-.188.022-.123.029-.237.087-.331.167-.047.04-.089.086-.124.136s-.064.104-.086.16"/><path d="m590.735 955.557v-.191-.517"/><path d="m590.66 955.201c.004-.077.008-.135.012-.175"/><path d="m590.701 955.053c.005.062.01.155.016.277"/><path d="m589.295 955.331c.006-.148.012-.252.019-.312"/><path d="m589.336 954.998c.005.038.01.105.015.199"/><path d="m589.368 955.311v-.238"/><path d="m589.368 954.918v-.206"/><path d="m589.277 954.85c.015-.575.03-.88.045-.903.007-.01.014.037.021.142"/><path d="m589.352 954.253c.005.119.011.272.016.459"/><path d="m589.368 954.712.076-.142"/><path d="m590.568 954.57.076.142"/><path d="m590.735 954.85c-.015-.575-.03-.88-.046-.903"/><path d="m590.66 954.253c-.005.109-.01.247-.015.413"/><path d="m590.644 955.123v.193"/><path d="m588.106 960.566h3.8"/><path d="m454.266 962.195h139.812"/><path d="m594.078 970.339h-139.812"/><path d="m454.266 962.195v8.144"/><path d="m594.078 970.339v-8.144"/><path d="m594.078 974.411h-139.812"/><path d="m179.835 960.566.11-.945.197-1.584.15-1.049.241-1.324.125-.547.028-.145.013-.1"/><path d="m182.157 954.86c.001.024.009.086.009.086l.036.184.128.565.16.834.139.892.202 1.535.097.813.092.797"/><path d="m182.113 953.95c-.022-.054-.047-.103-.047-.103-.027-.045-.092-.131-.092-.131l-.073-.072-.08-.06-.087-.048-.093-.036-.098-.023-.099-.009-.098.005-.193.05-.136.073-.089.072c-.058.062-.097.113-.097.113l-.048.08c-.021.045-.04.09-.04.09"/><path d="m183.329 962.195v-1.629"/><path d="m179.528 960.566v1.629"/><path d="m180.73 960.566c-.003-1.169-.007-2.224-.01-3.085s-.007-1.527-.01-1.967-.007-.655-.01-.664"/><path d="m180.7 954.849v.517.172"/><path d="m182.128 960.566c.003-1.169.007-2.224.01-3.085s.007-1.527.01-1.967.007-.655.01-.664"/><path d="m182.157 954.849c-.022-.057-.051-.11-.086-.16s-.077-.096-.124-.136-.099-.075-.155-.103-.115-.05-.176-.064"/><path d="m181.616 954.386c-.061-.015-.124-.022-.188-.022s-.126.008-.188.022c-.123.029-.237.087-.331.167-.047.04-.089.086-.124.136s-.064.104-.086.16"/><path d="m182.157 955.557v-.191-.517"/><path d="m182.083 955.201c.004-.077.008-.135.012-.175"/><path d="m182.124 955.053c.005.062.01.155.015.277"/><path d="m180.718 955.331c.006-.148.012-.252.019-.312"/><path d="m180.759 954.998c.005.038.01.105.015.199"/><path d="m180.791 955.311v-.238"/><path d="m180.791 954.918v-.206"/><path d="m180.7 954.85c.015-.575.03-.88.046-.903.007-.01.014.037.021.142"/><path d="m180.775 954.253c.005.119.011.272.016.459"/><path d="m180.791 954.712.075-.142"/><path d="m181.991 954.57.075.142"/><path d="m182.157 954.85c-.015-.575-.03-.88-.045-.903"/><path d="m182.082 954.253c-.005.109-.01.247-.015.413"/><path d="m182.066 955.123v.193"/><path d="m179.528 960.566h3.801"/><path d="m108.129 962.195h77.372"/><path d="m185.501 970.339h-77.372"/><path d="m108.129 962.195v8.144"/><path d="m185.501 970.339v-8.144"/><path d="m193.645 966.267h176.462"/><path d="m370.107 974.411h-176.462"/><path d="m185.501 974.411h-77.372"/></g></g><g clip-rule="evenodd" fill="#5d5790" fill-rule="evenodd"><path d="m442.728 947.571h-61.083v26.84h-6.787v24.433h74.657v-24.433h-6.787z"/><path d="m700.914 974.411 2.309-26.841h-2.896l.307-.307v-795.436-20.259-39.467h.28v-27.148h-74.937-96.713v-62.102h-45.814v17.308h-10.859v5.43h1.357v5.43h27.148v47.509 13.574 65.155h172.39v200.926h-172.62v10.859h172.62v1.327 576.895l.307.307h-68.177v26.841h-6.787v24.433h65.038 39.7v-24.433h-2.653zm-112.265-882.31h37.328 13.235.339 33.935v54.296h-162.888v-47.509h1.357v-6.787h16.289 43.098z"/><path d="m336.851 31.018h5.43v137.097h-5.43z"/><path d="m338.208 25.588v-5.43h-10.859v-2.715-13.573h-128.953-13.574v42.08h-156.101v-.669h-27.148v13.574h.307v67.181 13.438 230.894h-.307v576.895l1.513 6.983v20.165h-1.326l-1.327 24.433h73.012 29.933v-24.433h-6.787v-26.841h-68.177l.307-.307v-542.952l286.411-.008v-33.935-67.87h-1.358v-8.144h-4.072v1.357h-5.43v97.732l-275.552.009v-261.986h183.25v-58.368-13.575-28.505h92.303v169.675h5.43v1.357h4.072v-8.144h1.358v-162.888h21.718v-5.43zm-309.487 47.51h156.101 6.787 9.502v47.509h-172.39z"/><path d="m209.255 290.282h95.018v5.43h-95.018z"/></g><g fill="none" stroke="#43456f" stroke-miterlimit="10" stroke-width="1.3742"><path d="m674.97 358.373h-175.12"/><path d="m674.97 369.233h-174.226v-10.86"/><path d="m702.24 64.953h-76.263"/><path d="m625.977 64.953v27.148"/><path d="m625.977 92.101h76.263"/><path d="m28.721 947.263v-826.656"/><path d="m28.721 73.098v-29.184"/><path d="m28.721 58.176v-12.895"/><path d="m28.721 45.281h-27.148"/><path d="m1.573 45.281v953.875"/><path d="m1.573 947.263h27.148"/><path d="m96.591 974.411v-27.148"/><path d="m96.591 947.263h-93.505"/><path d="m703.223 947.263h-97.607"/><path d="m605.616 947.263v27.148"/><path d="m442.728 974.411v-27.148"/><path d="m442.728 947.263h-61.083"/><path d="m381.645 947.263v27.148"/><path d="m598.829 974.411v24.433"/><path d="m598.829 998.844h104.738"/><path d="m374.858 974.411v24.433"/><path d="m374.858 998.844h74.657"/><path d="m449.515 998.844v-24.433"/><path d="m.433 998.844h102.945"/><path d="m103.378 998.844v-24.433"/><path d="m598.829 998.844h-149.314"/><path d="m374.858 998.844h-271.48"/><path d="m703.567 998.844h-104.738"/><path d="m449.515 998.844h149.314"/><path d="m103.378 998.844h271.48"/><path d="m449.515 998.844h-74.657"/><path d="m103.378 998.844h-74.657"/><path d="m28.721 998.844h-27.148"/><path d="m96.591 947.263h285.054"/><path d="m442.728 947.263h162.888"/><path d="m673.486 92.101v6.787"/><path d="m673.486 146.397v800.866"/><path d="m673.486 947.263h27.148"/><path d="m700.634 999.156v-852.759"/><path d="m700.634 98.888v-6.787"/><path d="m700.634 92.101h-27.148"/><path d="m304.273 31.018v162.888"/><path d="m313.775 193.906h1.357"/><path d="m315.132 193.906v-162.888"/><path d="m304.273 302.498v90.946"/><path d="m304.273 404.303h10.859"/><path d="m315.132 404.303v-101.805"/><path d="m315.132 302.498h-1.357"/><path d="m201.111 120.607h-9.502"/><path d="m76.23 120.607h-13.574"/><path d="m28.721 120.607v10.859"/><path d="m28.721 131.466h183.249"/><path d="m304.273 393.444-275.552.008"/><path d="m28.721 393.452v10.859"/><path d="m28.721 404.311 275.552-.008"/><path d="m700.634 146.397v10.859"/><path d="m511.955 143.682v-51.581"/><path d="m501.096 157.256h172.39"/><path d="m673.486 157.256v-10.859"/><path d="m639.551 146.397h-13.574"/><path d="m1.573 702.931v210.397"/><path d="m28.721 913.328v-210.397"/><path d="m184.822 43.914v2.036"/><path d="m211.97 31.018h115.379"/><path d="m327.349 20.159v-16.289"/><path d="m327.349 3.87h-142.509"/><path d="m483.45 31.018h17.646"/><path d="m483.45 3.87v16.289"/><path d="m625.977 64.953h-97.733"/><path d="m501.096 92.101h124.881"/><path d="m625.977 92.101v-27.148"/><path d="m528.244 64.953v-50.224"/><path d="m501.096 31.018v126.238"/><path d="m1.573 72.429v-27.148"/><path d="m184.822 16.766v-12.896"/><path d="m28.721 45.281v10.859"/><path d="m528.447 3.87h-44.997"/><path d="m528.244 3.87v10.859"/><path d="m184.822 45.95h-156.101"/><path d="m28.721 45.95v27.148"/><path d="m201.111 73.098v47.509"/><path d="m211.97 131.466v-100.448"/><path d="m211.97 73.098h-149.314"/><path d="m28.721 43.914v14.262"/><path d="m700.634 146.397v-81.216"/><path clip-rule="evenodd" d="m673.486 146.397v-47.509h-33.935l27.148 6.787z"/><path d="m639.551 98.888v47.509"/><path d="m639.551 146.397h33.935"/><path d="m673.486 146.397v-47.509"/><path d="m673.486 98.888h-33.935"/><path clip-rule="evenodd" d="m510.598 146.397 15.836-31.672 99.543-15.837h-115.379v47.418z"/><path d="m625.977 98.888v47.509"/><path d="m625.977 146.397h-115.379"/><path d="m510.598 146.397v-47.509"/><path d="m510.598 98.888h115.379"/><path clip-rule="evenodd" d="m191.609 120.607v-47.509h-115.379l99.543 15.836z"/><path d="m76.23 73.098v47.509"/><path d="m76.23 120.607h115.379"/><path d="m191.609 120.607v-47.509"/><path d="m191.609 73.098h-115.379"/><path clip-rule="evenodd" d="m28.721 120.607 6.787-40.722 27.148-6.787h-33.935v8.538z"/><path d="m62.656 73.098v47.509"/><path d="m62.656 120.607h-33.935"/><path d="m28.721 120.607v-47.509"/><path d="m28.721 73.098h33.935"/><path d="m184.822 16.766v27.148"/><path d="m209.255 290.282h95.018"/><path d="m209.255 295.711v-5.429"/><path d="m304.273 295.711h-95.018"/><path d="m304.273 290.282v5.429"/><path d="m313.775 294.354v5.43"/><path d="m309.703 294.354h4.072"/><path d="m309.703 295.711v-1.357"/><path d="m304.273 295.711h5.43"/><path d="m304.273 299.784v-4.073"/><path d="m313.775 299.784h-9.502"/><path d="m304.273 196.621h9.502"/><path d="m304.273 200.693v-4.072"/><path d="m309.703 200.693h-5.43"/><path d="m309.703 202.051v-1.358"/><path d="m313.775 202.051h-4.072"/><path d="m313.775 196.621v5.43"/><path d="m304.273 299.784h9.502"/><path d="m304.273 302.498v-2.714"/><path d="m313.775 302.498h-9.502"/><path d="m313.775 299.784v2.714"/><path d="m313.775 193.906v2.715"/><path d="m304.273 193.906h9.502"/><path d="m304.273 196.621v-2.715"/><path d="m313.775 196.621h-9.502"/><path d="m304.273 200.693c-52.477 0-95.018 42.541-95.018 95.018"/><path d="m342.28 31.018h-5.429"/><path d="m336.851 31.018v137.098"/><path d="m336.851 168.116h5.429"/><path d="m342.28 168.116v-137.098"/><path d="m330.064 20.159v10.859"/><path d="m330.064 31.018h6.787"/><path d="m336.851 31.018v-5.429"/><path d="m336.851 25.589h1.357"/><path d="m338.208 25.589v-5.43"/><path d="m338.208 20.159h-8.144"/><path d="m480.735 20.159h-8.144"/><path d="m472.591 20.159v5.43"/><path d="m472.591 25.589h1.357"/><path d="m473.948 25.589v5.429"/><path d="m473.948 31.018h6.787"/><path d="m480.735 31.018v-10.859"/><path d="m330.064 20.159h-2.715"/><path d="m327.349 20.159v10.859"/><path d="m327.349 31.018h2.715"/><path d="m330.064 31.018v-10.859"/><path d="m480.735 20.159v10.859"/><path d="m480.735 31.018h2.715"/><path d="m483.45 31.018v-10.859"/><path d="m483.45 20.159h-2.715"/><path d="m336.851 168.116c75.717 0 137.097-61.381 137.097-137.097"/><path d="m327.349 3.87h2.715"/><path d="m330.064 3.87v16.289"/><path d="m332.779 20.159v-19.004"/><path d="m332.779 1.155h-10.181"/><path d="m322.598 1.155v2.715"/><path d="m486.844 33.733h-6.109"/><path d="m480.735 33.733v-2.715"/><path d="m478.02 31.018v5.43"/><path d="m478.02 36.448h10.181"/><path d="m488.201 36.448v-5.43"/><path d="m486.844 31.018v2.715"/><path d="m480.735 3.87h2.715"/><path d="m488.201 3.87v-2.715"/><path d="m488.201 1.155h-10.181"/><path d="m478.02 1.155v19.004"/><path d="m480.735 20.159v-16.289"/><path d="m323.956 33.733v-2.715"/><path d="m322.598 31.018v5.43"/><path d="m322.598 36.448h10.181"/><path d="m332.779 36.448v-5.43"/><path d="m330.064 31.018v2.715"/><path d="m330.064 33.733h-6.108"/></g><g fill="#43456f"><path d="m362.837 639.851h-.085l-5.299 2.801-1.067-5.411 7.349-3.798h5.383v30.855h-6.28v-24.447z"/><path d="m380.308 659.077c.812.095 1.537.095 2.819 0 1.966-.143 3.974-.76 5.469-1.898 1.794-1.377 2.991-3.371 3.503-5.697l-.128-.047c-1.239 1.424-3.033 2.231-5.554 2.231-4.7 0-8.674-3.655-8.674-9.637 0-6.029 4.358-11.108 10.468-11.108 7.136 0 10.511 6.076 10.511 13.292 0 6.408-1.838 11.107-4.871 14.193-2.648 2.658-6.28 4.13-10.596 4.319-1.11.096-2.222.048-2.947 0zm3.93-15.476c0 2.658 1.282 4.938 3.932 4.938 1.751 0 2.99-.949 3.588-2.042.214-.427.342-.901.342-1.804 0-3.275-1.11-6.503-4.059-6.503-2.222 0-3.845 2.184-3.803 5.411z"/><path d="m400.256 669.948c1.325-4.226 2.479-9.162 3.076-13.482l6.623-.475c-1.41 4.843-3.333 9.827-5.384 13.529z"/><path d="m432.981 633.443v4.557l-11.45 26.299h-6.879l11.45-24.827v-.095h-12.731v-5.934z"/><path d="m176.036 239.86v-7.357h-12.305v-4.7l10.511-18.798h7.946v18.086h3.333v5.412h-3.333v7.357zm0-12.77v-6.836c0-1.851.086-3.75.214-5.743h-.171c-.897 1.993-1.624 3.797-2.563 5.743l-3.717 6.741v.095z"/><path d="m186.543 245.509c1.325-4.226 2.479-9.162 3.076-13.482l6.623-.475c-1.41 4.843-3.333 9.826-5.384 13.529z"/><path d="m210.851 239.86v-7.357h-12.305v-4.7l10.511-18.798h7.946v18.086h3.333v5.412h-3.333v7.357zm0-12.77v-6.836c0-1.851.086-3.75.214-5.743h-.171c-.897 1.993-1.623 3.797-2.563 5.743l-3.717 6.741v.095z"/><path d="m413.211 257.06h-10.767l-.599 4.747c.599-.095 1.111-.095 1.795-.095 2.648 0 5.341.664 7.306 2.23 2.094 1.567 3.376 4.13 3.376 7.738 0 5.744-4.443 10.823-11.921 10.823-3.375 0-6.194-.854-7.733-1.757l1.154-5.411c1.238.664 3.76 1.519 6.28 1.519 2.691 0 5.554-1.424 5.554-4.699 0-3.181-2.264-5.127-7.818-5.127-1.538 0-2.605.095-3.76.285l1.838-16.188h15.295z"/><path d="m416.668 287.632c1.325-4.226 2.479-9.162 3.076-13.482l6.623-.475c-1.41 4.843-3.333 9.827-5.384 13.529z"/><path d="m440.976 281.982v-7.357h-12.305v-4.7l10.511-18.798h7.946v18.086h3.333v5.412h-3.333v7.357zm0-12.769v-6.836c0-1.851.086-3.75.214-5.743h-.171c-.897 1.993-1.623 3.797-2.563 5.743l-3.717 6.741v.095z"/><path d="m359.531 201.248v9.969h.897l7.775-9.969h4.571l-9.015 10.396c3.333.379 5.341 2.848 6.964 6.978.556 1.52 1.282 3.75 2.223 5.602h-3.932c-.555-.997-1.281-2.801-1.922-4.699-1.41-3.703-3.333-5.412-6.836-5.412h-.727v10.111h-3.717v-22.976z"/><path d="m394.733 212.546c0 8.497-5.298 12.2-10.296 12.2-5.598 0-9.912-4.558-9.912-11.82 0-7.69 4.528-12.2 10.254-12.2 5.939-.001 9.954 4.794 9.954 11.82zm-16.406.237c0 5.032 2.606 8.829 6.28 8.829 3.59 0 6.281-3.75 6.281-8.924 0-3.893-1.752-8.829-6.195-8.829s-6.366 4.557-6.366 8.924z"/><path d="m399.472 208.748c0-2.942-.086-5.316-.171-7.5h3.375l.171 3.94h.086c1.537-2.801 3.973-4.463 7.348-4.463 4.999 0 8.759 4.7 8.759 11.678 0 8.26-4.528 12.343-9.399 12.343-2.734 0-5.127-1.329-6.365-3.608h-.086v12.485h-3.717v-24.875zm3.717 6.124c0 .617.086 1.187.171 1.709.684 2.896 2.948 4.89 5.64 4.89 3.974 0 6.28-3.608 6.28-8.877 0-4.604-2.179-8.545-6.152-8.545-2.563 0-4.956 2.041-5.683 5.174-.128.522-.256 1.14-.256 1.709z"/><path d="m427.238 201.248v9.684c0 3.655-.042 5.935-.213 9.21l.128.047c1.239-2.801 1.966-4.414 3.333-7.073l6.451-11.867h4.4v22.976h-3.589v-9.731c0-3.75.085-5.696.257-9.399h-.129c-1.324 2.943-2.222 4.795-3.418 7.121-1.965 3.561-4.229 7.975-6.451 12.01h-4.315v-22.976h3.546z"/><path d="m463.466 201.248v19.843l2.136.047-.213 10.396h-2.948l-.171-7.311h-14.313l-.171 7.311h-2.948l-.171-10.396 1.752-.047c.897-1.472 1.581-3.038 2.051-4.7.812-2.848 1.196-5.934 1.196-9.161v-5.981h13.8zm-10.468 6.978c0 3.038-.385 5.98-1.068 8.544-.427 1.566-1.025 2.991-1.666 4.272h9.527v-16.614h-6.793z"/><path d="m488.627 212.546c0 8.497-5.298 12.2-10.297 12.2-5.597 0-9.912-4.558-9.912-11.82 0-7.69 4.529-12.2 10.254-12.2 5.939-.001 9.955 4.794 9.955 11.82zm-16.406.237c0 5.032 2.606 8.829 6.281 8.829 3.588 0 6.28-3.75 6.28-8.924 0-3.893-1.752-8.829-6.195-8.829s-6.366 4.557-6.366 8.924z"/><path d="m493.367 208.748c0-2.942-.086-5.316-.171-7.5h3.375l.171 3.94h.086c1.537-2.801 3.973-4.463 7.348-4.463 4.999 0 8.759 4.7 8.759 11.678 0 8.26-4.528 12.343-9.399 12.343-2.734 0-5.127-1.329-6.365-3.608h-.086v12.485h-3.717v-24.875zm3.717 6.124c0 .617.086 1.187.171 1.709.684 2.896 2.948 4.89 5.64 4.89 3.974 0 6.28-3.608 6.28-8.877 0-4.604-2.179-8.545-6.152-8.545-2.563 0-4.956 2.041-5.683 5.174-.128.522-.256 1.14-.256 1.709z"/><path d="m271.611 579.018v9.969h.897l7.775-9.969h4.571l-9.015 10.396c3.333.379 5.341 2.848 6.964 6.978.556 1.52 1.282 3.75 2.223 5.602h-3.932c-.555-.997-1.281-2.801-1.922-4.699-1.41-3.703-3.333-5.412-6.836-5.412h-.727v10.111h-3.717v-22.976z"/><path d="m290.022 579.018 4.528 13.576c.471 1.52.982 3.323 1.324 4.7h.086c.385-1.377.812-3.134 1.324-4.795l4.102-13.481h3.974l-5.64 16.377c-2.691 7.88-4.529 11.915-7.092 14.384-1.838 1.804-3.675 2.516-4.615 2.706l-.939-3.513c.939-.333 2.179-.997 3.29-2.042 1.025-.901 2.307-2.516 3.161-4.651.171-.428.299-.76.299-.997s-.085-.569-.256-1.092l-7.647-21.172z"/><path d="m310.697 579.018 2.948 4.937c.77 1.282 1.41 2.469 2.094 3.751h.128c.684-1.377 1.367-2.563 2.051-3.798l2.905-4.89h4.06l-7.05 11.108 7.263 11.867h-4.272l-3.033-5.174c-.812-1.329-1.495-2.611-2.222-3.988h-.086c-.684 1.377-1.409 2.611-2.179 3.988l-2.99 5.174h-4.145l7.349-11.726-7.007-11.25h4.186z"/><path d="m332.355 579.018v9.257h9.827v-9.257h3.717v22.976h-3.717v-10.396h-9.827v10.396h-3.717v-22.976z"/><path d="m367.301 601.994h-3.717v-9.637h-2.777c-1.58 0-2.648.475-3.46 1.282-1.538 1.376-2.094 4.225-2.905 6.456-.257.712-.556 1.329-.854 1.898h-4.017c.471-.76.897-1.614 1.282-2.611.897-2.23 1.409-5.222 3.247-6.93.641-.617 1.41-1.14 2.35-1.33v-.142c-2.691-.333-5.469-2.184-5.469-5.696 0-2.374 1.153-3.988 2.734-4.984 1.709-1.092 4.229-1.567 6.922-1.567 2.478 0 4.87.237 6.664.476zm-3.717-20.223c-.939-.142-1.794-.237-3.119-.237-2.563 0-5.597.808-5.597 3.988 0 2.942 3.29 3.987 5.512 3.987h3.204z"/><path d="m382.123 587.61v3.086h-10.553v-3.086z"/><path d="m399.125 579.018v3.37h-8.973v19.605h-3.717v-22.976h12.69z"/><path d="m420.827 590.316c0 8.497-5.298 12.2-10.296 12.2-5.598 0-9.912-4.558-9.912-11.82 0-7.69 4.528-12.2 10.254-12.2 5.938 0 9.954 4.795 9.954 11.82zm-16.406.237c0 5.032 2.606 8.829 6.28 8.829 3.59 0 6.281-3.75 6.281-8.924 0-3.893-1.752-8.829-6.195-8.829s-6.366 4.557-6.366 8.924z"/><path d="m440.306 601.139c-.983.569-3.162 1.329-5.939 1.329-6.237 0-10.297-4.699-10.297-11.725 0-7.073 4.358-12.2 11.109-12.2 2.221 0 4.187.617 5.212 1.187l-.854 3.229c-.897-.57-2.307-1.092-4.357-1.092-4.743 0-7.307 3.893-7.307 8.687 0 5.316 3.076 8.592 7.178 8.592 2.137 0 3.547-.616 4.614-1.139z"/><path d="m459.358 579.018v3.323h-6.451v19.652h-3.718v-19.652h-6.451v-3.323z"/><path d="m466.107 579.018v9.684c0 3.655-.043 5.935-.214 9.21l.128.047c1.239-2.801 1.965-4.414 3.332-7.073l6.452-11.867h4.4v22.976h-3.589v-9.731c0-3.75.086-5.696.256-9.399h-.128c-1.324 2.943-2.222 4.795-3.418 7.121-1.965 3.561-4.229 7.975-6.451 12.01h-4.315v-22.976h3.547z"/><path d="m489.943 579.018v9.257h9.826v-9.257h3.717v22.976h-3.717v-10.396h-9.826v10.396h-3.718v-22.976z"/><path d="m521.086 601.994-.299-2.896h-.129c-1.153 1.804-3.375 3.418-6.323 3.418-4.187 0-6.323-3.275-6.323-6.599 0-5.554 4.443-8.592 12.434-8.545v-.475c0-1.898-.471-5.316-4.7-5.316-1.923 0-3.931.664-5.384 1.709l-.854-2.753c1.709-1.234 4.187-2.042 6.793-2.042 6.323 0 7.861 4.795 7.861 9.399v8.592c0 1.994.085 3.94.342 5.507h-3.418zm-.556-11.726c-4.102-.095-8.759.713-8.759 5.175 0 2.706 1.624 3.987 3.547 3.987 2.691 0 4.4-1.898 4.998-3.845.129-.428.214-.902.214-1.329z"/><path d="m545.605 601.994h-3.717v-9.637h-2.777c-1.58 0-2.648.475-3.46 1.282-1.538 1.376-2.094 4.225-2.905 6.456-.257.712-.556 1.329-.854 1.898h-4.017c.471-.76.897-1.614 1.282-2.611.897-2.23 1.409-5.222 3.247-6.93.641-.617 1.41-1.14 2.35-1.33v-.142c-2.691-.333-5.469-2.184-5.469-5.696 0-2.374 1.153-3.988 2.734-4.984 1.709-1.092 4.229-1.567 6.922-1.567 2.478 0 4.87.237 6.664.476zm-3.717-20.223c-.939-.142-1.794-.237-3.119-.237-2.563 0-5.597.808-5.597 3.988 0 2.942 3.29 3.987 5.512 3.987h3.204z"/><path d="m186.383 180.089c-.982.569-3.161 1.329-5.938 1.329-6.237 0-10.296-4.699-10.296-11.725 0-7.073 4.357-12.2 11.107-12.2 2.223 0 4.188.617 5.213 1.187l-.854 3.229c-.897-.57-2.308-1.092-4.358-1.092-4.742 0-7.306 3.893-7.306 8.687 0 5.316 3.076 8.592 7.178 8.592 2.137 0 3.546-.616 4.614-1.139z"/><path d="m187.619 182.841 11.92-34.415h2.906l-11.963 34.415z"/><path d="m206.801 157.967 4.528 13.576c.47 1.52.983 3.323 1.325 4.7h.085c.385-1.377.812-3.134 1.324-4.795l4.102-13.481h3.974l-5.64 16.377c-2.691 7.88-4.528 11.915-7.093 14.384-1.837 1.804-3.674 2.516-4.613 2.706l-.94-3.513c.94-.333 2.179-.997 3.29-2.042 1.025-.901 2.307-2.516 3.161-4.651.171-.428.3-.76.3-.997s-.086-.569-.257-1.092l-7.647-21.172z"/></g></svg>