<svg width="79" height="28" viewBox="0 0 79 28" fill="none" xmlns="http://www.w3.org/2000/svg">
<path d="M22.6837 3.66581H4.22066L5.55066 0.0078125H24.0137L22.6837 3.66581ZM22.0187 5.49481H3.54866L2.21866 9.15181H20.6807L22.0187 5.49481ZM20.0237 10.9648H1.55266L0.222656 14.6208H18.6687L20.0237 10.9628V10.9648Z" fill="#009fdf"/>
<path d="M66.6753 23.7741H70.0003C70.4729 23.8306 70.9522 23.77 71.3958 23.5975C71.8395 23.425 72.2339 23.146 72.5443 22.7851C73.0002 22.1883 73.2298 21.4492 73.1923 20.6991C73.2235 20.2216 73.1358 19.7438 72.937 19.3086C72.7382 18.8733 72.4346 18.4942 72.0533 18.2051C71.4362 17.8013 70.7024 17.6142 69.9673 17.6731H66.6753V23.7741ZM62.3113 27.4571V5.49509H76.6013L75.3453 9.17709H66.6753V14.0401H70.2083C73.0593 14.0401 74.5383 14.7221 75.5613 15.5951C76.2923 16.2423 76.8672 17.0466 77.243 17.9477C77.6189 18.8488 77.7858 19.8233 77.7313 20.7981C77.7875 21.848 77.5804 22.8952 77.129 23.8447C76.6775 24.7943 75.996 25.6159 75.1463 26.2351C73.7743 27.1831 72.3363 27.4491 69.4103 27.4491L62.3103 27.4571H62.3113ZM49.6593 27.4571V9.16909H43.3083V5.49509H60.9393L59.6843 9.17709H54.0643V27.4651L49.6593 27.4571ZM32.0613 14.2901H34.5553C35.0649 14.3246 35.5769 14.2852 36.0753 14.1731C36.5942 14.0075 37.0414 13.6705 37.3435 13.2173C37.6457 12.7642 37.7849 12.2218 37.7383 11.6791C37.8072 11.1402 37.6761 10.5946 37.3698 10.1459C37.0635 9.69712 36.6033 9.37626 36.0763 9.24409C35.5315 9.11749 34.9719 9.06701 34.4133 9.09409H32.0613V14.2901ZM32.0613 18.0881V23.8491H35.1033C35.9419 23.9452 36.7851 23.7129 37.4563 23.2011C38.0823 22.6211 38.4163 21.7911 38.3703 20.9401C38.3835 20.2674 38.1794 19.6085 37.7883 19.0611C37.1403 18.2301 36.3423 18.0711 34.9783 18.0711L32.0613 18.0881ZM39.0933 15.7691V15.8441C39.8347 16.1292 40.5275 16.5272 41.1473 17.0241C41.7735 17.5438 42.2684 18.2038 42.5919 18.9506C42.9154 19.6973 43.0584 20.5098 43.0093 21.3221C43.0093 24.3231 41.4133 26.4921 38.7943 27.1411C37.7506 27.3964 36.6755 27.5001 35.6023 27.4491H27.6973V5.49509H34.7293C35.8463 5.45409 36.9643 5.55709 38.0543 5.80209C40.5983 6.48409 42.2693 8.23809 42.2693 11.0061C42.2901 11.6662 42.1763 12.3236 41.9347 12.9382C41.6931 13.5528 41.3289 14.1118 40.8643 14.5811C40.3703 15.0811 39.7833 15.4801 39.1343 15.7531L39.0943 15.7691H39.0933Z" fill="#0d2b75"/>
</svg>
